<svg width="1195" height="660" viewBox="0 0 1195 660" fill="none" xmlns="http://www.w3.org/2000/svg">
<path fill-rule="evenodd" clip-rule="evenodd" d="M1053.49 1.74099C1038.26 7.18299 1026.54 20.042 1023.06 35.112C1021.61 41.403 1021.79 55.627 1023.4 61.664C1024.16 64.504 1025.83 69.004 1027.13 71.664C1030.46 78.495 1041.21 89.017 1048.5 92.573C1053.97 95.242 1055.43 95.5 1065 95.5C1074.23 95.5 1076.17 95.185 1081 92.901C1092.82 87.314 1101.69 77.591 1106.22 65.249C1109.23 57.03 1109.23 38.977 1106.22 30.767C1101.97 19.172 1092.98 9.09598 1082.13 3.74498C1073.98 -0.269017 1061.55 -1.14001 1053.49 1.74099ZM1145.32 1.38399C1136.86 4.14099 1128.37 11.471 1125.4 18.578C1123.21 23.827 1123.64 32.679 1126.37 38.541C1130.76 47.976 1138.51 52.355 1157.9 56.359C1164.62 57.745 1171.54 59.717 1173.29 60.74C1186.34 68.36 1174.76 81.097 1156 79.759C1146.56 79.086 1139.48 75.283 1137.03 69.572C1133.81 62.049 1128.03 59.874 1123.45 64.455C1121.14 66.766 1121 67.558 1121 78C1121 88.442 1121.14 89.234 1123.45 91.545C1126.39 94.486 1129.93 94.688 1133.12 92.1C1135.39 90.264 1135.59 90.26 1138.99 91.982C1144.81 94.934 1153.12 96.287 1162.63 95.832C1181.55 94.927 1194.92 83.996 1194.98 69.376C1195.01 62.231 1192.62 56.22 1187.81 51.308C1182.66 46.053 1177.42 43.791 1162.95 40.565C1147.43 37.104 1143.28 35.441 1141.48 31.959C1139.32 27.774 1139.65 25.473 1142.95 21.707C1149.04 14.778 1162.38 14.049 1171.17 20.167C1172.8 21.296 1174.5 23.991 1175.51 27.014C1178.18 35.063 1184.3 37.502 1189.08 32.422C1191.26 30.095 1191.53 28.855 1191.78 19.672C1192.09 8.45899 1191.22 5.54099 1186.81 3.06499C1184.43 1.73199 1183.78 1.73899 1180.85 3.12999C1177.78 4.58399 1177.24 4.55099 1173.03 2.65099C1167.28 0.0639894 1151.58 -0.654009 1145.32 1.38399ZM473.5 3.12499C468.386 5.99799 467.47 11.561 471.455 15.545C473.596 17.687 474.808 18 480.955 18H488V48V78H481.135C475.704 78 473.719 78.433 471.635 80.073C468.412 82.607 468.083 87.645 470.911 91.139L472.822 93.5L512.911 93.783L553 94.066V76.983C553 55.892 551.96 53 544.373 53C543.018 53 540.805 54.105 539.455 55.455C537.174 57.735 537 58.622 537 67.955V78H520.485H503.97L504.235 48.25L504.5 18.5L511.5 18C519.525 17.427 522.717 15.663 523.585 11.324C524.047 9.01499 523.609 7.65698 521.681 5.41298L519.177 2.49999L497.338 2.251C482.592 2.082 474.85 2.36599 473.5 3.12499ZM573.5 3.15499C568.691 5.78499 567.563 11 570.908 15.139C572.646 17.29 573.781 17.545 583.658 18L594.5 18.5L594.765 48.25L595.03 78H584.65C575.663 78 573.916 78.278 571.635 80.073C568.413 82.607 568.083 87.645 570.91 91.139L572.821 93.5L601.944 93.793L631.067 94.087L634.033 91.12C637.908 87.246 637.873 83.912 633.923 80.589C631.066 78.184 630.14 78 620.923 78H611V48V18H621.545C631.409 18 632.25 17.841 634.545 15.545C637.848 12.243 637.684 8.52999 634.077 4.92299L631.154 1.99999L603.327 2.02999C585.125 2.04999 574.808 2.43899 573.5 3.15499ZM655.5 3.15499C647.867 7.32999 650.151 16.719 659.09 17.912L663.5 18.5L663.765 48.25L664.03 78H660.965C653.912 78 649.575 83.046 651.623 88.869C653.366 93.826 654.619 93.969 696.25 93.985L735 94V80.968C735 66.514 733.792 61.774 729.626 59.875C726.302 58.361 722.386 59.481 720.397 62.516C719.502 63.883 718.535 67.925 718.248 71.5L717.726 78H698.863H680V67V56H686.5H693V59.429C693 67.763 703.951 70.423 707.706 63C709.221 60.005 709.482 37.397 708.045 33.617C705.022 25.668 694.468 27.153 693.084 35.722L692.473 39.5L686.237 39.798L680 40.095V29.048V18H697.5H715V24.577C715 30.513 715.285 31.439 717.923 34.077C719.531 35.685 721.815 37 723 37C724.185 37 726.469 35.685 728.077 34.077L731 31.154V16.577V1.99999L694.25 2.02999C669.588 2.05099 656.842 2.42099 655.5 3.15499ZM747 18.351C747 35.314 747.854 40.316 751.039 42.021C754.308 43.77 758.524 43.136 760.977 40.525C763.004 38.367 763.364 36.765 763.785 28.025L764.267 18H771.634H779V48V78H771.635C765.698 78 763.759 78.402 761.635 80.073C758.412 82.608 758.083 87.646 760.912 91.139L762.823 93.5H787.307C809.98 93.5 811.946 93.359 813.895 91.595C817.053 88.737 816.778 82.757 813.365 80.073C811.241 78.402 809.302 78 803.365 78H796V48V18H804H812V27.865C812 36.331 812.294 38.104 814.073 40.365C816.607 43.587 821.644 43.917 825.139 41.09C827.445 39.226 827.507 38.744 827.812 20.59L828.124 1.99999H787.562H747V18.351ZM840.308 3.00998C836.921 4.37398 834.715 8.42499 835.475 11.886C836.178 15.085 839.72 18 842.905 18C844.816 18 844.891 18.882 845.19 44.75L845.5 71.5L848.462 76.848C851.942 83.13 859.12 89.897 865.769 93.165C872.685 96.563 885.404 96.957 893.247 94.015C900.793 91.184 909.063 83.608 912.706 76.19L915.5 70.5L915.824 44.25C916.143 18.362 916.176 18 918.245 18C919.399 18 921.165 17.255 922.171 16.345C923.873 14.805 924.127 14.805 925.829 16.345C926.835 17.255 928.972 18.01 930.579 18.023C933.475 18.046 933.632 18.363 949.14 55.773L964.779 93.5L972.64 93.773L980.5 94.047L996.382 56.023C1012.13 18.327 1012.29 18 1015.18 18C1018.57 18 1023 14.088 1023 11.093C1023 7.81999 1020.94 4.29499 1018.34 3.10999C1014.55 1.38099 988.566 1.65599 985.072 3.46299C977.43 7.41399 980.986 18 989.955 18C992.18 18 994.001 18.338 994.002 18.75C994.003 19.162 989.208 30.879 983.347 44.788L972.691 70.075L961.943 44.288L951.194 18.5L956.217 17.961C964.802 17.04 967.714 10.56 962.077 4.92299L959.154 1.99999L944.327 2.00599C933.403 2.01099 928.776 2.38999 926.75 3.44699C924.361 4.69299 923.639 4.69299 921.25 3.44699C917.324 1.39899 892.039 1.41099 888.072 3.46299C883.552 5.79999 882.577 11.021 885.895 15.119C887.368 16.937 889.096 17.575 893.645 17.98L899.5 18.5V43C899.5 66.832 899.437 67.601 897.198 71.202C891.74 79.98 877.529 82.59 868.818 76.415C861.29 71.077 861 69.812 861 42.266V18H866.545C871.1 18 872.53 17.561 874.545 15.545C878.541 11.55 877.531 5.94098 872.316 3.16298C869.733 1.78798 843.653 1.66198 840.308 3.00998ZM925 10.559C925 11.416 924.55 11.84 924 11.5C923.45 11.16 923 10.459 923 9.94098C923 9.42298 923.45 8.99999 924 8.99999C924.55 8.99999 925 9.70199 925 10.559ZM1073.04 17.513C1079.8 19.9 1085.5 25.239 1089.11 32.579C1091.84 38.125 1092.34 40.261 1092.41 46.803C1092.52 56.483 1090.83 62.373 1086.14 68.567C1075.87 82.158 1060.07 83.698 1047.89 72.296C1040.88 65.743 1038.52 59.639 1038.51 48C1038.5 37.041 1040.25 32.046 1046.56 25.063C1053.98 16.857 1063.49 14.144 1073.04 17.513ZM120.214 108.891C81.083 122.408 78.132 181.485 115.698 199.278C122.02 202.273 123.24 202.5 133 202.494C142.556 202.488 144.039 202.225 149.5 199.57C157.306 195.774 167.783 185.349 171.29 177.888C174.88 170.25 175.947 165.026 175.976 154.932C176.024 138.055 169.536 124.754 156.428 114.858C146.552 107.401 131.64 104.944 120.214 108.891ZM305.214 108.833C284.838 116.095 272.647 136.037 274.296 159.409C275.311 173.788 281.589 185.722 292.748 194.484C300.964 200.935 308.849 203.354 319.857 202.798C331.055 202.234 337.945 198.994 347.073 190C357.115 180.106 360.929 170.629 360.976 155.46C361.036 135.536 351.649 119.384 335.319 111.313C328.729 108.056 326.772 107.568 319.161 107.278C312.57 107.028 309.237 107.399 305.214 108.833ZM4.07701 111.589C-1.76099 116.501 0.996998 123.832 9.09 124.912L13.5 125.5L13.765 155.25L14.03 185H10.965C4.114 185 -0.0719999 189.591 1.406 195.482C2.671 200.52 6.001 201.136 30.144 200.804C51.926 200.504 52.202 200.473 54.09 198.139C56.529 195.124 56.529 190.876 54.09 187.861C52.327 185.681 51.332 185.474 41.09 185.162L30 184.823V173.912V163H36.5H43L43.032 166.25C43.111 174.298 52.093 177.511 57.016 171.253C58.768 169.026 58.998 167.195 58.985 155.615C58.976 147.055 58.531 141.632 57.706 140C53.951 132.577 43 135.237 43 143.571V147H36.5H30V136V125H48.855H67.711L68.331 131.638C68.672 135.288 69.642 139.331 70.488 140.622C73.64 145.433 80.91 144.525 83.721 138.97C84.538 137.356 84.976 131.737 84.985 122.75L85 109H46.077H7.153L4.07701 111.589ZM185 127.326C185 145.188 185.058 145.706 187.314 147.826C189.595 149.968 193.286 150.595 196.455 149.379C199.607 148.169 201 143.458 201 134.008V124.916L208.75 125.208L216.5 125.5L216.765 155.25L217.03 185H209.965C199.152 185 194.972 188.043 196.462 194.829C197.692 200.425 200.395 201 225.481 201H248.154L251.077 198.077C252.685 196.469 254 194.185 254 193C254 191.815 252.685 189.531 251.077 187.923C248.361 185.207 247.618 185 240.577 185H233V155V125H241H249V134.05C249 146.607 250.916 150 258.009 150C259.892 150 261.556 149.109 262.927 147.365C264.849 144.923 265 143.425 265 126.865V109H225H185V127.326ZM366.5 110.208C363.489 111.935 362.067 114.19 362.032 117.295C361.997 120.34 365.882 125 368.455 125C369.814 125 370 128.608 370 155C370 183.61 369.914 185 368.135 185C367.109 185 365.084 185.933 363.635 187.073C359.871 190.034 359.912 195.999 363.719 198.993C366.28 201.008 367.353 201.113 382.309 200.816C397.6 200.512 398.251 200.414 400.091 198.139C402.75 194.851 402.524 190.433 399.545 187.455C397.53 185.439 396.1 185 391.545 185H386V163.5C386 151.675 386.163 142 386.362 142C386.561 142 390.46 150.325 395.027 160.5L403.33 179H410.509H417.688L425.817 160.75L433.945 142.5L433.973 163.75L434 185H429.135C422.453 185 419 187.725 419 193C419 195.973 419.602 197.329 421.635 198.927C424.025 200.807 425.615 201 438.734 201C449.886 201 453.965 200.636 456.55 199.409C459.615 197.955 460.097 197.955 462.174 199.409C464.156 200.797 469.394 201 503.295 201H542.144L541.822 185.911L541.5 170.822L538.587 168.319C536.326 166.376 534.983 165.949 532.587 166.411C527.598 167.373 526 170.212 526 178.111V185H506.5H487V174V163H493.5H500V166.326C500 173.579 508.977 177.053 513.658 171.611C515.873 169.036 516 168.129 516 154.867V140.846L512.975 137.821C510.529 135.375 509.428 134.925 507.225 135.472C502.949 136.533 500 139.881 500 143.674V147H493.5H487V136V125H504.366H521.731L522.239 132.096C522.627 137.526 523.24 139.685 524.851 141.296C527.764 144.209 533.65 144.151 536.051 141.186C538.211 138.517 539.256 129.764 538.817 118L538.5 109.5H500.83C463.236 109.5 463.155 109.505 460.786 111.731C458.451 113.925 458.384 113.93 456.764 112.037C454.604 109.515 450.444 108.827 439.588 109.197L430.676 109.5L421.349 130.5C416.22 142.05 411.68 152.299 411.26 153.275C410.701 154.577 407.729 148.907 400.12 132.025L389.741 109L379.121 109.03C373.02 109.048 367.649 109.549 366.5 110.208ZM549.923 111.923C546.316 115.53 546.152 119.243 549.455 122.545C551.252 124.343 552.993 125 555.955 125H560V155C560 184.704 559.979 185 557.923 185C555.202 185 550 190.252 550 193C550 194.185 551.315 196.469 552.923 198.077L555.846 201H570.473C588.872 201 592 199.747 592 192.373C592 191.018 590.895 188.805 589.545 187.455C587.53 185.439 586.1 185 581.545 185H576V162.833C576 150.642 576.32 140.986 576.71 141.377C577.101 141.768 585.834 155.23 596.117 171.294L614.813 200.5L622.906 200.79L631 201.081V163.04V125H633.326C636.58 125 640.333 120.69 640.333 116.953C640.333 115.134 639.443 112.997 638.142 111.694C636.129 109.679 634.799 109.473 621.853 109.172C614.099 108.992 606.674 109.116 605.352 109.448C599.454 110.928 597.146 117.489 600.895 122.119C602.368 123.937 604.096 124.575 608.645 124.98L614.5 125.5L614.77 147.484C614.998 166.064 614.83 169.239 613.681 167.984C612.933 167.168 604.101 153.563 594.054 137.75L575.786 109H564.316C552.972 109 552.814 109.032 549.923 111.923ZM658.465 109.929C653.275 112.09 652.061 118.307 656.008 122.508C658.21 124.852 658.962 125 668.674 125H679V155V185H669.056C660.07 185 658.849 185.226 656.389 187.342C652.654 190.555 652.654 195.445 656.389 198.658C659.105 200.995 659.176 201 687.421 201C714.547 201 715.84 200.913 718.365 198.927C722.087 196 722.087 190 718.365 187.073C716.104 185.294 714.331 185 705.865 185H696V155V125H706.326C715.826 125 716.825 124.815 718.826 122.686C721.711 119.614 721.746 113.986 718.897 111.405C716.946 109.638 714.756 109.485 688.647 109.291C673.166 109.176 659.584 109.463 658.465 109.929ZM734.923 111.923C731.316 115.53 731.152 119.243 734.455 122.545C736.252 124.343 737.993 125 740.955 125H745V155C745 184.704 744.979 185 742.923 185C740.202 185 735 190.252 735 193C735 194.185 736.315 196.469 737.923 198.077L740.846 201H755.473C771.706 201 775.461 199.996 776.629 195.341C778.211 189.037 774.001 185.04 765.75 185.015L761 185V162.833C761 150.642 761.33 140.997 761.733 141.4C762.136 141.803 770.85 155.265 781.097 171.316L799.728 200.5L807.864 200.79L816 201.081V163.04V125H818.326C824.126 125 827.39 115.949 823.129 111.682C821.132 109.682 819.773 109.473 806.853 109.172C799.099 108.992 791.674 109.116 790.352 109.448C784.454 110.928 782.146 117.489 785.895 122.119C787.368 123.937 789.096 124.575 793.645 124.98L799.5 125.5L799.77 147.484C799.999 166.128 799.832 169.243 798.672 167.984C797.92 167.168 789.079 153.563 779.025 137.75L760.746 109H749.296C737.974 109 737.813 109.033 734.923 111.923ZM843 110.27C839.419 112.115 837.713 116.114 839.029 119.576C840.81 124.26 842.65 124.934 853.75 124.968L864 125V155V185H854.056C845.07 185 843.849 185.226 841.389 187.342C837.654 190.555 837.654 195.445 841.389 198.658C844.106 200.995 844.172 201 872.5 201C900.498 201 900.924 200.969 903.504 198.75C907.201 195.57 907.244 190.467 903.601 187.333C901.153 185.227 899.92 185 890.944 185H881V155V125H891.326C900.826 125 901.825 124.815 903.826 122.686C906.529 119.809 906.645 115.019 904.09 111.861L902.179 109.5L873.84 109.241C852.258 109.044 844.904 109.289 843 110.27ZM919.923 111.923C914.535 117.311 917.137 123.85 925.09 124.912L929.5 125.5L929.765 155.25C930.028 184.853 930.019 185 927.938 185C925.205 185 920 190.245 920 193C920 194.185 921.315 196.469 922.923 198.077L925.846 201H940.519C956.516 201 960.287 199.977 961.455 195.322C963.024 189.072 958.722 185 950.55 185H946V162.833C946 150.642 946.277 140.943 946.614 141.281C946.952 141.619 955.663 155.082 965.971 171.198L984.713 200.5L992.856 200.79L1001 201.081V163.04V125H1003.33C1008.95 125 1011.97 116.663 1008.09 111.861C1006.27 109.612 1005.51 109.484 991.968 109.172C984.151 108.992 976.674 109.116 975.352 109.448C971.589 110.392 969 113.611 969 117.345C969 122.097 971.94 124.38 978.851 124.996L984.5 125.5L984.77 147.484C985.002 166.317 984.841 169.256 983.646 167.984C982.88 167.168 974.035 153.563 963.991 137.75L945.73 109H934.288C922.975 109 922.813 109.033 919.923 111.923ZM1017.5 110.119C1014.33 111.907 1013 114.131 1013 117.619C1013 121.697 1016.86 125 1021.64 125H1025V155V185H1021.64C1013.85 185 1010.11 193.197 1015.45 198.545C1017.87 200.96 1018.19 201 1035.03 201H1052.15L1055.08 198.077C1056.69 196.469 1058 194.185 1058 193C1058 191.815 1056.69 189.531 1055.08 187.923C1052.61 185.46 1051.36 185 1047.08 185H1042V176.578V168.156L1046.18 164.578C1048.48 162.61 1050.79 161 1051.31 161C1053.33 161 1059.12 165.33 1063.02 169.758C1065.26 172.304 1070.03 180.376 1073.61 187.694L1080.13 201H1089.16C1099.49 201 1103.54 199.383 1104.53 194.865C1105.71 189.492 1101.13 185 1094.46 185C1090.44 185 1090.33 184.898 1088.1 179.52C1084.64 171.176 1078.42 162.184 1071.25 155.144C1063.69 147.727 1062.57 150.286 1080 135.074C1086.7 129.229 1092.38 125.03 1093.61 125.019C1094.78 125.008 1096.92 124.067 1098.36 122.927C1101.59 120.393 1101.92 115.356 1099.09 111.861C1097.28 109.623 1096.47 109.483 1083.59 109.173L1070 108.845L1067 111.846C1063.53 115.32 1063.17 118.682 1065.92 122.175L1067.85 124.621L1056.26 134.56C1049.88 140.027 1044.07 144.86 1043.33 145.3C1042.26 145.946 1042 144.073 1042 135.55V125H1047.41C1052.26 125 1053.1 124.67 1055.48 121.842C1058.47 118.283 1058.29 114.944 1054.91 111.5C1053.13 109.681 1051.44 109.477 1036.22 109.245C1025.19 109.076 1018.82 109.374 1017.5 110.119ZM1110.09 110.054C1106.77 111.433 1105.06 113.954 1105.06 117.5C1105.06 121.434 1107 123.85 1110.76 124.602L1113.81 125.211L1114.17 150.856C1114.52 176.248 1114.55 176.557 1117.22 182.27C1120.62 189.565 1128.15 196.949 1135.37 200.078L1140.97 202.5L1140.98 207.316C1140.99 209.964 1141.52 213.114 1142.16 214.316C1146.68 222.854 1160.32 225.253 1168.37 218.924C1171.83 216.204 1171.94 211.665 1168.61 209.482C1166.4 208.033 1165.88 208.082 1161.65 210.138C1157.79 212.014 1156.68 212.175 1154.48 211.172C1152.34 210.199 1151.93 209.414 1152.19 206.812C1152.48 203.895 1152.9 203.548 1157.5 202.499C1167.37 200.248 1177.89 192.518 1181.84 184.613C1185.14 178.005 1185.96 170.41 1185.98 146.25L1186 125H1188.33C1193.46 125 1196.9 117.086 1193.64 112.789C1191.36 109.788 1187.19 109 1173.69 109.015C1159.2 109.031 1156.34 109.815 1154.16 114.354C1153.08 116.603 1153.06 117.728 1154.05 120.113C1155.64 123.961 1157.74 125 1163.93 125H1169V148.935C1169 163.462 1168.58 173.976 1167.93 175.685C1163.5 187.372 1145.83 190.721 1136.17 181.702C1131.21 177.077 1131 175.737 1131 149.55V125H1135.94C1144.95 125 1149.71 117.271 1144.14 111.694C1142.11 109.657 1140.89 109.484 1127.22 109.277C1119.12 109.154 1111.42 109.503 1110.09 110.054ZM466.955 125H471V155V185H467.904C466.202 185 463.557 185.739 462.027 186.643C459.448 188.167 459.076 188.167 456.901 186.643C455.61 185.739 453.755 185 452.777 185C451.114 185 451 183.086 451 155.108V125.217L453.504 124.588C454.881 124.243 456.515 123.148 457.135 122.156C458.199 120.452 458.39 120.481 460.585 122.676C462.251 124.342 464.054 125 466.955 125ZM144.363 126.367C149.766 129.533 154.632 134.978 157.394 140.949C159.066 144.565 159.499 147.451 159.499 155C159.5 163.308 159.16 165.193 156.789 170.021C153.328 177.067 148.809 181.691 142.5 184.642C129.336 190.799 115.213 184.387 108.149 169.046C104.698 161.55 104.532 148.931 107.791 141.67C111.801 132.733 118.262 126.358 125.764 123.936C130.546 122.392 139.6 123.576 144.363 126.367ZM329.363 126.367C334.788 129.546 339.653 135.004 342.362 140.949C345.37 147.55 345.37 162.618 342.363 169.122C335.639 183.664 320.548 190.601 308 184.918C301.829 182.123 294.56 174.144 292.321 167.707C289.54 159.71 289.94 147.995 293.24 140.786C296.478 133.715 303.286 126.785 309.086 124.657C315.284 122.382 323.787 123.099 329.363 126.367ZM23.696 213.916C17.23 216.516 10.604 222.117 7.256 227.812C4.944 231.744 4.505 233.629 4.53 239.5C4.596 255.169 14.204 263.484 37.5 268.035C50.008 270.479 56.341 272.9 57.914 275.84C62.371 284.167 53.883 291.363 39.5 291.451C27.073 291.527 20.341 288.207 16.936 280.32C14.769 275.3 11.99 273.592 7.39701 274.453C2.373 275.396 1 278.846 1 290.527C1 299.834 1.097 300.251 3.923 303.077C7.278 306.432 9.84501 306.756 12.98 304.217C15.109 302.493 15.449 302.527 23.341 305.259C30.646 307.788 32.555 308.045 41.585 307.713C50.257 307.395 52.569 306.921 58.085 304.331C71.273 298.139 75.434 291.89 74.854 279.145C74.559 272.66 74.036 270.652 71.731 267.169C66.207 258.822 60.611 256.128 39.064 251.442C26.798 248.774 21.738 246.077 20.617 241.609C18.96 235.01 25.605 229.042 35.493 228.249C46.428 227.371 53.943 231.36 56.043 239.159C58.081 246.729 64.715 249.375 69.545 244.545C71.843 242.248 72 241.412 72 231.496C72 223.977 71.559 220.048 70.482 217.965C68.604 214.333 64.605 213.141 61.069 215.158C58.752 216.48 58.059 216.426 54 214.608C47.367 211.637 30.332 211.248 23.696 213.916ZM489.5 213.402C476.295 217.589 465.605 228.33 460.981 242.055C459.078 247.705 458.868 250.184 459.165 263.472C459.476 277.38 459.704 278.935 462.234 284.336C469.529 299.909 480.497 306.49 501.189 307.712C513.366 308.431 520.988 307.001 531.75 301.979L540 298.13V287.565C540 281.754 540.365 277 540.811 277C541.258 277 542.608 276.082 543.811 274.961C546.688 272.281 546.754 266.78 543.942 264.16C541.188 261.595 537.012 261.023 521 261.017C504.513 261.01 500.333 261.979 498.55 266.219C495.272 274.015 500.579 277.996 514.25 277.998L523 278V283.432V288.864L515.354 290.565C502.284 293.472 489.153 291.391 482.013 285.279C476.74 280.766 475 274.83 475 261.356C475 245.707 479.657 235.79 489.347 230.805C495.169 227.81 507.137 227.164 514.215 229.464C520.685 231.566 522.585 233.184 524.089 237.871C525.7 242.895 527.806 245 531.221 245C537.823 245 540 241.136 540 229.416C540 221.519 538.889 217.398 536.211 215.363C533.943 213.64 529.845 213.662 527.455 215.409C526.023 216.456 525.023 216.548 523.56 215.765C516.751 212.12 497.708 210.8 489.5 213.402ZM581.286 213.405C560.286 220.196 546.646 243.292 549.958 266.452C551.417 276.658 552.558 280.007 556.827 286.606C567.433 303.002 584.563 310.729 602.183 307.067C613.31 304.755 625.743 294.356 631.558 282.5C643.552 258.046 633.804 227.404 610.355 215.851C604.353 212.894 602.491 212.473 594.526 212.271C589.012 212.131 583.86 212.572 581.286 213.405ZM674 212.881C655.86 218.81 646.788 235.845 654.039 250.364C658.838 259.973 665.156 263.563 685.241 268.091C692.492 269.726 699.792 271.86 701.463 272.833C709.028 277.237 708.04 284.793 699.339 289.081C692.484 292.458 679.543 292.462 673 289.088C666.984 285.985 665.229 284.321 664.507 281.031C663.015 274.239 656.488 271.955 651.306 276.413C648.543 278.79 648.5 278.997 648.5 290C648.5 301.003 648.543 301.21 651.306 303.587C654.706 306.511 658.288 306.68 660.755 304.033C662.574 302.081 662.636 302.086 669.044 304.767C674.811 307.181 676.726 307.466 687 307.439C696.684 307.414 699.443 307.037 704.469 305.051C712.974 301.69 720.269 294.218 721.971 287.121C725.299 273.25 717.606 260.15 703.5 255.664C700.75 254.79 693.43 252.945 687.234 251.564C674.856 248.806 672.345 247.809 669.772 244.633C663.943 237.436 672.432 227.991 684.718 228.006C694.913 228.017 702.256 232.515 703.577 239.556C704.84 246.292 711.983 249.108 716.457 244.634C720.539 240.552 721.178 222.973 717.452 217.286C715.466 214.255 711.306 213.312 708.069 215.158C705.752 216.48 705.058 216.426 701 214.613C696.113 212.429 678.785 211.318 674 212.881ZM99.5 215.143C94.391 217.967 93.469 223.56 97.455 227.545C99.627 229.718 100.777 230 107.455 230C111.605 230 115 230.123 115 230.273C115 230.423 109.69 243.81 103.2 260.023C91.5 289.249 91.373 289.503 88.323 289.804C81.649 290.464 78.299 298.74 82.858 303.306C84.883 305.333 86.174 305.524 99.78 305.818C115.717 306.163 118.952 305.529 121.558 301.552C125.022 296.264 120.55 290 113.311 290C110.94 290 109 289.784 109 289.52C109 289.256 109.724 287.231 110.609 285.02L112.217 281H130.595H148.973L150.487 284.622C152.609 289.701 152.478 290 148.135 290C140.282 290 136.216 297.341 140.88 303.1C142.449 305.038 143.916 305.486 149.767 305.817L156.775 306.213L157.212 312.251C157.602 317.642 158.032 318.642 161.227 321.569C167.255 327.094 177.972 327.167 183.048 321.718C185.862 318.697 185.584 314.65 182.446 312.971C180.217 311.778 179.468 311.832 176.577 313.389C174.754 314.37 172.191 315.022 170.881 314.837C168.977 314.567 168.5 313.899 168.5 311.5C168.5 308.908 169.143 308.193 173.235 306.238C179.107 303.432 181.42 300.19 180.509 296.042C179.722 292.457 176.618 290 172.874 290C169.89 290 172.375 295.404 149.653 239.5L139.492 214.5L120.496 214.269C108.07 214.117 100.808 214.42 99.5 215.143ZM209.923 216.923C206.093 220.753 206.142 224.1 210.077 227.411C212.994 229.866 213.746 230 224.577 230H236V256.118V282.235L232.227 286.008C225.965 292.27 218.744 293.375 208 289.715L201.5 287.5L201 276.777C200.565 267.453 200.213 265.767 198.306 263.86C195.154 260.71 190.305 260.944 187.342 264.389C185.105 266.99 185 267.801 185 282.568V298.025L190.75 300.577C203.652 306.304 208.116 307.432 218.021 307.467C226.798 307.497 228.064 307.243 234.218 304.213C240.882 300.933 247.979 294.241 250.354 289C251.067 287.426 251.674 276.128 251.993 258.5L252.5 230.5L259.649 230C264.692 229.647 267.402 228.952 268.85 227.639C270.855 225.821 270.964 225.827 273.586 227.889C275.062 229.05 277.082 230 278.074 230C279.76 230 279.899 231.729 280.189 256.25C280.492 281.793 280.566 282.635 282.957 287.5C286.266 294.232 293.782 301.54 300.764 304.812C305.758 307.152 307.729 307.495 316 307.46C323.575 307.427 326.464 306.978 330.259 305.241C336.554 302.361 344.561 294.749 347.85 288.52C350.498 283.503 350.5 283.484 350.81 256.75C351.103 231.43 351.219 230 352.983 230C354.008 230 356.231 228.835 357.923 227.411C359.615 225.987 361 225.215 361 225.695C361 227.239 366.711 230 369.904 230H373V260V290H370.589C367.836 290 363 295.111 363 298.021C363 299.048 364.086 301.151 365.413 302.694L367.827 305.5H383.833C399.396 305.5 399.91 305.433 402.419 303.076C405.756 299.941 405.807 295.716 402.545 292.455C400.53 290.439 399.1 290 394.545 290H389V267.333V244.665L401.768 264.583C408.791 275.537 417.615 289.337 421.377 295.25L428.217 306H436.109H444V268C444 231.03 444.053 230 445.944 230C447.014 230 449.114 228.946 450.611 227.658C454.381 224.415 454.348 219.556 450.533 216.275C447.789 213.915 447.412 213.872 431.776 214.183C416.396 214.489 415.75 214.585 413.909 216.861C411.25 220.149 411.476 224.567 414.455 227.545C416.47 229.561 417.9 230 422.455 230H428V252.167C428 264.358 427.663 273.996 427.25 273.584C426.837 273.171 418.118 259.709 407.874 243.667L389.248 214.5L377.737 214.219C366.806 213.953 366.081 214.061 363.343 216.365L360.459 218.792L357.674 216.396C355.012 214.106 354.246 214 340.378 214C325.808 214 322.843 214.577 320.282 217.913C318.264 220.542 318.792 224.883 321.455 227.545C323.47 229.561 324.9 230 329.455 230H335V253.843C335 276.733 334.909 277.862 332.713 282.093C329.459 288.361 321.696 292.369 314.209 291.647C307.845 291.033 303.763 288.8 299.606 283.659L296.5 279.819L296.187 254.909L295.873 230H301.302C308.369 230 312 227.415 312 222.382C312 220.028 311.209 218.118 309.545 216.455C307.152 214.061 306.709 214 291.68 214C277.604 214 276.042 214.179 273.635 216.073L271 218.145L268.365 216.073C265.85 214.094 264.525 214 239.288 214H212.846L209.923 216.923ZM606.078 232.05C616.201 238.546 620.416 247.657 619.842 261.802C619.435 271.857 617.212 277.446 611.233 283.448C605.403 289.302 600.547 291.426 593 291.426C585.468 291.426 580.597 289.302 574.81 283.491C568.245 276.9 566.517 272.01 566.508 260C566.499 247.866 568.204 243.123 575.143 235.972C581.115 229.818 586.066 227.831 594.199 228.321C599.675 228.652 601.842 229.332 606.078 232.05ZM136.908 251.266C139.709 258.288 142 264.25 142 264.516C142 264.782 136.777 265 130.393 265C119.757 265 118.841 264.854 119.438 263.25C123.897 251.291 130.631 236.377 131.151 237.309C131.517 237.964 134.108 244.245 136.908 251.266ZM732.5 284.905C725.493 288.013 722.147 297.293 725.492 304.343C728.598 310.888 737.893 314.666 743.595 311.701C754.493 306.035 756.261 295.172 747.603 287.083C744.786 284.452 736.285 283.226 732.5 284.905ZM998.387 325.999C990.449 327.162 983.743 329.729 976.693 334.304C954.89 348.45 944 368.624 944 394.87C944 418.339 952.796 437.662 969.533 450.962C989.098 466.51 1010.71 469.203 1032.61 458.823C1042.75 454.021 1057.42 439.287 1062.34 428.968C1068.17 416.745 1069.46 410.44 1069.4 394.5C1069.35 382.031 1069.05 379.593 1066.61 372.205C1062.76 360.495 1057.88 352.727 1048.55 343.483C1038.82 333.838 1029.14 328.572 1017.26 326.453C1008.77 324.94 1006.06 324.874 998.387 325.999ZM1131.39 325.942C1117.98 328.056 1106.46 334.654 1099.39 344.262C1083.75 365.502 1093.8 393.114 1120.39 401.962C1123.86 403.119 1133.86 405.587 1142.6 407.446C1163.37 411.862 1167.16 413.537 1170.35 419.7C1172.51 423.879 1172.43 426.783 1170.06 430.671C1162.43 443.188 1133.3 445.437 1117.37 434.741C1113.55 432.176 1112.17 430.458 1110.74 426.5C1107.36 417.107 1100.06 413.492 1092.95 417.691C1088.42 420.362 1087.5 423.977 1087.5 439C1087.5 457.085 1089.72 461.273 1099.28 461.273C1102.14 461.273 1103.87 460.584 1105.76 458.7L1108.33 456.127L1111.93 457.962C1121.23 462.708 1129.96 464.502 1143.5 464.45C1157.78 464.395 1161.93 463.544 1172.5 458.501C1185.58 452.266 1193.45 441.734 1194.65 428.843C1195.51 419.677 1193.63 412.128 1188.67 404.727C1181.33 393.766 1171.84 389.216 1144.45 383.517C1126.59 379.801 1122.87 378.496 1119.11 374.613C1112.21 367.49 1114.3 358.8 1124.44 352.531C1129.12 349.634 1129.83 349.5 1140.42 349.5C1150.09 349.5 1152.07 349.797 1156 351.843C1162.88 355.422 1164.85 357.79 1167.01 365.027C1169.37 372.964 1171.42 375.067 1177.44 375.746C1182.96 376.369 1186.54 374.352 1188.58 369.454C1190.51 364.831 1190.55 340.261 1188.64 335.672C1185.99 329.338 1178.42 327.085 1172.63 330.905C1169.79 332.777 1169.71 332.773 1165.13 330.53C1156.56 326.332 1141.71 324.313 1131.39 325.942ZM8.307 331.079C4.655 333.418 2.533 338.598 3.473 342.878C4.651 348.243 10.666 352 18.076 352H22.021L21.761 395.25L21.5 438.5L16 439.021C9.121 439.673 5.338 442.141 3.909 446.908C2.518 451.553 4.523 456.986 8.621 459.672C11.122 461.312 13.832 461.5 34.954 461.5C60.687 461.5 63.367 461.034 66.309 456.053C68.404 452.508 68.462 448.794 66.483 444.967C64.262 440.673 60.216 439 52.05 439H45V426.621V414.243L50.25 409.856C59.209 402.369 58.148 402.708 63.602 405.58C74.123 411.12 80.978 420.389 93.103 445.467L101.096 462L112.298 461.994C130.305 461.985 136 459.164 136 450.254C136 446.522 135.449 445.249 132.6 442.4C129.418 439.218 128.775 439 122.581 439H115.961L111.125 428.668C103.353 412.067 94.646 400.404 82.897 390.856L77.295 386.303L96.679 369.402C112.506 355.601 116.78 352.374 119.971 351.812C124.902 350.945 128.918 348.345 130.091 345.26C131.581 341.342 131.129 336.434 129.034 333.77C125.55 329.341 122.71 328.849 102.556 329.187L83.832 329.5L80.916 332.766C76.959 337.198 76.839 343.467 80.624 347.966C82.068 349.681 83.08 351.211 82.874 351.365C82.668 351.52 74.625 358.388 65 366.628C55.375 374.868 46.938 381.949 46.25 382.364C45.271 382.954 45 379.768 45 367.688V352.257L53.163 351.784C61.028 351.329 61.448 351.179 64.663 347.671C68.428 343.562 68.956 339.749 66.434 334.872C63.69 329.566 60.622 328.998 34.782 329.017C13.052 329.033 11.287 329.17 8.307 331.079ZM147.314 330.95C143.474 333.291 142 335.81 142 340.03C142 348.237 148.14 352 161.531 352H170.021L169.761 395.25L169.5 438.5L159.5 439C149.119 439.519 146.175 440.485 143.551 444.23C140.247 448.947 142.562 457.399 147.915 460.165C149.962 461.222 162.311 461.559 207.25 461.782L264 462.063V458.63V455.198L266.958 457.961C268.586 459.481 271.623 461.007 273.708 461.351C280.01 462.393 311.227 462.065 315.373 460.914C321.18 459.301 324 455.72 324 449.958C324 445.772 323.58 444.838 320.465 442.104C317.356 439.374 316.211 439 310.965 439C304.086 439 303.966 438.754 307.133 431.133L309.267 426H336.169H363.071L364.891 430.25C368.759 439.285 368.836 439 362.518 439C353.424 439 348 443.042 348 449.818C348 454.301 350.676 458.617 354.441 460.208C356.623 461.129 363.677 461.5 379.046 461.5C403.248 461.5 404.803 461.109 407.64 454.319C409.507 449.85 408.674 445.933 405.025 442.027C402.795 439.639 401.358 439 398.221 439C396.034 439 393.798 438.438 393.252 437.75C392.542 436.857 354.955 344.988 349.252 330.207C348.856 329.182 342.76 328.975 319.793 329.207L290.833 329.5L287.917 332.766C283.138 338.117 284.388 346.943 290.392 350.239C291.551 350.875 297.307 351.644 303.183 351.948L313.866 352.5L296.561 395.5L279.255 438.5L274.648 439.044C271.459 439.42 269.141 440.448 267.123 442.383L264.205 445.178L263.853 428.339C263.543 413.553 263.25 411.073 261.449 408C257.26 400.852 246.756 400.802 242.615 407.912C240.967 410.74 240.551 413.694 240.185 425.18L239.742 439.036L216.621 438.768L193.5 438.5L193.239 395.364L192.979 352.228L203.239 351.828C214.38 351.395 217.717 350.111 219.846 345.439C221.464 341.887 221.282 336.847 219.439 334.217C215.94 329.221 214.318 329 181.3 329.004C152.566 329.007 150.286 329.138 147.314 330.95ZM426.42 330.868C418.285 335.876 419.945 347.383 429.315 350.933C430.863 351.52 438.181 352 445.576 352H459.021L458.761 395.25L458.5 438.5L443.45 439C426.825 439.552 424.339 440.354 422.039 445.906C419.408 452.257 422.991 458.99 430.083 461.024C434.75 462.362 505.401 462.294 510.254 460.946C519.327 458.427 522.079 448.879 515.6 442.4L512.2 439H497.1H482V395.5V352L494.75 351.994C501.763 351.991 509.167 351.526 511.205 350.96C519.2 348.739 521.774 339.137 516.083 332.766L513.166 329.5L471.333 329.236C431.756 328.986 429.334 329.074 426.42 330.868ZM555.359 331.046C551.478 333.533 549.567 337.879 550.401 342.323C551.49 348.129 557.361 352 565.076 352H569.021L568.761 395.25L568.5 438.5L562.256 439.097C557.197 439.581 555.538 440.206 553.515 442.39C549.154 447.095 548.987 452.171 553.024 457.303C554.161 458.748 556.758 460.394 558.795 460.96C563.805 462.351 615.335 462.312 620.373 460.914C626.058 459.335 629 455.7 629 450.254C629 446.522 628.449 445.249 625.6 442.4L622.2 439H607.1H592V427.5V416H607.79C631.713 416 641.397 412.576 654.606 399.447C662.362 391.739 665.221 386.082 666.488 375.941C669.058 355.371 653.112 334.657 631.201 330.102C627.94 329.424 612.937 329.006 592.201 329.017C560.155 329.033 558.346 329.133 555.359 331.046ZM679.307 331.079C673.935 334.52 672.742 342.548 676.884 347.388C679.173 350.062 684.255 352 688.979 352H693.021L692.761 395.25L692.5 438.5L687 439.031C680.365 439.672 677.535 441.353 675.353 445.951C673.899 449.014 673.87 449.883 675.103 453.37C675.871 455.542 677.77 458.26 679.322 459.409C682.096 461.464 683.125 461.505 738.627 461.789L795.109 462.079L794.804 440.103L794.5 418.127L791.563 415.063C789.106 412.501 787.861 412 783.948 412C775.09 412 772.016 416.955 772.006 431.25L772 439H744H716V423V407H725.373H734.746L735.244 412.191C735.65 416.411 736.331 417.906 738.887 420.191C744.445 425.156 753.768 423.193 756.579 416.466C758.758 411.25 758.593 378.053 756.365 373.357C753.179 366.643 744.421 364.865 738.887 369.809C736.331 372.094 735.65 373.589 735.244 377.809L734.746 383H725.373H716V367.5V352H741.5H767L767.006 358.75C767.017 372.219 770.606 378 778.959 378C782.827 378 784.112 377.492 786.466 375.035C790.172 371.168 790.866 366.623 790.94 345.75L791 329L736.75 329.017C683.823 329.033 682.422 329.084 679.307 331.079ZM813.307 331.079C804.692 336.598 808.05 349.606 818.601 351.585L822 352.223V395.48V438.737L817.922 439.284C812.942 439.952 810.328 442.175 808.894 446.961C807.519 451.549 809.546 457 813.62 459.672C816.115 461.308 819.286 461.534 843.861 461.823C873.123 462.167 884.535 461.269 893.498 457.915C907.602 452.638 920.767 439.073 926.247 424.172C927.994 419.421 928.403 415.558 928.76 400.388C929.247 379.705 928.34 374.324 922.405 362.678C915.269 348.676 906.968 339.741 896.623 334.927C884.762 329.407 881.372 328.998 847.54 329.017C817.994 329.033 816.346 329.132 813.307 331.079ZM1019.05 350.925C1027.84 354.265 1037.11 362.893 1041.51 371.832C1054.92 399.032 1042.13 432.907 1015.57 440.542C999.372 445.198 980.927 435.812 972.482 418.615C959.711 392.61 970.31 360.509 994.836 350.918C1001.24 348.412 1012.44 348.416 1019.05 350.925ZM630.5 354.075C639.48 358.362 643 363.103 643 370.908C643 380.727 637.148 387.608 625.791 391.142C621.179 392.578 616.659 393 605.911 393H592V372.403V351.806L609.75 352.224C622.351 352.521 628.37 353.058 630.5 354.075ZM884.714 354.895C891.431 357.884 898.253 365.203 902.315 373.777L905.5 380.5V397.5C905.5 414.065 905.429 414.645 902.72 420.161C899.653 426.405 894.305 431.784 887.922 435.04C882.899 437.602 868.721 439.219 855 438.794L845.5 438.5L845.239 395.151L844.979 351.802L862.239 352.188C877.634 352.533 880.064 352.826 884.714 354.895ZM344.864 381.25C349.349 392.388 353.015 401.837 353.009 402.25C353.004 402.663 345.317 403 335.927 403C322.45 403 318.921 402.727 319.177 401.705C319.978 398.495 335.566 361.025 336.104 361.013C336.437 361.006 340.379 370.112 344.864 381.25ZM60.238 479.042C46.3 481.545 33.629 488.289 24.435 498.097C14.187 509.03 10.534 518.794 11.178 533.53C11.54 541.791 11.987 543.589 15.399 550.493C20.659 561.135 28.358 568.687 39.195 573.833C48.541 578.272 56.586 580.544 78.981 585.071C87.495 586.793 96.892 589.11 99.862 590.221C114.221 595.594 119.301 608.632 110.473 617.46C102.331 625.602 91.304 629.342 75.5 629.322C63.931 629.307 56.839 627.569 46.708 622.264C38.755 618.1 36.915 616.038 34.608 608.705C32.759 602.825 28.175 597.333 24.307 596.362C20.807 595.484 14.335 596.55 11.368 598.494C9.963 599.415 7.91901 602.189 6.82701 604.659C5.04001 608.697 4.873 610.929 5.17 626.825C5.542 646.737 6.396 649.614 12.984 653.137C18.374 656.018 23.107 655.565 28.172 651.682L32.5 648.365L38.579 651.197C59.319 660.858 88.225 661.988 109.756 653.979C122.463 649.252 135.943 637.754 140.503 627.753C145.223 617.401 145.916 603.963 142.322 592.5C140.182 585.675 137.557 581.505 131.192 574.817C121.549 564.684 110.503 560.313 77.278 553.48C52.702 548.426 44.629 544.465 41.87 536.105C39.289 528.285 41.173 522.658 48.546 516.168C55.01 510.479 61.278 508.559 73.5 508.527C85.121 508.496 93.047 510.618 99.33 515.441C104.897 519.715 106.847 522.677 108.617 529.543C110.491 536.816 112.148 539.509 116.304 542.044C123.139 546.211 132.545 543.351 136.248 535.98C137.727 533.037 137.997 529.604 137.998 513.718C138 492.896 137.434 490.226 132.059 485.703C127.722 482.053 120.836 481.943 115.682 485.441L112.084 487.883L106.292 485.015C103.106 483.438 97.8 481.421 94.5 480.533C87.276 478.59 67.538 477.731 60.238 479.042ZM1109.5 478.647C1093.08 481.29 1081.8 487.117 1071.22 498.427C1060.9 509.46 1057.52 518.542 1058.18 533.53C1058.54 541.791 1058.99 543.589 1062.4 550.493C1067.66 561.135 1075.36 568.687 1086.19 573.833C1095.54 578.272 1103.59 580.544 1125.98 585.071C1144.5 588.816 1150.3 590.857 1155.81 595.567C1163.51 602.162 1163.93 611.157 1156.85 618.025C1148.93 625.713 1138.1 629.264 1122.5 629.292C1110.96 629.312 1103.89 627.593 1093.83 622.329C1085.66 618.051 1084.36 616.66 1081.64 609.293C1080.47 606.094 1078.82 602.56 1078 601.439C1071.87 593.1 1059.04 594.463 1054.25 603.962C1052.18 608.069 1052 609.78 1052 625.5C1052 641.242 1052.18 642.919 1054.25 646.964C1058.58 655.4 1067.65 657.447 1075.17 651.686L1079.5 648.372L1085.99 651.304C1098.11 656.782 1109.88 659.147 1125 659.143C1140.84 659.138 1149.88 657.206 1162.5 651.128C1178.84 643.259 1188.85 630.618 1191.01 615.111C1193.35 598.219 1188.67 584.466 1176.84 573.517C1166.62 564.052 1157.59 560.59 1124.86 553.589C1099.8 548.228 1093.31 545.316 1089.31 537.621C1087.31 533.781 1087.32 527.226 1089.31 523.364C1091.75 518.644 1099.51 512.33 1105.33 510.331C1112.7 507.796 1128.52 507.852 1136.42 510.441C1142.65 512.483 1149.03 516.772 1152.2 521.043C1153.23 522.442 1154.77 526.267 1155.62 529.543C1157.49 536.816 1159.15 539.509 1163.3 542.044C1170.14 546.211 1179.55 543.351 1183.25 535.98C1184.73 533.037 1185 529.604 1185 513.718C1185 492.896 1184.43 490.226 1179.06 485.703C1174.72 482.05 1167.84 481.943 1162.67 485.448L1159.06 487.896L1154.78 485.512C1147.33 481.368 1136.54 478.918 1124 478.524C1117.68 478.326 1111.15 478.381 1109.5 478.647ZM176.721 483.364C168.545 485.659 164.097 492.05 165.341 499.714C166.623 507.614 172.913 512 182.96 512H189V568.358V624.715L182.82 625.361C171.77 626.516 166.178 630.92 165.329 639.136C164.72 645.037 167.415 649.765 173.105 652.775C177.472 655.086 177.7 655.099 208.546 654.8C236.478 654.53 239.869 654.319 242.344 652.696C248.827 648.445 250.788 639.954 246.891 633.019C243.966 627.815 239.431 625.925 228.269 625.259L219 624.706L219.013 609.103L219.027 593.5L225.63 588C237.914 577.767 236.053 578.386 243.23 582.15C251.585 586.533 262.295 597.428 268.151 607.5C273.666 616.987 285.723 641.098 289.058 649.31L291.417 655.119L309.459 654.81C329.526 654.465 331.825 653.878 335.713 648.102C340.214 641.416 337.435 631.008 330.231 627.573C328.278 626.642 322.928 625.615 318.34 625.292C313.753 624.968 310 624.275 310 623.751C310 621.465 297.53 597.018 292.591 589.624C285.92 579.634 274.392 567.026 266.851 561.472L261.202 557.311L287.085 534.655C310.467 514.189 313.311 512 316.533 512C324.381 512 330.123 506.564 330.791 498.501C331.174 493.884 330.864 492.426 328.885 489.537C324.548 483.208 321.345 482.5 297.034 482.5C271.643 482.5 267.856 483.353 264.175 489.902C260.511 496.422 261.374 502.422 266.816 508.257C268.387 509.941 269.02 511.355 268.443 511.891C267.925 512.374 257.375 521.431 245 532.019C232.625 542.607 221.712 551.953 220.75 552.79C219.091 554.231 219 553.215 219 533.155V512L228.25 511.998C238.976 511.997 243.17 510.432 246.73 505.102C251.428 498.069 248.334 487.622 240.591 484.374C237.134 482.924 232.235 482.608 209 482.34C188.225 482.099 180.331 482.35 176.721 483.364ZM354.719 482.895C346.584 484.617 342.851 488.662 342.228 496.43C341.899 500.532 342.272 502.168 344.181 505C346.906 509.044 352.143 511.996 356.595 511.998C358.297 511.999 360.418 512.804 361.308 513.788C362.198 514.771 373.292 530.807 385.963 549.424L409 583.272V604.008V624.744L395.25 625.193C379.75 625.7 375.951 626.876 372.25 632.316C367.93 638.666 370.024 648.348 376.658 652.696C379.207 654.366 382.694 654.5 423.632 654.5C466.735 654.5 467.922 654.448 470.614 652.438C477.836 647.047 479.679 638.571 475.044 632.061C471.45 627.015 467.272 625.76 452.25 625.218L439 624.739V603.392V582.046L462.512 547.273L486.023 512.5L491.149 511.842C499.994 510.708 505.428 505.039 505.308 497.074C505.217 491.094 502.644 487.035 497.27 484.395C493.961 482.77 490.872 482.541 472 482.522C451.568 482.501 450.29 482.612 446.271 484.76C441.281 487.426 438.679 491.847 438.672 497.671C438.666 502.646 440.701 506.046 445.968 509.862L449.863 512.684L436.789 532.324L423.715 551.964L411.286 533.732C404.451 523.704 398.446 514.753 397.942 513.841C397.222 512.536 397.769 511.744 400.504 510.13C405.819 506.994 408.186 502.512 407.738 496.43C407.524 493.511 406.546 490.241 405.433 488.721C401.822 483.791 397.291 482.787 377 482.425C366.825 482.243 356.799 482.455 354.719 482.895ZM527.12 483.08C521.512 484.181 518.459 486.212 516.387 490.218C510.651 501.311 518.233 512 531.838 512H538V568.301V624.602L530.687 625.655C522.446 626.842 518.625 628.89 516.315 633.357C512.867 640.025 514.72 647.912 520.695 652L524.349 654.5L555.425 654.77C583.509 655.015 586.835 654.87 589.98 653.27C600.556 647.891 600.669 632.431 590.17 627.42C588.255 626.506 582.837 625.591 577.42 625.268L568 624.706V607.353V590H582.886H597.772L603.697 593.956C615.202 601.639 632.885 621.929 648.903 645.826L655.154 655.152L668.508 654.826C680.129 654.542 682.219 654.233 684.619 652.438C689.611 648.706 691.506 645.251 691.429 640.023C691.304 631.528 686.153 626.678 676.006 625.501L670.266 624.835L662.915 614.167C655.198 602.97 645.618 591.406 638.125 584.246C635.677 581.907 633.86 579.865 634.087 579.71C634.314 579.555 637.2 577.678 640.5 575.54C649.447 569.744 657.136 561.528 661.031 553.602C667.371 540.7 666.119 522.423 658.024 509.687C647.64 493.351 632.057 484.977 608.396 483.017C594.024 481.827 533.261 481.873 527.12 483.08ZM721.241 483.025C713.074 484.7 709.017 489.557 709.007 497.673C709.001 501.842 709.525 503.47 711.703 506.059C716.196 511.399 718.955 512 738.968 512H757V568.39V624.781L738.75 625.179C718.355 625.625 715.255 626.429 711.25 632.316C706.93 638.666 709.024 648.348 715.657 652.696C718.208 654.368 722.281 654.521 771.15 654.784C820.032 655.046 824.167 654.937 827.66 653.284C838.626 648.095 838.829 632.608 828 627.291C825.176 625.904 820.876 625.496 805.742 625.178L786.983 624.784L787.242 568.642L787.5 512.5L807 512C827.313 511.479 828.605 511.21 832.917 506.6C836.579 502.684 837.056 494.17 833.874 489.507C829.12 482.54 829.236 482.554 774.5 482.342C747.55 482.237 723.584 482.545 721.241 483.025ZM876.652 482.964C867.272 484.235 862.667 489.08 862.667 497.679C862.667 505.213 869.476 512 877.034 512H880L880.017 552.75C880.041 608.418 880.833 614.53 889.713 627.553C900.577 643.488 915.575 654.118 932.815 658.104C941.016 660 956.592 659.507 965.515 657.068C986.613 651.304 1003.19 635.675 1010.68 614.49L1013.5 606.5L1013.8 559.374L1014.11 512.248L1018.67 511.734C1027.06 510.788 1032.49 504.265 1031.67 496.136C1031.11 490.725 1028.55 487.099 1023.44 484.5C1019.79 482.649 1017.52 482.5 992.974 482.5C969.488 482.5 965.993 482.708 962.474 484.313C956.599 486.994 954.5 490.379 954.5 497.177C954.5 507.895 960.103 511.996 974.75 511.998L984 512V556.318C984 608.407 984.068 607.932 975.261 617.166C963.546 629.448 946.425 632.882 930.709 626.103C924.151 623.274 915.732 615.07 912.852 608.702L910.5 603.5V558V512.5L920.5 511.973C931.041 511.418 933.015 510.772 936.917 506.6C940.428 502.846 941.02 494.387 938.103 489.667C934.083 483.162 931.365 482.552 905.5 482.35C892.85 482.252 879.868 482.528 876.652 482.964ZM616.588 514.403C627.197 517.694 635 525.837 635 533.618C635 543.756 627.078 551.136 610.355 556.576C602.196 559.23 600.471 559.427 585.05 559.462L568.5 559.5L568.23 537.023C568.082 524.66 568.204 513.91 568.503 513.133C569.291 511.079 609.278 512.135 616.588 514.403Z" fill="black"/>
</svg>
