<?xml version="1.0" encoding="utf-8"?>
<!-- Generator: Adobe Illustrator 22.1.0, SVG Export Plug-In . SVG Version: 6.00 Build 0)  -->
<svg version="1.1" xmlns="http://www.w3.org/2000/svg" xmlns:xlink="http://www.w3.org/1999/xlink" x="0px" y="0px"
	 viewBox="0 0 448.2 139.6" style="enable-background:new 0 0 448.2 139.6;" xml:space="preserve">
<style type="text/css">
	.st0{fill:#1D1D1E;}
	.st1{fill:#58585A;}
	.st2{fill:#CFD0D2;}
	.st3{fill:#939598;}
	.st4{fill:#3A3A3C;}
	.st5{fill:#FFFFFF;}
</style>
<g id="Слой_3">
	<rect x="84.8" y="1.3" class="st0" width="27.5" height="27.5"/>
	<rect x="84.8" y="28.8" class="st1" width="27.5" height="27.5"/>
	<rect x="57.3" y="56.3" class="st0" width="27.5" height="27.5"/>
	<rect x="29.8" y="28.8" class="st1" width="27.5" height="27.5"/>
	<rect x="112.3" y="28.8" class="st2" width="27.5" height="27.5"/>
	<rect x="29.8" y="1.3" class="st3" width="27.5" height="27.5"/>
	<rect x="57.3" y="28.8" class="st4" width="27.5" height="27.5"/>
	<rect x="29.8" y="56.3" class="st4" width="27.5" height="27.5"/>
	<rect x="57.3" y="83.8" class="st3" width="27.5" height="27.5"/>
	<rect x="84.6" y="56.3" class="st3" width="27.5" height="27.5"/>
	<rect x="2.3" y="56.3" class="st3" width="27.5" height="27.5"/>
	<rect x="29.8" y="111.3" class="st2" width="27.5" height="27.5"/>
</g>
<g id="txt">
	<g>
		<path class="st5" d="M170.1,0.9h3.8v16.1c0,3.5-0.9,6.3-2.8,8.3c-1.8,2-4.3,3-7.5,3s-5.7-1-7.5-3c-1.8-2-2.8-4.8-2.8-8.3V0.9h3.9
			v16.1c0,0.8,0.1,1.6,0.2,2.4c0.2,0.9,0.5,1.8,0.9,2.4c1.1,1.8,2.9,2.7,5.3,2.7c2.5,0,4.2-0.9,5.3-2.7c0.4-0.7,0.7-1.5,0.9-2.4
			c0.2-0.7,0.2-1.5,0.2-2.4V0.9z"/>
		<path class="st5" d="M180.9,0.9v11.8l10.5-11.8h5.2l-10.9,12.3l10.8,15.1h-4.7L183,16.1l-2.1,2.3v9.8H177V0.9H180.9z"/>
		<path class="st5" d="M217.3,8.8c0,1.8-0.5,3.4-1.4,4.7c-0.9,1.3-2.2,2.2-3.9,2.7l5.8,12.1h-4.3l-5.6-11.6h-4.4v11.6h-3.9V0.9h9
			c2.6,0,4.7,0.7,6.3,2.2C216.5,4.4,217.3,6.4,217.3,8.8z M208.7,12.8c1.3,0,2.4-0.3,3.2-0.8c1.1-0.7,1.6-1.8,1.6-3.3
			s-0.5-2.6-1.6-3.3c-0.8-0.5-1.9-0.8-3.2-0.8h-5.1v8.1H208.7z"/>
		<path class="st5" d="M234.4,0.9l9.4,27.4h-4.1l-2.6-7.6h-9.6l-2.6,7.6h-4.1l9.4-27.4v0v0H234.4L234.4,0.9L234.4,0.9z M235.9,16.8
			l-3.5-10.1l-3.5,10.1H235.9z"/>
		<path class="st5" d="M247,0.9h3.9v27.4H247V0.9z"/>
		<path class="st5" d="M258.1,0.9l10.3,19.6V0.9h3.8v27.4h-4.1L257.9,8.7v19.6H254V0.9H258.1z"/>
		<path class="st5" d="M275.4,0.9h3.9v27.4h-3.9V0.9z"/>
		<path class="st5" d="M295.9,0.9l9.4,27.4h-4.1l-2.6-7.6h-9.6l-2.6,7.6h-4.1l9.4-27.4v0v0H295.9L295.9,0.9L295.9,0.9z M297.4,16.8
			l-3.5-10.1l-3.5,10.1H297.4z"/>
		<path class="st5" d="M312.6,0.9l10.3,19.6V0.9h3.8v27.4h-4.1L312.4,8.7v19.6h-3.9V0.9H312.6z"/>
		<path class="st5" d="M186.9,37.8l-7.3,27.5h-4l-5.5-20.6l-5.5,20.6h-4l-7.3-27.5h4l5.3,20l5.3-20h4.3l5.3,20l5.3-20H186.9z"/>
		<path class="st5" d="M201.3,37.9c3.5,0,6.2,1.2,8.2,3.7c2,2.5,3,5.8,3,10c0,4.2-1,7.6-3,10c-2,2.5-4.8,3.7-8.2,3.7
			s-6.2-1.2-8.2-3.7c-2-2.5-3-5.8-3-10c0-4.2,1-7.6,3-10C195.1,39.1,197.8,37.9,201.3,37.9z M201.3,61.4c2.3,0,4.2-0.9,5.4-2.6
			c1.3-1.7,1.9-4.2,1.9-7.3c0-3.1-0.6-5.6-1.9-7.3c-1.3-1.7-3.1-2.6-5.4-2.6s-4.2,0.9-5.4,2.6c-1.3,1.7-1.9,4.1-1.9,7.3
			c0,3.1,0.6,5.6,1.9,7.3C197.1,60.6,198.9,61.4,201.3,61.4z"/>
		<path class="st5" d="M238.3,37.9v27.4h-3.9V49.2L229,64.7v0h-4.1l-5.4-15.5v16.1h-3.9V37.9h4l7.4,21l7.4-21H238.3z"/>
		<path class="st5" d="M259,37.9v3.8h-13.7v7.9h9.3v3.9h-9.3v7.9H259v3.9h-17.6V37.9H259z"/>
		<path class="st5" d="M266.3,37.9l10.3,19.6V37.9h3.8v27.4h-4.1L266,45.7v19.6h-3.9V37.9H266.3z"/>
		<path class="st5" d="M162.3,74.9c2.6,0,4.7,0.7,6.3,2.2c1.6,1.4,2.4,3.4,2.4,5.8s-0.8,4.3-2.4,5.8c-1.6,1.4-3.7,2.2-6.3,2.2h-5.1
			v11.6h-3.9V74.9H162.3z M162.3,86.8c1.3,0,2.4-0.3,3.2-0.8c1.1-0.7,1.6-1.8,1.6-3.3s-0.5-2.6-1.6-3.3c-0.8-0.5-1.9-0.8-3.2-0.8
			h-5.1v8.1H162.3z"/>
		<path class="st5" d="M193.1,74.9v27.4h-3.8V90.5H178v11.8h-3.9V74.9h3.9v11.8h11.3V74.9H193.1z"/>
		<path class="st5" d="M207.4,74.9c3.5,0,6.2,1.2,8.2,3.7c2,2.5,3,5.8,3,10c0,4.2-1,7.6-3,10c-2,2.5-4.8,3.7-8.2,3.7
			s-6.2-1.2-8.2-3.7c-2-2.5-3-5.8-3-10c0-4.2,1-7.6,3-10C201.2,76.1,204,74.9,207.4,74.9z M207.4,98.4c2.3,0,4.2-0.9,5.4-2.6
			c1.3-1.7,1.9-4.2,1.9-7.3c0-3.1-0.6-5.6-1.9-7.3c-1.3-1.7-3.1-2.6-5.4-2.6s-4.2,0.9-5.4,2.6c-1.3,1.7-1.9,4.1-1.9,7.3
			c0,3.1,0.6,5.6,1.9,7.3C203.3,97.6,205.1,98.4,207.4,98.4z"/>
		<path class="st5" d="M241.4,74.9v3.9h-7.8v23.6h-3.9V78.7h-7.8v-3.9H241.4z"/>
		<path class="st5" d="M255.7,74.9c3.5,0,6.2,1.2,8.2,3.7c2,2.5,3,5.8,3,10c0,4.2-1,7.6-3,10c-2,2.5-4.8,3.7-8.2,3.7
			c-3.5,0-6.2-1.2-8.2-3.7c-2-2.5-3-5.8-3-10c0-4.2,1-7.6,3-10C249.5,76.1,252.3,74.9,255.7,74.9z M255.7,98.4
			c2.3,0,4.2-0.9,5.4-2.6c1.3-1.7,1.9-4.2,1.9-7.3c0-3.1-0.6-5.6-1.9-7.3c-1.3-1.7-3.1-2.6-5.4-2.6c-2.3,0-4.2,0.9-5.4,2.6
			c-1.3,1.7-1.9,4.1-1.9,7.3c0,3.1,0.6,5.6,1.9,7.3C251.6,97.6,253.4,98.4,255.7,98.4z"/>
		<path class="st5" d="M281.3,102.3c-3.5,0-6.2-1.2-8.2-3.7c-2-2.5-3-5.8-3-10c0-4.2,1-7.6,3.1-10c2.1-2.5,4.9-3.7,8.5-3.7
			c2.4,0,4.5,0.6,6.2,1.7s3.1,2.8,4,4.9l-3.5,1.5c-1.2-2.9-3.5-4.3-6.7-4.3c-2.5,0-4.3,0.9-5.7,2.6c-1.3,1.7-2,4.1-2,7.3
			c0,3.1,0.6,5.6,1.9,7.3c1.3,1.7,3.1,2.6,5.4,2.6c2.1,0,3.8-0.7,5-2.1c1.2-1.4,2-3.3,2.2-5.9H283v-3.9h9.6v15.7h-3.9v-2.8
			C286.8,101.4,284.3,102.3,281.3,102.3z"/>
		<path class="st5" d="M313.3,82.8c0,1.8-0.5,3.4-1.4,4.7c-0.9,1.3-2.2,2.2-3.9,2.7l5.8,12.1h-4.3l-5.6-11.6h-4.4v11.6h-3.9V74.9h9
			c2.6,0,4.7,0.7,6.3,2.2C312.5,78.4,313.3,80.4,313.3,82.8z M304.7,86.8c1.3,0,2.4-0.3,3.2-0.8c1.1-0.7,1.6-1.8,1.6-3.3
			s-0.5-2.6-1.6-3.3c-0.8-0.5-1.9-0.8-3.2-0.8h-5.1v8.1H304.7z"/>
		<path class="st5" d="M330.4,74.9l9.4,27.4h-4.1l-2.6-7.6h-9.6l-2.6,7.6h-4.1l9.4-27.4v0v0H330.4L330.4,74.9L330.4,74.9z
			 M331.9,90.8l-3.5-10.1l-3.5,10.1H331.9z"/>
		<path class="st5" d="M352,74.9c2.6,0,4.7,0.7,6.3,2.2c1.6,1.4,2.4,3.4,2.4,5.8s-0.8,4.3-2.4,5.8c-1.6,1.4-3.7,2.2-6.3,2.2h-5.1
			v11.6H343V74.9H352z M352,86.8c1.3,0,2.4-0.3,3.2-0.8c1.1-0.7,1.6-1.8,1.6-3.3s-0.5-2.6-1.6-3.3c-0.8-0.5-1.9-0.8-3.2-0.8h-5.1
			v8.1H352z"/>
		<path class="st5" d="M382.7,74.9v27.4h-3.8V90.5h-11.3v11.8h-3.9V74.9h3.9v11.8h11.3V74.9H382.7z"/>
		<path class="st5" d="M403.5,74.9v3.8h-13.7v7.9h9.3v3.9h-9.3v7.9h13.7v3.9h-17.6V74.9H403.5z"/>
		<path class="st5" d="M424.2,82.8c0,1.8-0.5,3.4-1.4,4.7c-0.9,1.3-2.2,2.2-3.9,2.7l5.8,12.1h-4.3l-5.6-11.6h-4.4v11.6h-3.9V74.9h9
			c2.6,0,4.7,0.7,6.3,2.2C423.4,78.4,424.2,80.4,424.2,82.8z M415.6,86.8c1.3,0,2.4-0.3,3.2-0.8c1.1-0.7,1.6-1.8,1.6-3.3
			s-0.5-2.6-1.6-3.3c-0.8-0.5-1.9-0.8-3.2-0.8h-5.1v8.1H415.6z"/>
		<path class="st5" d="M437.5,86.3c3,0,5.3,0.7,7.1,2.2c1.7,1.4,2.6,3.4,2.6,5.8c0,2.5-0.9,4.4-2.6,5.8c-1.7,1.4-4.1,2.2-7.1,2.2
			c-2.9,0-5.3-0.7-7-2.1s-2.6-3.3-2.7-5.6l3.7-0.3h0.1c0,1.6,0.7,2.7,2.1,3.4c0.5,0.3,1.2,0.5,1.9,0.6c0.6,0.1,1.2,0.1,1.8,0.1
			c0.6,0,1.3,0,1.8-0.1c0.7-0.1,1.4-0.3,1.9-0.6c1.4-0.7,2.1-1.8,2.1-3.4s-0.7-2.7-2.1-3.4c-0.5-0.3-1.2-0.5-1.9-0.6
			c-0.6-0.1-1.2-0.1-1.8-0.1c-2.8,0-5.1-0.7-6.8-2.1c-1.7-1.4-2.5-3.3-2.5-5.6c0-2.3,0.8-4.2,2.5-5.6c1.7-1.4,3.9-2.1,6.8-2.1
			c2.7,0,4.9,0.6,6.6,1.9c1.7,1.3,2.6,3,2.7,5.2l-3.8,0.3c-0.1-1.4-0.7-2.4-2-3c-0.5-0.2-1.1-0.4-1.7-0.5c-0.5-0.1-1.1-0.1-1.7-0.1
			c-0.6,0-1.2,0-1.7,0.1c-0.7,0.1-1.3,0.3-1.8,0.5c-1.3,0.6-2,1.7-2,3.1s0.7,2.5,2,3.1c0.5,0.2,1.1,0.4,1.8,0.5
			C436.3,86.3,436.9,86.3,437.5,86.3z"/>
		<path class="st5" d="M164.6,111.9c3.5,0,6.2,1.2,8.2,3.7c2,2.5,3,5.8,3,10c0,4.2-1,7.6-3,10c-2,2.5-4.8,3.7-8.2,3.7
			s-6.2-1.2-8.2-3.7c-2-2.5-3-5.8-3-10c0-4.2,1-7.6,3-10C158.4,113.1,161.1,111.9,164.6,111.9z M164.6,135.4c2.3,0,4.2-0.9,5.4-2.6
			c1.3-1.7,1.9-4.2,1.9-7.3c0-3.1-0.6-5.6-1.9-7.3c-1.3-1.7-3.1-2.6-5.4-2.6s-4.2,0.9-5.4,2.6c-1.3,1.7-1.9,4.1-1.9,7.3
			c0,3.1,0.6,5.6,1.9,7.3C160.4,134.6,162.2,135.4,164.6,135.4z"/>
		<path class="st5" d="M196.6,119.8c0,1.8-0.5,3.4-1.4,4.7c-0.9,1.3-2.2,2.2-3.9,2.7l5.8,12.1h-4.3l-5.6-11.6h-4.4v11.6H179v-27.4h9
			c2.6,0,4.7,0.7,6.3,2.2C195.8,115.4,196.6,117.4,196.6,119.8z M187.9,123.8c1.3,0,2.4-0.3,3.2-0.8c1.1-0.7,1.6-1.8,1.6-3.3
			s-0.5-2.6-1.6-3.3c-0.8-0.5-1.9-0.8-3.2-0.8h-5.1v8.1H187.9z"/>
		<path class="st5" d="M211.4,139.3c-3.5,0-6.2-1.2-8.2-3.7c-2-2.5-3-5.8-3-10c0-4.2,1-7.6,3.1-10c2.1-2.5,4.9-3.7,8.5-3.7
			c2.4,0,4.5,0.6,6.2,1.7s3.1,2.8,4,4.9l-3.5,1.5c-1.2-2.9-3.5-4.3-6.7-4.3c-2.5,0-4.3,0.9-5.7,2.6c-1.3,1.7-2,4.1-2,7.3
			c0,3.1,0.6,5.6,1.9,7.3c1.3,1.7,3.1,2.6,5.4,2.6c2.1,0,3.8-0.7,5-2.1c1.2-1.4,2-3.3,2.2-5.9h-5.6v-3.9h9.6v15.7h-3.9v-2.8
			C216.8,138.4,214.4,139.3,211.4,139.3z"/>
		<path class="st5" d="M239.3,111.9l9.4,27.4h-4.1l-2.6-7.6h-9.6l-2.6,7.6h-4.1l9.4-27.4v0v0H239.3L239.3,111.9L239.3,111.9z
			 M240.7,127.8l-3.5-10.1l-3.5,10.1H240.7z"/>
		<path class="st5" d="M256,111.9l10.3,19.6v-19.6h3.8v27.4h-4.1l-10.3-19.6v19.6h-3.9v-27.4H256z"/>
		<path class="st5" d="M273.3,111.9h3.9v27.4h-3.9V111.9z"/>
		<path class="st5" d="M299.9,111.9v3.7l-14.7,19.9h15.6v3.9h-20.5v-3.7l14.7-19.9h-14.6v-3.8H299.9z"/>
		<path class="st5" d="M317.5,111.9l9.4,27.4h-4.1l-2.6-7.6h-9.6l-2.6,7.6h-4.1l9.4-27.4v0v0H317.5L317.5,111.9L317.5,111.9z
			 M318.9,127.8l-3.5-10.1l-3.5,10.1H318.9z"/>
		<path class="st5" d="M349.6,111.9v3.9h-7.8v23.6h-3.9v-23.6h-7.8v-3.9H349.6z"/>
		<path class="st5" d="M352.7,111.9h3.9v27.4h-3.9V111.9z"/>
		<path class="st5" d="M371,111.9c3.5,0,6.2,1.2,8.2,3.7c2,2.5,3,5.8,3,10c0,4.2-1,7.6-3,10c-2,2.5-4.8,3.7-8.2,3.7
			s-6.2-1.2-8.2-3.7c-2-2.5-3-5.8-3-10c0-4.2,1-7.6,3-10C364.8,113.1,367.5,111.9,371,111.9z M371,135.4c2.3,0,4.2-0.9,5.4-2.6
			c1.3-1.7,1.9-4.2,1.9-7.3c0-3.1-0.6-5.6-1.9-7.3c-1.3-1.7-3.1-2.6-5.4-2.6s-4.2,0.9-5.4,2.6c-1.3,1.7-1.9,4.1-1.9,7.3
			c0,3.1,0.6,5.6,1.9,7.3C366.8,134.6,368.6,135.4,371,135.4z"/>
		<path class="st5" d="M389.4,111.9l10.3,19.6v-19.6h3.8v27.4h-4.1l-10.3-19.6v19.6h-3.9v-27.4H389.4z"/>
	</g>
</g>
</svg>
