<svg width="24" height="25" viewBox="0 0 24 25" xmlns="http://www.w3.org/2000/svg">
<path d="M19.44 13.9706C19.22 13.9706 18.99 13.9006 18.77 13.8506C18.3245 13.7524 17.8866 13.6221 17.46 13.4606C16.9961 13.2918 16.4861 13.3006 16.0283 13.4852C15.5704 13.6698 15.1971 14.0172 14.98 14.4606L14.76 14.9106C13.786 14.3687 12.891 13.6958 12.1 12.9106C11.3147 12.1196 10.6418 11.2246 10.1 10.2506L10.52 9.97057C10.9633 9.75349 11.3108 9.3801 11.4954 8.92226C11.68 8.46442 11.6888 7.95448 11.52 7.49057C11.3612 7.06299 11.2309 6.62537 11.13 6.18057C11.08 5.96057 11.04 5.73057 11.01 5.50057C10.8885 4.79619 10.5196 4.15831 9.9696 3.70181C9.4196 3.24531 8.72467 3.00018 8.00998 3.01057H5.00998C4.57901 3.00652 4.15223 3.09538 3.75869 3.2711C3.36515 3.44682 3.01409 3.70527 2.72941 4.02885C2.44473 4.35244 2.23311 4.73356 2.10897 5.14629C1.98482 5.55901 1.95106 5.99363 2.00998 6.42057C2.54272 10.61 4.45601 14.5024 7.44763 17.4832C10.4393 20.464 14.3387 22.3631 18.53 22.8806H18.91C19.6474 22.8817 20.3594 22.6111 20.91 22.1206C21.2263 21.8376 21.4791 21.4907 21.6514 21.1029C21.8238 20.715 21.9119 20.295 21.91 19.8706V16.8706C21.8977 16.176 21.6448 15.5071 21.1943 14.9782C20.7439 14.4494 20.1238 14.0932 19.44 13.9706ZM19.94 19.9706C19.9398 20.1126 19.9094 20.2529 19.8508 20.3822C19.7921 20.5115 19.7066 20.6269 19.6 20.7206C19.4882 20.817 19.3576 20.8891 19.2164 20.9322C19.0752 20.9752 18.9265 20.9883 18.78 20.9706C15.0349 20.4904 11.5562 18.7771 8.89269 16.1009C6.22917 13.4247 4.53239 9.93791 4.06998 6.19057C4.05406 6.04409 4.06801 5.8959 4.11098 5.75496C4.15395 5.61402 4.22505 5.48326 4.31998 5.37057C4.41369 5.2639 4.52904 5.17841 4.65836 5.11979C4.78767 5.06116 4.92799 5.03075 5.06998 5.03057H8.06998C8.30253 5.0254 8.5296 5.10145 8.71212 5.24564C8.89464 5.38983 9.02119 5.59314 9.06998 5.82057C9.10998 6.0939 9.15998 6.3639 9.21998 6.63057C9.3355 7.15772 9.48924 7.67575 9.67998 8.18057L8.27998 8.83057C8.16028 8.88549 8.0526 8.96352 7.96314 9.06017C7.87367 9.15682 7.80418 9.27019 7.75865 9.39377C7.71312 9.51735 7.69245 9.6487 7.69783 9.78029C7.7032 9.91188 7.73452 10.0411 7.78998 10.1606C9.22918 13.2433 11.7072 15.7214 14.79 17.1606C15.0334 17.2606 15.3065 17.2606 15.55 17.1606C15.6747 17.116 15.7893 17.047 15.8871 16.9578C15.985 16.8685 16.0641 16.7607 16.12 16.6406L16.74 15.2406C17.2569 15.4254 17.7846 15.5791 18.32 15.7006C18.5866 15.7606 18.8566 15.8106 19.13 15.8506C19.3574 15.8994 19.5607 16.0259 19.7049 16.2084C19.8491 16.3909 19.9252 16.618 19.92 16.8506L19.94 19.9706Z" />
</svg>
