<svg width="35" height="36" viewBox="0 0 35 36" fill="none" xmlns="http://www.w3.org/2000/svg">
<path d="M35 17.9397C35 18.121 34.9183 18.301 34.7978 18.4218L27.02 25.5331C26.8178 25.7144 26.5546 25.7542 26.3109 25.654C26.088 25.5537 25.9259 25.3325 25.9259 25.0715V20.5715H0.648148C0.283889 20.5715 0 20.29 0 19.9287V16.0715C0 15.7102 0.283889 15.4287 0.648148 15.4287H25.9259V10.9287C25.9259 10.6677 26.0672 10.4465 26.3109 10.3462C26.5546 10.246 26.8178 10.2858 27.02 10.4465L34.7978 17.4781C34.9196 17.599 35 17.7597 35 17.9397Z" fill="white"/>
</svg>
