<svg width="24" height="25" viewBox="0 0 24 25" xmlns="http://www.w3.org/2000/svg">
<path d="M14 12.4809H16.42C16.5516 12.4817 16.6821 12.4564 16.8039 12.4067C16.9257 12.3569 17.0366 12.2836 17.13 12.1909L21.71 7.6109C21.8037 7.51793 21.8781 7.40733 21.9289 7.28547C21.9797 7.16361 22.0058 7.03291 22.0058 6.9009C22.0058 6.76888 21.9797 6.63818 21.9289 6.51632C21.8781 6.39446 21.8037 6.28386 21.71 6.1909L19.29 3.7709C19.197 3.67717 19.0864 3.60277 18.9646 3.552C18.8427 3.50124 18.712 3.4751 18.58 3.4751C18.448 3.4751 18.3173 3.50124 18.1954 3.552C18.0736 3.60277 17.963 3.67717 17.87 3.7709L13.29 8.3509C13.1073 8.54253 13.0037 8.79613 13 9.0609V11.4809C13 11.7461 13.1054 12.0005 13.2929 12.188C13.4804 12.3755 13.7348 12.4809 14 12.4809ZM15 9.4809L18.58 5.9009L19.58 6.9009L16 10.4809H15V9.4809ZM21 11.4809C20.7348 11.4809 20.4804 11.5863 20.2929 11.7738C20.1054 11.9613 20 12.2157 20 12.4809V19.4809C20 19.7461 19.8946 20.0005 19.7071 20.188C19.5196 20.3755 19.2652 20.4809 19 20.4809H5C4.73478 20.4809 4.48043 20.3755 4.29289 20.188C4.10536 20.0005 4 19.7461 4 19.4809V9.8709L9.88 15.7609C10.1591 16.0436 10.4915 16.2681 10.858 16.4213C11.2245 16.5745 11.6178 16.6533 12.015 16.6533C12.4122 16.6533 12.8055 16.5745 13.172 16.4213C13.5385 16.2681 13.8709 16.0436 14.15 15.7609C14.3332 15.574 14.4359 15.3226 14.4359 15.0609C14.4359 14.7991 14.3332 14.5478 14.15 14.3609C14.0569 14.2656 13.9456 14.19 13.8229 14.1383C13.7001 14.0866 13.5682 14.06 13.435 14.06C13.3018 14.06 13.1699 14.0866 13.0471 14.1383C12.9244 14.19 12.8131 14.2656 12.72 14.3609C12.5331 14.5441 12.2818 14.6468 12.02 14.6468C11.7582 14.6468 11.5069 14.5441 11.32 14.3609L5.41 8.4609H10C10.2652 8.4609 10.5196 8.35554 10.7071 8.168C10.8946 7.98047 11 7.72611 11 7.4609C11 7.19568 10.8946 6.94133 10.7071 6.75379C10.5196 6.56625 10.2652 6.4609 10 6.4609H5C4.20435 6.4609 3.44129 6.77697 2.87868 7.33958C2.31607 7.90218 2 8.66525 2 9.4609V19.4609C2 20.2565 2.31607 21.0196 2.87868 21.5822C3.44129 22.1448 4.20435 22.4609 5 22.4609H19C19.7956 22.4609 20.5587 22.1448 21.1213 21.5822C21.6839 21.0196 22 20.2565 22 19.4609V12.4609C22 12.1957 21.8946 11.9413 21.7071 11.7538C21.5196 11.5663 21.2652 11.4609 21 11.4609V11.4809Z" />
</svg>
