<svg width="100" height="100" viewBox="0 0 100 100" fill="none" xmlns="http://www.w3.org/2000/svg">
<path d="M11.1069 56.0162L11.433 55.5374L30.7876 26.2945C31.0712 25.8703 31.7376 25.911 31.9503 26.374C35.1831 33.3697 37.9764 42.077 36.672 47.4984C36.1048 49.7162 34.5734 52.7419 32.8577 55.5347C32.6309 55.9321 32.3899 56.3424 32.1346 56.7258C32.007 56.9036 31.8085 57 31.5816 57H11.674C11.1353 57 10.8233 56.4387 11.1069 56.0145V56.0162Z"/>
<path d="M95 61.1373V65.7807C95 66.0558 94.835 66.2891 94.6011 66.3848C93.1567 67.0169 88.1771 69.2972 86.1 72.1684C80.8178 79.5044 76.7873 90 67.7635 90H30.1414C16.8121 90 6 79.1746 6 65.8078V65.3821C6 65.0252 6.28888 64.7361 6.64654 64.7361H27.6241C28.0368 64.7361 28.3395 65.121 28.2981 65.5327C28.1606 66.8928 28.4082 68.2802 29.0547 69.5579C30.3065 72.0856 32.8788 73.6517 35.6712 73.6517H46.0568V65.5602H35.795C35.2586 65.5602 34.9559 64.9561 35.2586 64.5299C35.3687 64.3514 35.4925 64.173 35.63 63.9806C36.5929 62.5931 37.9823 60.4638 39.3578 58.0185C40.3069 56.3699 41.2149 54.6252 41.9577 52.853C42.0952 52.537 42.219 52.2071 42.3429 51.891C42.5354 51.3278 42.7418 50.8058 42.8931 50.2837C43.0444 49.8301 43.1545 49.3636 43.2782 48.9374C43.6221 47.4401 43.7734 45.8464 43.7734 44.2117C43.7734 43.5657 43.7464 42.8929 43.6906 42.2472C43.6627 41.5463 43.5668 40.8322 43.4843 40.1315C43.4154 39.5135 43.3054 38.8952 43.1954 38.2495C43.0441 37.3154 42.8378 36.3812 42.5902 35.4332L42.5213 35.0763C42.3424 34.4303 42.1912 33.8262 41.9848 33.1805C41.3933 31.1611 40.7193 29.1828 40.004 27.3421C39.7427 26.6143 39.4538 25.8995 39.1511 25.1989C38.7247 24.1411 38.2708 23.1795 37.8581 22.2728C37.6517 21.8471 37.473 21.4763 37.3079 21.0914C37.1015 20.6517 36.8952 20.2121 36.6889 19.8C36.5376 19.484 36.3725 19.1819 36.2487 18.8928L34.9831 16.5437C34.8042 16.2277 35.0932 15.8568 35.4508 15.9525L43.3879 18.0957H43.4019C43.4158 18.0957 43.4288 18.1056 43.4288 18.1056L44.4743 18.3937L45.6298 18.7097L46.0562 18.8334V14.1213C46.0562 11.8409 47.872 10 50.1279 10C51.2559 10 52.2876 10.4676 53.0166 11.2089C53.7457 11.9646 54.2134 12.981 54.2134 14.1213V21.1138L55.0525 21.3471C55.1214 21.3769 55.19 21.4069 55.245 21.4467C55.4514 21.6112 55.754 21.8316 56.1255 22.1197C56.4281 22.3529 56.7445 22.642 57.1296 22.9441C57.9 23.5482 58.8078 24.3454 59.812 25.252C60.0734 25.4853 60.3348 25.7196 60.5686 25.9668C61.8616 27.162 63.306 28.5633 64.6953 30.1294C65.0804 30.5551 65.4518 31.0087 65.837 31.4756C66.2222 31.9432 66.6349 32.4097 66.9925 32.8769C67.4602 33.4949 67.9554 34.1407 68.3956 34.8139C68.6019 35.1439 68.8495 35.4599 69.0422 35.7889C69.6061 36.6403 70.1013 37.5198 70.5828 38.399C70.7754 38.8107 70.9817 39.2504 71.1606 39.6904C71.697 40.8581 72.1098 42.067 72.3711 43.2622C72.4539 43.5234 72.5224 43.7976 72.55 44.0587V44.1186C72.6329 44.4755 72.66 44.8603 72.6875 45.2451C72.8113 46.4677 72.7564 47.7041 72.4812 48.9405C72.3711 49.4629 72.2335 49.9572 72.0547 50.4791C71.876 50.9876 71.6971 51.5094 71.4632 52.004C71.023 53.0344 70.4866 54.0647 69.8675 55.0263C69.675 55.3832 69.4273 55.768 69.1935 56.1254C68.9322 56.4963 68.6708 56.8531 68.4232 57.1969C68.1069 57.6505 67.7492 58.117 67.4053 58.5294C67.0752 58.9691 66.7587 59.3948 66.4011 59.7933C65.9059 60.3705 65.4245 60.9336 64.9292 61.4556C64.6266 61.8124 64.3103 62.1703 63.98 62.4859C63.6637 62.8428 63.3473 63.1589 63.0446 63.448C62.5494 63.9564 62.1367 64.3412 61.7791 64.6569L60.9675 65.3986C60.8437 65.5083 60.6924 65.5631 60.5273 65.5631H54.2134V73.6547H62.1642C63.9387 73.6547 65.6307 73.0366 66.9925 71.8687C67.4602 71.47 69.5098 69.6982 71.9171 67.0468C71.9999 66.9471 72.0959 66.8953 72.2198 66.8544L94.1878 60.5214C94.5867 60.3977 94.9994 60.7138 94.9994 61.1394L95 61.1373Z"/>
</svg>
