<svg width="32" height="28" viewBox="0 0 32 28" fill="none" xmlns="http://www.w3.org/2000/svg">
<path d="M2.33394 15.84L2.44179 15.6705L8.94529 5.4966C9.04034 5.34765 9.26379 5.36305 9.33569 5.52485C10.4222 7.9598 11.3597 10.9881 10.9205 12.8734C10.733 13.6491 10.2193 14.6996 9.64134 15.6705C9.56689 15.8118 9.48469 15.9505 9.39734 16.084C9.35624 16.1457 9.28689 16.1816 9.21239 16.1816H2.52399C2.34419 16.1816 2.23889 15.9864 2.33394 15.84Z" fill="#0A0A0C"/>
<path d="M31.3222 17.7305V19.341C31.3222 19.4334 31.2657 19.5156 31.1835 19.5515C30.6801 19.7673 28.9566 20.5584 28.24 21.555C26.4112 24.1004 25.014 27.74 21.8906 27.74H8.8605C4.24235 27.74 0.5 23.9848 0.5 19.3512V19.2022C0.5 19.0789 0.60015 18.9788 0.72345 18.9788H7.98725C8.13105 18.9788 8.23635 19.1123 8.22355 19.2536C8.17215 19.7262 8.2595 20.2091 8.48295 20.6483C8.91445 21.5242 9.8083 22.0713 10.774 22.0713H14.37V19.2639H10.8151C10.6328 19.2639 10.525 19.0533 10.6303 18.9043C10.6688 18.8452 10.7125 18.7836 10.7586 18.7143C11.0951 18.2365 11.5754 17.4942 12.0532 16.6492C12.3794 16.079 12.6953 15.4702 12.9496 14.8589C13.001 14.7485 13.0421 14.6354 13.0832 14.525C13.1525 14.3298 13.2245 14.1474 13.2758 13.965C13.3272 13.8109 13.3682 13.6491 13.4093 13.4975C13.5301 12.9787 13.5814 12.4291 13.5814 11.8589C13.5814 11.6354 13.5712 11.4016 13.5506 11.1782C13.5403 10.9342 13.5096 10.6902 13.4787 10.4461C13.4582 10.2304 13.4196 10.0172 13.3785 9.79375C13.3272 9.46755 13.2552 9.14395 13.173 8.8177L13.1448 8.69445C13.0831 8.47095 13.0318 8.2578 12.9599 8.03435C12.757 7.3331 12.5232 6.6499 12.2766 6.01035C12.1867 5.75605 12.084 5.51205 11.9813 5.26805C11.8298 4.90075 11.6756 4.56685 11.5343 4.2509C11.4624 4.10705 11.4008 3.97605 11.3391 3.8425C11.2698 3.69095 11.1979 3.5394 11.1259 3.3956C11.0746 3.28515 11.0155 3.1824 10.9744 3.07965L10.5352 2.268C10.4735 2.15755 10.5763 2.02655 10.697 2.05995L13.4454 2.8048H13.4531C13.4582 2.8048 13.4608 2.8074 13.4633 2.8074L13.8255 2.90755L14.2236 3.0206L14.37 3.06165V1.4281C14.37 0.63955 15.0018 0 15.7827 0C16.1731 0 16.5276 0.15925 16.7819 0.41865C17.0361 0.6781 17.1954 1.03255 17.1954 1.4281V3.8528L17.4882 3.93495C17.5113 3.9427 17.5344 3.95295 17.555 3.96835C17.6269 4.0223 17.7296 4.1019 17.8606 4.19955C17.9634 4.2817 18.0738 4.3819 18.2073 4.48465C18.4719 4.6978 18.7878 4.97265 19.1346 5.2886C19.227 5.3682 19.317 5.4504 19.3992 5.5326C19.8461 5.9487 20.3469 6.4367 20.8247 6.9761C20.9583 7.12765 21.0892 7.28175 21.2228 7.44355C21.3563 7.60795 21.4977 7.76975 21.6209 7.9316C21.7827 8.14735 21.9574 8.3708 22.109 8.60455C22.1809 8.715 22.2631 8.828 22.3324 8.93845C22.5276 9.2338 22.6997 9.5395 22.8641 9.84515C22.9335 9.9864 23.0054 10.1405 23.067 10.292C23.2494 10.7004 23.3932 11.1166 23.4856 11.5326C23.5139 11.6226 23.5345 11.7202 23.5448 11.8075V11.8281C23.5756 11.9513 23.5858 12.0823 23.5961 12.2159C23.6372 12.6423 23.6166 13.0686 23.5242 13.4975C23.4857 13.6799 23.4343 13.852 23.3727 14.0344C23.311 14.2091 23.2493 14.3914 23.1698 14.5635C23.0156 14.9205 22.8333 15.2775 22.6175 15.6115C22.5482 15.7347 22.466 15.8658 22.3838 15.989C22.2939 16.12 22.2014 16.2433 22.1192 16.364C22.0062 16.5182 21.8855 16.6799 21.7622 16.8238C21.6517 16.9753 21.5387 17.1269 21.4154 17.2605C21.2433 17.4634 21.079 17.656 20.9069 17.841C20.8042 17.9617 20.6937 18.0849 20.5807 18.1954C20.4703 18.3186 20.3572 18.4291 20.2544 18.5319C20.0824 18.704 19.9386 18.8375 19.8178 18.948L19.5353 19.2074C19.4942 19.2433 19.4403 19.2639 19.3838 19.2639H17.1954V22.0713H19.9488C20.5652 22.0713 21.1509 21.8529 21.6235 21.4522C21.7853 21.311 22.4917 20.6997 23.3264 19.7776C23.3547 19.7467 23.3907 19.7236 23.4318 19.7134L31.0371 17.5147C31.1784 17.4736 31.3222 17.5815 31.3222 17.7305Z" fill="#0A0A0C"/>
</svg>
