<?xml version="1.0" encoding="UTF-8"?><!DOCTYPE svg PUBLIC "-//W3C//DTD SVG 1.1//EN" "http://www.w3.org/Graphics/SVG/1.1/DTD/svg11.dtd"><svg xmlns="http://www.w3.org/2000/svg" xmlns:xlink="http://www.w3.org/1999/xlink"><symbol id="images"><symbol id="images"><symbol id="images"><symbol id="logo" viewBox="0 0 302 94">
<path d="M75.6685 0.875366H57.1388V19.3926H75.6685V0.875366Z" fill="#1D1D1E"/>
<path d="M75.6685 19.3925H57.1388V37.9097H75.6685V19.3925Z" fill="#58585A"/>
<path d="M57.1387 37.9098H38.6091V56.427H57.1387V37.9098Z" fill="#1D1D1E"/>
<path d="M38.6091 19.3925H20.0794V37.9097H38.6091V19.3925Z" fill="#58585A"/>
<path d="M94.1981 19.3925H75.6685V37.9097H94.1981V19.3925Z" fill="#CFD0D2"/>
<path d="M38.6091 0.875366H20.0794V19.3926H38.6091V0.875366Z" fill="#939598"/>
<path d="M57.1387 19.3925H38.6091V37.9097H57.1387V19.3925Z" fill="#3A3A3C"/>
<path d="M38.6091 37.9098H20.0794V56.427H38.6091V37.9098Z" fill="#3A3A3C"/>
<path d="M57.1387 56.4269H38.6091V74.9441H57.1387V56.4269Z" fill="#939598"/>
<path d="M75.5337 37.9098H57.004V56.427H75.5337V37.9098Z" fill="#939598"/>
<path d="M20.0794 37.9098H1.54974V56.427H20.0794V37.9098Z" fill="#939598"/>
<path d="M38.6091 74.9441H20.0794V93.4613H38.6091V74.9441Z" fill="#CFD0D2"/>
<path d="M114.614 0.606018H117.175V11.447C117.175 13.8037 116.568 15.6891 115.288 17.0358C114.075 18.3825 112.391 19.0559 110.235 19.0559C108.079 19.0559 106.394 18.3825 105.181 17.0358C103.968 15.6891 103.294 13.8037 103.294 11.447V0.606018H105.922V11.447C105.922 11.9857 105.99 12.5244 106.057 13.063C106.192 13.6691 106.394 14.2751 106.664 14.6791C107.405 15.8911 108.618 16.4971 110.235 16.4971C111.919 16.4971 113.065 15.8911 113.806 14.6791C114.075 14.2077 114.278 13.6691 114.412 13.063C114.547 12.5917 114.547 12.053 114.547 11.447V0.606018H114.614Z" fill="black"/>
<path d="M121.892 0.606018V8.55158L128.967 0.606018H132.47L125.126 8.88825L132.403 19.0559H129.236L123.307 10.841L121.892 12.3897V18.9885H119.264V0.606018H121.892Z" fill="black"/>
<path d="M146.418 5.9255C146.418 7.13754 146.081 8.2149 145.475 9.09026C144.868 9.96562 143.992 10.5716 142.847 10.9083L146.755 19.0559H143.858L140.084 11.245H137.12V19.0559H134.492V0.606018H140.556C142.308 0.606018 143.723 1.07736 144.801 2.08739C145.879 2.96275 146.418 4.30946 146.418 5.9255ZM140.623 8.61891C141.499 8.61891 142.24 8.41691 142.78 8.08023C143.521 7.60888 143.858 6.8682 143.858 5.85817C143.858 4.84814 143.521 4.10745 142.78 3.6361C142.24 3.29943 141.499 3.09742 140.623 3.09742H137.187V8.55158H140.623V8.61891Z" fill="black"/>
<path d="M157.94 0.606018L164.274 19.0559H161.511L159.759 13.9384H153.291L151.539 19.0559H148.776L155.11 0.606018H157.94ZM158.951 11.3123L156.593 4.51146L154.234 11.3123H158.951Z" fill="black"/>
<path d="M166.43 0.606018H169.058V19.0559H166.43V0.606018Z" fill="black"/>
<path d="M173.909 0.606018L180.85 13.8037V0.606018H183.41V19.0559H180.647L173.775 5.85817V19.0559H171.147V0.606018H173.909Z" fill="black"/>
<path d="M185.566 0.606018H188.194V19.0559H185.566V0.606018Z" fill="black"/>
<path d="M199.379 0.606018L205.713 19.0559H202.95L201.199 13.9384H194.73L192.978 19.0559H190.216L196.549 0.606018H199.379ZM200.39 11.3123L198.032 4.51146L195.673 11.3123H200.39Z" fill="black"/>
<path d="M210.632 0.606018L217.572 13.8037V0.606018H220.133V19.0559H217.37L210.497 5.85817V19.0559H207.869V0.606018H210.632Z" fill="black"/>
<path d="M125.934 25.4527L121.016 43.9699H118.32L114.614 30.0989L110.909 43.9699H108.213L103.294 25.4527H105.99L109.561 38.9198L113.132 25.4527H116.029L119.601 38.9198L123.172 25.4527H125.934Z" fill="black"/>
<path d="M135.637 25.5201C137.996 25.5201 139.815 26.3281 141.162 28.0115C142.51 29.6948 143.184 31.9169 143.184 34.745C143.184 37.5731 142.51 39.8625 141.162 41.4785C139.815 43.1619 137.928 43.9699 135.637 43.9699C133.346 43.9699 131.46 43.1619 130.112 41.4785C128.764 39.7951 128.091 37.5731 128.091 34.745C128.091 31.9169 128.764 29.6275 130.112 28.0115C131.46 26.3281 133.279 25.5201 135.637 25.5201ZM135.637 41.3438C137.187 41.3438 138.467 40.7378 139.276 39.5931C140.152 38.4484 140.556 36.765 140.556 34.6776C140.556 32.5902 140.152 30.9069 139.276 29.7622C138.4 28.6175 137.187 28.0115 135.637 28.0115C134.087 28.0115 132.807 28.6175 131.999 29.7622C131.123 30.9069 130.718 32.5229 130.718 34.6776C130.718 36.765 131.123 38.4484 131.999 39.5931C132.807 40.8051 134.02 41.3438 135.637 41.3438Z" fill="black"/>
<path d="M160.568 25.5201V43.9699H157.94V33.1289L154.302 43.5659H151.539L147.9 33.1289V43.9699H145.273V25.5201H147.968L152.954 39.6605L157.94 25.5201H160.568Z" fill="black"/>
<path d="M174.516 25.5201V28.0788H165.285V33.3983H171.551V36.0243H165.285V41.3438H174.516V43.9699H162.657V25.5201H174.516Z" fill="black"/>
<path d="M179.435 25.5201L186.375 38.7178V25.5201H188.935V43.9699H186.173L179.232 30.7722V43.9699H176.605V25.5201H179.435Z" fill="black"/>
<path d="M109.359 50.4341C111.111 50.4341 112.526 50.9054 113.604 51.9155C114.682 52.8581 115.221 54.2049 115.221 55.8209C115.221 57.4369 114.682 58.7163 113.604 59.7263C112.526 60.669 111.111 61.2077 109.359 61.2077H105.922V69.0186H103.294V50.4341H109.359ZM109.359 58.447C110.235 58.447 110.976 58.245 111.515 57.9083C112.256 57.4369 112.593 56.6963 112.593 55.6862C112.593 54.6762 112.256 53.9355 111.515 53.4642C110.976 53.1275 110.235 52.9255 109.359 52.9255H105.922V58.3796H109.359V58.447Z" fill="black"/>
<path d="M130.112 50.4341V68.8839H127.552V60.9384H119.938V68.8839H117.31V50.4341H119.938V58.3796H127.552V50.4341H130.112Z" fill="black"/>
<path d="M139.747 50.4341C142.106 50.4341 143.925 51.2421 145.273 52.9255C146.62 54.6089 147.294 56.8309 147.294 59.659C147.294 62.4871 146.62 64.7765 145.273 66.3925C143.925 68.0759 142.038 68.8839 139.747 68.8839C137.456 68.8839 135.57 68.0759 134.222 66.3925C132.875 64.7092 132.201 62.4871 132.201 59.659C132.201 56.8309 132.875 54.5415 134.222 52.9255C135.57 51.2421 137.456 50.4341 139.747 50.4341ZM139.747 66.2579C141.297 66.2579 142.577 65.6518 143.386 64.5071C144.262 63.3624 144.666 61.6791 144.666 59.5917C144.666 57.5043 144.262 55.8209 143.386 54.6762C142.51 53.5315 141.297 52.9255 139.747 52.9255C138.198 52.9255 136.917 53.5315 136.109 54.6762C135.233 55.8209 134.829 57.4369 134.829 59.5917C134.829 61.6791 135.233 63.3624 136.109 64.5071C136.985 65.7192 138.198 66.2579 139.747 66.2579Z" fill="black"/>
<path d="M162.657 50.4341V53.0602H157.401V68.9513H154.773V52.9928H149.518V50.3668H162.657V50.4341Z" fill="black"/>
<path d="M172.292 50.4341C174.651 50.4341 176.47 51.2421 177.817 52.9255C179.165 54.6089 179.839 56.8309 179.839 59.659C179.839 62.4871 179.165 64.7765 177.817 66.3925C176.47 68.0759 174.583 68.8839 172.292 68.8839C169.934 68.8839 168.115 68.0759 166.767 66.3925C165.419 64.7092 164.746 62.4871 164.746 59.659C164.746 56.8309 165.419 54.5415 166.767 52.9255C168.115 51.2421 170.001 50.4341 172.292 50.4341ZM172.292 66.2579C173.842 66.2579 175.122 65.6518 175.931 64.5071C176.807 63.3624 177.211 61.6791 177.211 59.5917C177.211 57.5043 176.807 55.8209 175.931 54.6762C175.055 53.5315 173.842 52.9255 172.292 52.9255C170.742 52.9255 169.462 53.5315 168.654 54.6762C167.778 55.8209 167.373 57.4369 167.373 59.5917C167.373 61.6791 167.778 63.3624 168.654 64.5071C169.53 65.7192 170.742 66.2579 172.292 66.2579Z" fill="black"/>
<path d="M189.542 68.8839C187.183 68.8839 185.364 68.0759 184.016 66.3925C182.669 64.7092 181.995 62.4871 181.995 59.659C181.995 56.8309 182.669 54.5415 184.084 52.9255C185.499 51.2421 187.386 50.4341 189.811 50.4341C191.428 50.4341 192.843 50.8381 193.989 51.5788C195.134 52.3195 196.078 53.4642 196.684 54.8782L194.326 55.8882C193.517 53.9355 191.967 52.9928 189.811 52.9928C188.127 52.9928 186.914 53.5988 185.971 54.7435C185.095 55.8882 184.623 57.5043 184.623 59.659C184.623 61.7464 185.027 63.4298 185.903 64.5745C186.779 65.7192 187.992 66.3252 189.542 66.3252C190.957 66.3252 192.102 65.8539 192.911 64.9112C193.719 63.9685 194.258 62.6891 194.393 60.9384H190.687V58.3123H197.156V68.8839H194.528V66.9986C193.248 68.2779 191.563 68.8839 189.542 68.8839Z" fill="black"/>
<path d="M211.103 55.7536C211.103 56.9656 210.767 58.043 210.16 58.9183C209.554 59.7937 208.678 60.3997 207.532 60.7364L211.44 68.8839H208.543L204.77 61.073H201.805V68.8839H199.177V50.4341H205.241C206.993 50.4341 208.408 50.9054 209.486 51.9155C210.564 52.7908 211.103 54.1375 211.103 55.7536ZM205.309 58.447C206.185 58.447 206.926 58.245 207.465 57.9083C208.206 57.4369 208.543 56.6963 208.543 55.6862C208.543 54.6762 208.206 53.9355 207.465 53.4642C206.926 53.1275 206.185 52.9255 205.309 52.9255H201.872V58.3796H205.309V58.447Z" fill="black"/>
<path d="M222.626 50.4341L228.959 68.8839H226.197L224.445 63.7665H217.976L216.224 68.8839H213.462L219.796 50.4341H222.626ZM223.636 61.1404L221.278 54.3395L218.92 61.1404H223.636Z" fill="black"/>
<path d="M237.18 50.4341C238.932 50.4341 240.347 50.9054 241.425 51.9155C242.503 52.8581 243.042 54.2049 243.042 55.8209C243.042 57.4369 242.503 58.7163 241.425 59.7263C240.347 60.669 238.932 61.2077 237.18 61.2077H233.743V69.0186H231.116V50.4341H237.18ZM237.18 58.447C238.056 58.447 238.797 58.245 239.336 57.9083C240.077 57.4369 240.414 56.6963 240.414 55.6862C240.414 54.6762 240.077 53.9355 239.336 53.4642C238.797 53.1275 238.056 52.9255 237.18 52.9255H233.743V58.3796H237.18V58.447Z" fill="black"/>
<path d="M257.866 50.4341V68.8839H255.305V60.9384H247.691V68.8839H245.063V50.4341H247.691V58.3796H255.305V50.4341H257.866Z" fill="black"/>
<path d="M271.881 50.4341V52.9928H262.65V58.3123H268.916V60.9384H262.65V66.2579H271.881V68.8839H260.022V50.4341H271.881Z" fill="black"/>
<path d="M285.829 55.7536C285.829 56.9656 285.492 58.043 284.885 58.9183C284.279 59.7937 283.403 60.3997 282.257 60.7364L286.166 68.8839H283.268L279.495 61.073H276.53V68.8839H273.902V50.4341H279.966C281.718 50.4341 283.133 50.9054 284.211 51.9155C285.29 52.7908 285.829 54.1375 285.829 55.7536ZM280.034 58.447C280.91 58.447 281.651 58.245 282.19 57.9083C282.931 57.4369 283.268 56.6963 283.268 55.6862C283.268 54.6762 282.931 53.9355 282.19 53.4642C281.651 53.1275 280.91 52.9255 280.034 52.9255H276.597V58.3796H280.034V58.447Z" fill="black"/>
<path d="M294.79 58.1103C296.812 58.1103 298.361 58.5817 299.574 59.5917C300.72 60.5344 301.326 61.8811 301.326 63.4971C301.326 65.1805 300.72 66.4599 299.574 67.4026C298.429 68.3453 296.812 68.884 294.79 68.884C292.836 68.884 291.219 68.4126 290.074 67.4699C288.928 66.5272 288.322 65.2478 288.254 63.6991L290.747 63.4971H290.815C290.815 64.5745 291.286 65.3152 292.23 65.7865C292.567 65.9885 293.038 66.1232 293.51 66.1905C293.914 66.2579 294.319 66.2579 294.723 66.2579C295.127 66.2579 295.599 66.2579 295.936 66.1905C296.407 66.1232 296.879 65.9885 297.216 65.7865C298.159 65.3152 298.631 64.5745 298.631 63.4971C298.631 62.4198 298.159 61.6791 297.216 61.2077C296.879 61.0057 296.407 60.8711 295.936 60.8037C295.531 60.7364 295.127 60.7364 294.723 60.7364C292.836 60.7364 291.286 60.265 290.141 59.3223C288.996 58.3797 288.456 57.1003 288.456 55.5516C288.456 54.0029 288.996 52.7235 290.141 51.7808C291.286 50.8381 292.769 50.3668 294.723 50.3668C296.542 50.3668 298.025 50.7708 299.17 51.6461C300.315 52.5215 300.922 53.6662 300.989 55.1476L298.429 55.3496C298.361 54.4069 297.957 53.7335 297.081 53.3295C296.744 53.1948 296.34 53.0602 295.936 52.9928C295.599 52.9255 295.195 52.9255 294.79 52.9255C294.386 52.9255 293.982 52.9255 293.645 52.9928C293.173 53.0602 292.769 53.1948 292.432 53.3295C291.556 53.7335 291.084 54.4742 291.084 55.4169C291.084 56.3596 291.556 57.1003 292.432 57.5043C292.769 57.639 293.173 57.7736 293.645 57.841C293.982 58.1103 294.386 58.1103 294.79 58.1103Z" fill="black"/>
<path d="M110.909 75.3481C113.267 75.3481 115.086 76.1562 116.434 77.8395C117.781 79.5229 118.455 81.745 118.455 84.5731C118.455 87.4012 117.781 89.6906 116.434 91.3066C115.086 92.99 113.199 93.798 110.909 93.798C108.618 93.798 106.731 92.99 105.383 91.3066C104.036 89.6232 103.362 87.4012 103.362 84.5731C103.362 81.745 104.036 79.4556 105.383 77.8395C106.731 76.1562 108.55 75.3481 110.909 75.3481ZM110.909 91.1719C112.458 91.1719 113.738 90.5659 114.547 89.4212C115.423 88.2765 115.827 86.5931 115.827 84.5057C115.827 82.4183 115.423 80.735 114.547 79.5903C113.671 78.4456 112.458 77.8395 110.909 77.8395C109.359 77.8395 108.079 78.4456 107.27 79.5903C106.394 80.735 105.99 82.351 105.99 84.5057C105.99 86.5931 106.394 88.2765 107.27 89.4212C108.079 90.6332 109.291 91.1719 110.909 91.1719Z" fill="black"/>
<path d="M132.47 80.6676C132.47 81.8797 132.133 82.957 131.527 83.8324C130.921 84.7077 130.045 85.3138 128.899 85.6504L132.807 93.798H129.91L126.137 85.9871H123.172V93.798H120.611V75.3481H126.676C128.427 75.3481 129.842 75.8195 130.921 76.8295C131.931 77.7049 132.47 79.0516 132.47 80.6676ZM126.608 83.361C127.484 83.361 128.225 83.159 128.764 82.8224C129.506 82.351 129.842 81.6103 129.842 80.6003C129.842 79.5903 129.506 78.8496 128.764 78.3782C128.225 78.0416 127.484 77.8395 126.608 77.8395H123.172V83.2937H126.608V83.361Z" fill="black"/>
<path d="M142.443 93.798C140.084 93.798 138.265 92.99 136.917 91.3066C135.57 89.6232 134.896 87.4012 134.896 84.5731C134.896 81.745 135.57 79.4556 136.985 77.8395C138.4 76.1562 140.286 75.3481 142.712 75.3481C144.329 75.3481 145.744 75.7522 146.89 76.4928C148.035 77.2335 148.979 78.3782 149.585 79.7923L147.227 80.8023C146.418 78.8496 144.868 77.9069 142.712 77.9069C141.028 77.9069 139.815 78.5129 138.871 79.6576C137.996 80.8023 137.524 82.4183 137.524 84.5731C137.524 86.6605 137.928 88.3438 138.804 89.4885C139.68 90.6332 140.893 91.2393 142.443 91.2393C143.858 91.2393 145.003 90.7679 145.812 89.8252C146.62 88.8825 147.159 87.6032 147.294 85.8524H143.521V83.2264H149.989V93.798H147.361V91.9126C146.081 93.192 144.464 93.798 142.443 93.798Z" fill="black"/>
<path d="M161.242 75.3481L167.576 93.798H164.813L163.061 88.6805H156.593L154.841 93.798H152.078L158.412 75.3481H161.242ZM162.185 86.0544L159.827 79.2536L157.469 86.0544H162.185Z" fill="black"/>
<path d="M172.494 75.3481L179.435 88.5459V75.3481H181.995V93.798H179.232L172.292 80.6003V93.798H169.664V75.3481H172.494Z" fill="black"/>
<path d="M184.151 75.3481H186.779V93.798H184.151V75.3481Z" fill="black"/>
<path d="M202.075 75.3481V77.8395L192.17 91.2393H202.681V93.8653H188.868V91.3739L198.773 77.9742H188.935V75.4155H202.075V75.3481Z" fill="black"/>
<path d="M213.933 75.3481L220.267 93.798H217.505L215.753 88.6805H209.284L207.532 93.798H204.77L211.103 75.3481H213.933ZM214.877 86.0544L212.518 79.2536L210.16 86.0544H214.877Z" fill="black"/>
<path d="M235.563 75.3481V77.9742H230.307V93.8653H227.679V77.9742H222.423V75.3481H235.563Z" fill="black"/>
<path d="M237.651 75.3481H240.279V93.798H237.651V75.3481Z" fill="black"/>
<path d="M249.982 75.3481C252.34 75.3481 254.16 76.1562 255.507 77.8395C256.855 79.5229 257.529 81.745 257.529 84.5731C257.529 87.4012 256.855 89.6906 255.507 91.3066C254.16 92.99 252.273 93.798 249.982 93.798C247.691 93.798 245.805 92.99 244.457 91.3066C243.109 89.6232 242.435 87.4012 242.435 84.5731C242.435 81.745 243.109 79.4556 244.457 77.8395C245.805 76.1562 247.624 75.3481 249.982 75.3481ZM249.982 91.1719C251.532 91.1719 252.812 90.5659 253.621 89.4212C254.497 88.2765 254.901 86.5931 254.901 84.5057C254.901 82.4183 254.497 80.735 253.621 79.5903C252.745 78.4456 251.532 77.8395 249.982 77.8395C248.432 77.8395 247.152 78.4456 246.344 79.5903C245.468 80.735 245.063 82.351 245.063 84.5057C245.063 86.5931 245.468 88.2765 246.344 89.4212C247.152 90.6332 248.365 91.1719 249.982 91.1719Z" fill="black"/>
<path d="M262.38 75.3481L269.32 88.5459V75.3481H271.881V93.798H269.118L262.178 80.6003V93.798H259.55V75.3481H262.38Z" fill="black"/>
</symbol><symbol id="call" viewBox="0 0 24 25">
<path d="M19.44 13.9706C19.22 13.9706 18.99 13.9006 18.77 13.8506C18.3245 13.7524 17.8866 13.6221 17.46 13.4606C16.9961 13.2918 16.4861 13.3006 16.0283 13.4852C15.5704 13.6698 15.1971 14.0172 14.98 14.4606L14.76 14.9106C13.786 14.3687 12.891 13.6958 12.1 12.9106C11.3147 12.1196 10.6418 11.2246 10.1 10.2506L10.52 9.97057C10.9633 9.75349 11.3108 9.3801 11.4954 8.92226C11.68 8.46442 11.6888 7.95448 11.52 7.49057C11.3612 7.06299 11.2309 6.62537 11.13 6.18057C11.08 5.96057 11.04 5.73057 11.01 5.50057C10.8885 4.79619 10.5196 4.15831 9.9696 3.70181C9.4196 3.24531 8.72467 3.00018 8.00998 3.01057H5.00998C4.57901 3.00652 4.15223 3.09538 3.75869 3.2711C3.36515 3.44682 3.01409 3.70527 2.72941 4.02885C2.44473 4.35244 2.23311 4.73356 2.10897 5.14629C1.98482 5.55901 1.95106 5.99363 2.00998 6.42057C2.54272 10.61 4.45601 14.5024 7.44763 17.4832C10.4393 20.464 14.3387 22.3631 18.53 22.8806H18.91C19.6474 22.8817 20.3594 22.6111 20.91 22.1206C21.2263 21.8376 21.4791 21.4907 21.6514 21.1029C21.8238 20.715 21.9119 20.295 21.91 19.8706V16.8706C21.8977 16.176 21.6448 15.5071 21.1943 14.9782C20.7439 14.4494 20.1238 14.0932 19.44 13.9706ZM19.94 19.9706C19.9398 20.1126 19.9094 20.2529 19.8508 20.3822C19.7921 20.5115 19.7066 20.6269 19.6 20.7206C19.4882 20.817 19.3576 20.8891 19.2164 20.9322C19.0752 20.9752 18.9265 20.9883 18.78 20.9706C15.0349 20.4904 11.5562 18.7771 8.89269 16.1009C6.22917 13.4247 4.53239 9.93791 4.06998 6.19057C4.05406 6.04409 4.06801 5.8959 4.11098 5.75496C4.15395 5.61402 4.22505 5.48326 4.31998 5.37057C4.41369 5.2639 4.52904 5.17841 4.65836 5.11979C4.78767 5.06116 4.92799 5.03075 5.06998 5.03057H8.06998C8.30253 5.0254 8.5296 5.10145 8.71212 5.24564C8.89464 5.38983 9.02119 5.59314 9.06998 5.82057C9.10998 6.0939 9.15998 6.3639 9.21998 6.63057C9.3355 7.15772 9.48924 7.67575 9.67998 8.18057L8.27998 8.83057C8.16028 8.88549 8.0526 8.96352 7.96314 9.06017C7.87367 9.15682 7.80418 9.27019 7.75865 9.39377C7.71312 9.51735 7.69245 9.6487 7.69783 9.78029C7.7032 9.91188 7.73452 10.0411 7.78998 10.1606C9.22918 13.2433 11.7072 15.7214 14.79 17.1606C15.0334 17.2606 15.3065 17.2606 15.55 17.1606C15.6747 17.116 15.7893 17.047 15.8871 16.9578C15.985 16.8685 16.0641 16.7607 16.12 16.6406L16.74 15.2406C17.2569 15.4254 17.7846 15.5791 18.32 15.7006C18.5866 15.7606 18.8566 15.8106 19.13 15.8506C19.3574 15.8994 19.5607 16.0259 19.7049 16.2084C19.8491 16.3909 19.9252 16.618 19.92 16.8506L19.94 19.9706Z"/>
</symbol><symbol id="long-arrow-right" viewBox="0 0 35 36">
<path d="M35 17.9397C35 18.121 34.9183 18.301 34.7978 18.4218L27.02 25.5331C26.8178 25.7144 26.5546 25.7542 26.3109 25.654C26.088 25.5537 25.9259 25.3325 25.9259 25.0715V20.5715H0.648148C0.283889 20.5715 0 20.29 0 19.9287V16.0715C0 15.7102 0.283889 15.4287 0.648148 15.4287H25.9259V10.9287C25.9259 10.6677 26.0672 10.4465 26.3109 10.3462C26.5546 10.246 26.8178 10.2858 27.02 10.4465L34.7978 17.4781C34.9196 17.599 35 17.7597 35 17.9397Z"/>
</symbol><symbol id="mail" viewBox="0 0 24 25">
<path d="M14 12.4809H16.42C16.5516 12.4817 16.6821 12.4564 16.8039 12.4067C16.9257 12.3569 17.0366 12.2836 17.13 12.1909L21.71 7.6109C21.8037 7.51793 21.8781 7.40733 21.9289 7.28547C21.9797 7.16361 22.0058 7.03291 22.0058 6.9009C22.0058 6.76888 21.9797 6.63818 21.9289 6.51632C21.8781 6.39446 21.8037 6.28386 21.71 6.1909L19.29 3.7709C19.197 3.67717 19.0864 3.60277 18.9646 3.552C18.8427 3.50124 18.712 3.4751 18.58 3.4751C18.448 3.4751 18.3173 3.50124 18.1954 3.552C18.0736 3.60277 17.963 3.67717 17.87 3.7709L13.29 8.3509C13.1073 8.54253 13.0037 8.79613 13 9.0609V11.4809C13 11.7461 13.1054 12.0005 13.2929 12.188C13.4804 12.3755 13.7348 12.4809 14 12.4809ZM15 9.4809L18.58 5.9009L19.58 6.9009L16 10.4809H15V9.4809ZM21 11.4809C20.7348 11.4809 20.4804 11.5863 20.2929 11.7738C20.1054 11.9613 20 12.2157 20 12.4809V19.4809C20 19.7461 19.8946 20.0005 19.7071 20.188C19.5196 20.3755 19.2652 20.4809 19 20.4809H5C4.73478 20.4809 4.48043 20.3755 4.29289 20.188C4.10536 20.0005 4 19.7461 4 19.4809V9.8709L9.88 15.7609C10.1591 16.0436 10.4915 16.2681 10.858 16.4213C11.2245 16.5745 11.6178 16.6533 12.015 16.6533C12.4122 16.6533 12.8055 16.5745 13.172 16.4213C13.5385 16.2681 13.8709 16.0436 14.15 15.7609C14.3332 15.574 14.4359 15.3226 14.4359 15.0609C14.4359 14.7991 14.3332 14.5478 14.15 14.3609C14.0569 14.2656 13.9456 14.19 13.8229 14.1383C13.7001 14.0866 13.5682 14.06 13.435 14.06C13.3018 14.06 13.1699 14.0866 13.0471 14.1383C12.9244 14.19 12.8131 14.2656 12.72 14.3609C12.5331 14.5441 12.2818 14.6468 12.02 14.6468C11.7582 14.6468 11.5069 14.5441 11.32 14.3609L5.41 8.4609H10C10.2652 8.4609 10.5196 8.35554 10.7071 8.168C10.8946 7.98047 11 7.72611 11 7.4609C11 7.19568 10.8946 6.94133 10.7071 6.75379C10.5196 6.56625 10.2652 6.4609 10 6.4609H5C4.20435 6.4609 3.44129 6.77697 2.87868 7.33958C2.31607 7.90218 2 8.66525 2 9.4609V19.4609C2 20.2565 2.31607 21.0196 2.87868 21.5822C3.44129 22.1448 4.20435 22.4609 5 22.4609H19C19.7956 22.4609 20.5587 22.1448 21.1213 21.5822C21.6839 21.0196 22 20.2565 22 19.4609V12.4609C22 12.1957 21.8946 11.9413 21.7071 11.7538C21.5196 11.5663 21.2652 11.4609 21 11.4609V11.4809Z"/>
</symbol><symbol id="ship" viewBox="0 0 32 28">
<path d="M2.33394 15.84L2.44179 15.6705L8.94529 5.4966C9.04034 5.34765 9.26379 5.36305 9.33569 5.52485C10.4222 7.9598 11.3597 10.9881 10.9205 12.8734C10.733 13.6491 10.2193 14.6996 9.64134 15.6705C9.56689 15.8118 9.48469 15.9505 9.39734 16.084C9.35624 16.1457 9.28689 16.1816 9.21239 16.1816H2.52399C2.34419 16.1816 2.23889 15.9864 2.33394 15.84Z" fill="#0A0A0C"/>
<path d="M31.3222 17.7305V19.341C31.3222 19.4334 31.2657 19.5156 31.1835 19.5515C30.6801 19.7673 28.9566 20.5584 28.24 21.555C26.4112 24.1004 25.014 27.74 21.8906 27.74H8.8605C4.24235 27.74 0.5 23.9848 0.5 19.3512V19.2022C0.5 19.0789 0.60015 18.9788 0.72345 18.9788H7.98725C8.13105 18.9788 8.23635 19.1123 8.22355 19.2536C8.17215 19.7262 8.2595 20.2091 8.48295 20.6483C8.91445 21.5242 9.8083 22.0713 10.774 22.0713H14.37V19.2639H10.8151C10.6328 19.2639 10.525 19.0533 10.6303 18.9043C10.6688 18.8452 10.7125 18.7836 10.7586 18.7143C11.0951 18.2365 11.5754 17.4942 12.0532 16.6492C12.3794 16.079 12.6953 15.4702 12.9496 14.8589C13.001 14.7485 13.0421 14.6354 13.0832 14.525C13.1525 14.3298 13.2245 14.1474 13.2758 13.965C13.3272 13.8109 13.3682 13.6491 13.4093 13.4975C13.5301 12.9787 13.5814 12.4291 13.5814 11.8589C13.5814 11.6354 13.5712 11.4016 13.5506 11.1782C13.5403 10.9342 13.5096 10.6902 13.4787 10.4461C13.4582 10.2304 13.4196 10.0172 13.3785 9.79375C13.3272 9.46755 13.2552 9.14395 13.173 8.8177L13.1448 8.69445C13.0831 8.47095 13.0318 8.2578 12.9599 8.03435C12.757 7.3331 12.5232 6.6499 12.2766 6.01035C12.1867 5.75605 12.084 5.51205 11.9813 5.26805C11.8298 4.90075 11.6756 4.56685 11.5343 4.2509C11.4624 4.10705 11.4008 3.97605 11.3391 3.8425C11.2698 3.69095 11.1979 3.5394 11.1259 3.3956C11.0746 3.28515 11.0155 3.1824 10.9744 3.07965L10.5352 2.268C10.4735 2.15755 10.5763 2.02655 10.697 2.05995L13.4454 2.8048H13.4531C13.4582 2.8048 13.4608 2.8074 13.4633 2.8074L13.8255 2.90755L14.2236 3.0206L14.37 3.06165V1.4281C14.37 0.63955 15.0018 0 15.7827 0C16.1731 0 16.5276 0.15925 16.7819 0.41865C17.0361 0.6781 17.1954 1.03255 17.1954 1.4281V3.8528L17.4882 3.93495C17.5113 3.9427 17.5344 3.95295 17.555 3.96835C17.6269 4.0223 17.7296 4.1019 17.8606 4.19955C17.9634 4.2817 18.0738 4.3819 18.2073 4.48465C18.4719 4.6978 18.7878 4.97265 19.1346 5.2886C19.227 5.3682 19.317 5.4504 19.3992 5.5326C19.8461 5.9487 20.3469 6.4367 20.8247 6.9761C20.9583 7.12765 21.0892 7.28175 21.2228 7.44355C21.3563 7.60795 21.4977 7.76975 21.6209 7.9316C21.7827 8.14735 21.9574 8.3708 22.109 8.60455C22.1809 8.715 22.2631 8.828 22.3324 8.93845C22.5276 9.2338 22.6997 9.5395 22.8641 9.84515C22.9335 9.9864 23.0054 10.1405 23.067 10.292C23.2494 10.7004 23.3932 11.1166 23.4856 11.5326C23.5139 11.6226 23.5345 11.7202 23.5448 11.8075V11.8281C23.5756 11.9513 23.5858 12.0823 23.5961 12.2159C23.6372 12.6423 23.6166 13.0686 23.5242 13.4975C23.4857 13.6799 23.4343 13.852 23.3727 14.0344C23.311 14.2091 23.2493 14.3914 23.1698 14.5635C23.0156 14.9205 22.8333 15.2775 22.6175 15.6115C22.5482 15.7347 22.466 15.8658 22.3838 15.989C22.2939 16.12 22.2014 16.2433 22.1192 16.364C22.0062 16.5182 21.8855 16.6799 21.7622 16.8238C21.6517 16.9753 21.5387 17.1269 21.4154 17.2605C21.2433 17.4634 21.079 17.656 20.9069 17.841C20.8042 17.9617 20.6937 18.0849 20.5807 18.1954C20.4703 18.3186 20.3572 18.4291 20.2544 18.5319C20.0824 18.704 19.9386 18.8375 19.8178 18.948L19.5353 19.2074C19.4942 19.2433 19.4403 19.2639 19.3838 19.2639H17.1954V22.0713H19.9488C20.5652 22.0713 21.1509 21.8529 21.6235 21.4522C21.7853 21.311 22.4917 20.6997 23.3264 19.7776C23.3547 19.7467 23.3907 19.7236 23.4318 19.7134L31.0371 17.5147C31.1784 17.4736 31.3222 17.5815 31.3222 17.7305Z" fill="#0A0A0C"/>
</symbol></symbol><symbol id="logo" viewBox="0 0 302 94">
<path d="M75.6685 0.875366H57.1388V19.3926H75.6685V0.875366Z" fill="#1D1D1E"/>
<path d="M75.6685 19.3925H57.1388V37.9097H75.6685V19.3925Z" fill="#58585A"/>
<path d="M57.1387 37.9098H38.6091V56.427H57.1387V37.9098Z" fill="#1D1D1E"/>
<path d="M38.6091 19.3925H20.0794V37.9097H38.6091V19.3925Z" fill="#58585A"/>
<path d="M94.1981 19.3925H75.6685V37.9097H94.1981V19.3925Z" fill="#CFD0D2"/>
<path d="M38.6091 0.875366H20.0794V19.3926H38.6091V0.875366Z" fill="#939598"/>
<path d="M57.1387 19.3925H38.6091V37.9097H57.1387V19.3925Z" fill="#3A3A3C"/>
<path d="M38.6091 37.9098H20.0794V56.427H38.6091V37.9098Z" fill="#3A3A3C"/>
<path d="M57.1387 56.4269H38.6091V74.9441H57.1387V56.4269Z" fill="#939598"/>
<path d="M75.5337 37.9098H57.004V56.427H75.5337V37.9098Z" fill="#939598"/>
<path d="M20.0794 37.9098H1.54974V56.427H20.0794V37.9098Z" fill="#939598"/>
<path d="M38.6091 74.9441H20.0794V93.4613H38.6091V74.9441Z" fill="#CFD0D2"/>
<path d="M114.614 0.606018H117.175V11.447C117.175 13.8037 116.568 15.6891 115.288 17.0358C114.075 18.3825 112.391 19.0559 110.235 19.0559C108.079 19.0559 106.394 18.3825 105.181 17.0358C103.968 15.6891 103.294 13.8037 103.294 11.447V0.606018H105.922V11.447C105.922 11.9857 105.99 12.5244 106.057 13.063C106.192 13.6691 106.394 14.2751 106.664 14.6791C107.405 15.8911 108.618 16.4971 110.235 16.4971C111.919 16.4971 113.065 15.8911 113.806 14.6791C114.075 14.2077 114.278 13.6691 114.412 13.063C114.547 12.5917 114.547 12.053 114.547 11.447V0.606018H114.614Z" fill="black"/>
<path d="M121.892 0.606018V8.55158L128.967 0.606018H132.47L125.126 8.88825L132.403 19.0559H129.236L123.307 10.841L121.892 12.3897V18.9885H119.264V0.606018H121.892Z" fill="black"/>
<path d="M146.418 5.9255C146.418 7.13754 146.081 8.2149 145.475 9.09026C144.868 9.96562 143.992 10.5716 142.847 10.9083L146.755 19.0559H143.858L140.084 11.245H137.12V19.0559H134.492V0.606018H140.556C142.308 0.606018 143.723 1.07736 144.801 2.08739C145.879 2.96275 146.418 4.30946 146.418 5.9255ZM140.623 8.61891C141.499 8.61891 142.24 8.41691 142.78 8.08023C143.521 7.60888 143.858 6.8682 143.858 5.85817C143.858 4.84814 143.521 4.10745 142.78 3.6361C142.24 3.29943 141.499 3.09742 140.623 3.09742H137.187V8.55158H140.623V8.61891Z" fill="black"/>
<path d="M157.94 0.606018L164.274 19.0559H161.511L159.759 13.9384H153.291L151.539 19.0559H148.776L155.11 0.606018H157.94ZM158.951 11.3123L156.593 4.51146L154.234 11.3123H158.951Z" fill="black"/>
<path d="M166.43 0.606018H169.058V19.0559H166.43V0.606018Z" fill="black"/>
<path d="M173.909 0.606018L180.85 13.8037V0.606018H183.41V19.0559H180.647L173.775 5.85817V19.0559H171.147V0.606018H173.909Z" fill="black"/>
<path d="M185.566 0.606018H188.194V19.0559H185.566V0.606018Z" fill="black"/>
<path d="M199.379 0.606018L205.713 19.0559H202.95L201.199 13.9384H194.73L192.978 19.0559H190.216L196.549 0.606018H199.379ZM200.39 11.3123L198.032 4.51146L195.673 11.3123H200.39Z" fill="black"/>
<path d="M210.632 0.606018L217.572 13.8037V0.606018H220.133V19.0559H217.37L210.497 5.85817V19.0559H207.869V0.606018H210.632Z" fill="black"/>
<path d="M125.934 25.4527L121.016 43.9699H118.32L114.614 30.0989L110.909 43.9699H108.213L103.294 25.4527H105.99L109.561 38.9198L113.132 25.4527H116.029L119.601 38.9198L123.172 25.4527H125.934Z" fill="black"/>
<path d="M135.637 25.5201C137.996 25.5201 139.815 26.3281 141.162 28.0115C142.51 29.6948 143.184 31.9169 143.184 34.745C143.184 37.5731 142.51 39.8625 141.162 41.4785C139.815 43.1619 137.928 43.9699 135.637 43.9699C133.346 43.9699 131.46 43.1619 130.112 41.4785C128.764 39.7951 128.091 37.5731 128.091 34.745C128.091 31.9169 128.764 29.6275 130.112 28.0115C131.46 26.3281 133.279 25.5201 135.637 25.5201ZM135.637 41.3438C137.187 41.3438 138.467 40.7378 139.276 39.5931C140.152 38.4484 140.556 36.765 140.556 34.6776C140.556 32.5902 140.152 30.9069 139.276 29.7622C138.4 28.6175 137.187 28.0115 135.637 28.0115C134.087 28.0115 132.807 28.6175 131.999 29.7622C131.123 30.9069 130.718 32.5229 130.718 34.6776C130.718 36.765 131.123 38.4484 131.999 39.5931C132.807 40.8051 134.02 41.3438 135.637 41.3438Z" fill="black"/>
<path d="M160.568 25.5201V43.9699H157.94V33.1289L154.302 43.5659H151.539L147.9 33.1289V43.9699H145.273V25.5201H147.968L152.954 39.6605L157.94 25.5201H160.568Z" fill="black"/>
<path d="M174.516 25.5201V28.0788H165.285V33.3983H171.551V36.0243H165.285V41.3438H174.516V43.9699H162.657V25.5201H174.516Z" fill="black"/>
<path d="M179.435 25.5201L186.375 38.7178V25.5201H188.935V43.9699H186.173L179.232 30.7722V43.9699H176.605V25.5201H179.435Z" fill="black"/>
<path d="M109.359 50.4341C111.111 50.4341 112.526 50.9054 113.604 51.9155C114.682 52.8581 115.221 54.2049 115.221 55.8209C115.221 57.4369 114.682 58.7163 113.604 59.7263C112.526 60.669 111.111 61.2077 109.359 61.2077H105.922V69.0186H103.294V50.4341H109.359ZM109.359 58.447C110.235 58.447 110.976 58.245 111.515 57.9083C112.256 57.4369 112.593 56.6963 112.593 55.6862C112.593 54.6762 112.256 53.9355 111.515 53.4642C110.976 53.1275 110.235 52.9255 109.359 52.9255H105.922V58.3796H109.359V58.447Z" fill="black"/>
<path d="M130.112 50.4341V68.8839H127.552V60.9384H119.938V68.8839H117.31V50.4341H119.938V58.3796H127.552V50.4341H130.112Z" fill="black"/>
<path d="M139.747 50.4341C142.106 50.4341 143.925 51.2421 145.273 52.9255C146.62 54.6089 147.294 56.8309 147.294 59.659C147.294 62.4871 146.62 64.7765 145.273 66.3925C143.925 68.0759 142.038 68.8839 139.747 68.8839C137.456 68.8839 135.57 68.0759 134.222 66.3925C132.875 64.7092 132.201 62.4871 132.201 59.659C132.201 56.8309 132.875 54.5415 134.222 52.9255C135.57 51.2421 137.456 50.4341 139.747 50.4341ZM139.747 66.2579C141.297 66.2579 142.577 65.6518 143.386 64.5071C144.262 63.3624 144.666 61.6791 144.666 59.5917C144.666 57.5043 144.262 55.8209 143.386 54.6762C142.51 53.5315 141.297 52.9255 139.747 52.9255C138.198 52.9255 136.917 53.5315 136.109 54.6762C135.233 55.8209 134.829 57.4369 134.829 59.5917C134.829 61.6791 135.233 63.3624 136.109 64.5071C136.985 65.7192 138.198 66.2579 139.747 66.2579Z" fill="black"/>
<path d="M162.657 50.4341V53.0602H157.401V68.9513H154.773V52.9928H149.518V50.3668H162.657V50.4341Z" fill="black"/>
<path d="M172.292 50.4341C174.651 50.4341 176.47 51.2421 177.817 52.9255C179.165 54.6089 179.839 56.8309 179.839 59.659C179.839 62.4871 179.165 64.7765 177.817 66.3925C176.47 68.0759 174.583 68.8839 172.292 68.8839C169.934 68.8839 168.115 68.0759 166.767 66.3925C165.419 64.7092 164.746 62.4871 164.746 59.659C164.746 56.8309 165.419 54.5415 166.767 52.9255C168.115 51.2421 170.001 50.4341 172.292 50.4341ZM172.292 66.2579C173.842 66.2579 175.122 65.6518 175.931 64.5071C176.807 63.3624 177.211 61.6791 177.211 59.5917C177.211 57.5043 176.807 55.8209 175.931 54.6762C175.055 53.5315 173.842 52.9255 172.292 52.9255C170.742 52.9255 169.462 53.5315 168.654 54.6762C167.778 55.8209 167.373 57.4369 167.373 59.5917C167.373 61.6791 167.778 63.3624 168.654 64.5071C169.53 65.7192 170.742 66.2579 172.292 66.2579Z" fill="black"/>
<path d="M189.542 68.8839C187.183 68.8839 185.364 68.0759 184.016 66.3925C182.669 64.7092 181.995 62.4871 181.995 59.659C181.995 56.8309 182.669 54.5415 184.084 52.9255C185.499 51.2421 187.386 50.4341 189.811 50.4341C191.428 50.4341 192.843 50.8381 193.989 51.5788C195.134 52.3195 196.078 53.4642 196.684 54.8782L194.326 55.8882C193.517 53.9355 191.967 52.9928 189.811 52.9928C188.127 52.9928 186.914 53.5988 185.971 54.7435C185.095 55.8882 184.623 57.5043 184.623 59.659C184.623 61.7464 185.027 63.4298 185.903 64.5745C186.779 65.7192 187.992 66.3252 189.542 66.3252C190.957 66.3252 192.102 65.8539 192.911 64.9112C193.719 63.9685 194.258 62.6891 194.393 60.9384H190.687V58.3123H197.156V68.8839H194.528V66.9986C193.248 68.2779 191.563 68.8839 189.542 68.8839Z" fill="black"/>
<path d="M211.103 55.7536C211.103 56.9656 210.767 58.043 210.16 58.9183C209.554 59.7937 208.678 60.3997 207.532 60.7364L211.44 68.8839H208.543L204.77 61.073H201.805V68.8839H199.177V50.4341H205.241C206.993 50.4341 208.408 50.9054 209.486 51.9155C210.564 52.7908 211.103 54.1375 211.103 55.7536ZM205.309 58.447C206.185 58.447 206.926 58.245 207.465 57.9083C208.206 57.4369 208.543 56.6963 208.543 55.6862C208.543 54.6762 208.206 53.9355 207.465 53.4642C206.926 53.1275 206.185 52.9255 205.309 52.9255H201.872V58.3796H205.309V58.447Z" fill="black"/>
<path d="M222.626 50.4341L228.959 68.8839H226.197L224.445 63.7665H217.976L216.224 68.8839H213.462L219.796 50.4341H222.626ZM223.636 61.1404L221.278 54.3395L218.92 61.1404H223.636Z" fill="black"/>
<path d="M237.18 50.4341C238.932 50.4341 240.347 50.9054 241.425 51.9155C242.503 52.8581 243.042 54.2049 243.042 55.8209C243.042 57.4369 242.503 58.7163 241.425 59.7263C240.347 60.669 238.932 61.2077 237.18 61.2077H233.743V69.0186H231.116V50.4341H237.18ZM237.18 58.447C238.056 58.447 238.797 58.245 239.336 57.9083C240.077 57.4369 240.414 56.6963 240.414 55.6862C240.414 54.6762 240.077 53.9355 239.336 53.4642C238.797 53.1275 238.056 52.9255 237.18 52.9255H233.743V58.3796H237.18V58.447Z" fill="black"/>
<path d="M257.866 50.4341V68.8839H255.305V60.9384H247.691V68.8839H245.063V50.4341H247.691V58.3796H255.305V50.4341H257.866Z" fill="black"/>
<path d="M271.881 50.4341V52.9928H262.65V58.3123H268.916V60.9384H262.65V66.2579H271.881V68.8839H260.022V50.4341H271.881Z" fill="black"/>
<path d="M285.829 55.7536C285.829 56.9656 285.492 58.043 284.885 58.9183C284.279 59.7937 283.403 60.3997 282.257 60.7364L286.166 68.8839H283.268L279.495 61.073H276.53V68.8839H273.902V50.4341H279.966C281.718 50.4341 283.133 50.9054 284.211 51.9155C285.29 52.7908 285.829 54.1375 285.829 55.7536ZM280.034 58.447C280.91 58.447 281.651 58.245 282.19 57.9083C282.931 57.4369 283.268 56.6963 283.268 55.6862C283.268 54.6762 282.931 53.9355 282.19 53.4642C281.651 53.1275 280.91 52.9255 280.034 52.9255H276.597V58.3796H280.034V58.447Z" fill="black"/>
<path d="M294.79 58.1103C296.812 58.1103 298.361 58.5817 299.574 59.5917C300.72 60.5344 301.326 61.8811 301.326 63.4971C301.326 65.1805 300.72 66.4599 299.574 67.4026C298.429 68.3453 296.812 68.884 294.79 68.884C292.836 68.884 291.219 68.4126 290.074 67.4699C288.928 66.5272 288.322 65.2478 288.254 63.6991L290.747 63.4971H290.815C290.815 64.5745 291.286 65.3152 292.23 65.7865C292.567 65.9885 293.038 66.1232 293.51 66.1905C293.914 66.2579 294.319 66.2579 294.723 66.2579C295.127 66.2579 295.599 66.2579 295.936 66.1905C296.407 66.1232 296.879 65.9885 297.216 65.7865C298.159 65.3152 298.631 64.5745 298.631 63.4971C298.631 62.4198 298.159 61.6791 297.216 61.2077C296.879 61.0057 296.407 60.8711 295.936 60.8037C295.531 60.7364 295.127 60.7364 294.723 60.7364C292.836 60.7364 291.286 60.265 290.141 59.3223C288.996 58.3797 288.456 57.1003 288.456 55.5516C288.456 54.0029 288.996 52.7235 290.141 51.7808C291.286 50.8381 292.769 50.3668 294.723 50.3668C296.542 50.3668 298.025 50.7708 299.17 51.6461C300.315 52.5215 300.922 53.6662 300.989 55.1476L298.429 55.3496C298.361 54.4069 297.957 53.7335 297.081 53.3295C296.744 53.1948 296.34 53.0602 295.936 52.9928C295.599 52.9255 295.195 52.9255 294.79 52.9255C294.386 52.9255 293.982 52.9255 293.645 52.9928C293.173 53.0602 292.769 53.1948 292.432 53.3295C291.556 53.7335 291.084 54.4742 291.084 55.4169C291.084 56.3596 291.556 57.1003 292.432 57.5043C292.769 57.639 293.173 57.7736 293.645 57.841C293.982 58.1103 294.386 58.1103 294.79 58.1103Z" fill="black"/>
<path d="M110.909 75.3481C113.267 75.3481 115.086 76.1562 116.434 77.8395C117.781 79.5229 118.455 81.745 118.455 84.5731C118.455 87.4012 117.781 89.6906 116.434 91.3066C115.086 92.99 113.199 93.798 110.909 93.798C108.618 93.798 106.731 92.99 105.383 91.3066C104.036 89.6232 103.362 87.4012 103.362 84.5731C103.362 81.745 104.036 79.4556 105.383 77.8395C106.731 76.1562 108.55 75.3481 110.909 75.3481ZM110.909 91.1719C112.458 91.1719 113.738 90.5659 114.547 89.4212C115.423 88.2765 115.827 86.5931 115.827 84.5057C115.827 82.4183 115.423 80.735 114.547 79.5903C113.671 78.4456 112.458 77.8395 110.909 77.8395C109.359 77.8395 108.079 78.4456 107.27 79.5903C106.394 80.735 105.99 82.351 105.99 84.5057C105.99 86.5931 106.394 88.2765 107.27 89.4212C108.079 90.6332 109.291 91.1719 110.909 91.1719Z" fill="black"/>
<path d="M132.47 80.6676C132.47 81.8797 132.133 82.957 131.527 83.8324C130.921 84.7077 130.045 85.3138 128.899 85.6504L132.807 93.798H129.91L126.137 85.9871H123.172V93.798H120.611V75.3481H126.676C128.427 75.3481 129.842 75.8195 130.921 76.8295C131.931 77.7049 132.47 79.0516 132.47 80.6676ZM126.608 83.361C127.484 83.361 128.225 83.159 128.764 82.8224C129.506 82.351 129.842 81.6103 129.842 80.6003C129.842 79.5903 129.506 78.8496 128.764 78.3782C128.225 78.0416 127.484 77.8395 126.608 77.8395H123.172V83.2937H126.608V83.361Z" fill="black"/>
<path d="M142.443 93.798C140.084 93.798 138.265 92.99 136.917 91.3066C135.57 89.6232 134.896 87.4012 134.896 84.5731C134.896 81.745 135.57 79.4556 136.985 77.8395C138.4 76.1562 140.286 75.3481 142.712 75.3481C144.329 75.3481 145.744 75.7522 146.89 76.4928C148.035 77.2335 148.979 78.3782 149.585 79.7923L147.227 80.8023C146.418 78.8496 144.868 77.9069 142.712 77.9069C141.028 77.9069 139.815 78.5129 138.871 79.6576C137.996 80.8023 137.524 82.4183 137.524 84.5731C137.524 86.6605 137.928 88.3438 138.804 89.4885C139.68 90.6332 140.893 91.2393 142.443 91.2393C143.858 91.2393 145.003 90.7679 145.812 89.8252C146.62 88.8825 147.159 87.6032 147.294 85.8524H143.521V83.2264H149.989V93.798H147.361V91.9126C146.081 93.192 144.464 93.798 142.443 93.798Z" fill="black"/>
<path d="M161.242 75.3481L167.576 93.798H164.813L163.061 88.6805H156.593L154.841 93.798H152.078L158.412 75.3481H161.242ZM162.185 86.0544L159.827 79.2536L157.469 86.0544H162.185Z" fill="black"/>
<path d="M172.494 75.3481L179.435 88.5459V75.3481H181.995V93.798H179.232L172.292 80.6003V93.798H169.664V75.3481H172.494Z" fill="black"/>
<path d="M184.151 75.3481H186.779V93.798H184.151V75.3481Z" fill="black"/>
<path d="M202.075 75.3481V77.8395L192.17 91.2393H202.681V93.8653H188.868V91.3739L198.773 77.9742H188.935V75.4155H202.075V75.3481Z" fill="black"/>
<path d="M213.933 75.3481L220.267 93.798H217.505L215.753 88.6805H209.284L207.532 93.798H204.77L211.103 75.3481H213.933ZM214.877 86.0544L212.518 79.2536L210.16 86.0544H214.877Z" fill="black"/>
<path d="M235.563 75.3481V77.9742H230.307V93.8653H227.679V77.9742H222.423V75.3481H235.563Z" fill="black"/>
<path d="M237.651 75.3481H240.279V93.798H237.651V75.3481Z" fill="black"/>
<path d="M249.982 75.3481C252.34 75.3481 254.16 76.1562 255.507 77.8395C256.855 79.5229 257.529 81.745 257.529 84.5731C257.529 87.4012 256.855 89.6906 255.507 91.3066C254.16 92.99 252.273 93.798 249.982 93.798C247.691 93.798 245.805 92.99 244.457 91.3066C243.109 89.6232 242.435 87.4012 242.435 84.5731C242.435 81.745 243.109 79.4556 244.457 77.8395C245.805 76.1562 247.624 75.3481 249.982 75.3481ZM249.982 91.1719C251.532 91.1719 252.812 90.5659 253.621 89.4212C254.497 88.2765 254.901 86.5931 254.901 84.5057C254.901 82.4183 254.497 80.735 253.621 79.5903C252.745 78.4456 251.532 77.8395 249.982 77.8395C248.432 77.8395 247.152 78.4456 246.344 79.5903C245.468 80.735 245.063 82.351 245.063 84.5057C245.063 86.5931 245.468 88.2765 246.344 89.4212C247.152 90.6332 248.365 91.1719 249.982 91.1719Z" fill="black"/>
<path d="M262.38 75.3481L269.32 88.5459V75.3481H271.881V93.798H269.118L262.178 80.6003V93.798H259.55V75.3481H262.38Z" fill="black"/>
</symbol><symbol id="call" viewBox="0 0 24 25">
<path d="M19.44 13.9706C19.22 13.9706 18.99 13.9006 18.77 13.8506C18.3245 13.7524 17.8866 13.6221 17.46 13.4606C16.9961 13.2918 16.4861 13.3006 16.0283 13.4852C15.5704 13.6698 15.1971 14.0172 14.98 14.4606L14.76 14.9106C13.786 14.3687 12.891 13.6958 12.1 12.9106C11.3147 12.1196 10.6418 11.2246 10.1 10.2506L10.52 9.97057C10.9633 9.75349 11.3108 9.3801 11.4954 8.92226C11.68 8.46442 11.6888 7.95448 11.52 7.49057C11.3612 7.06299 11.2309 6.62537 11.13 6.18057C11.08 5.96057 11.04 5.73057 11.01 5.50057C10.8885 4.79619 10.5196 4.15831 9.9696 3.70181C9.4196 3.24531 8.72467 3.00018 8.00998 3.01057H5.00998C4.57901 3.00652 4.15223 3.09538 3.75869 3.2711C3.36515 3.44682 3.01409 3.70527 2.72941 4.02885C2.44473 4.35244 2.23311 4.73356 2.10897 5.14629C1.98482 5.55901 1.95106 5.99363 2.00998 6.42057C2.54272 10.61 4.45601 14.5024 7.44763 17.4832C10.4393 20.464 14.3387 22.3631 18.53 22.8806H18.91C19.6474 22.8817 20.3594 22.6111 20.91 22.1206C21.2263 21.8376 21.4791 21.4907 21.6514 21.1029C21.8238 20.715 21.9119 20.295 21.91 19.8706V16.8706C21.8977 16.176 21.6448 15.5071 21.1943 14.9782C20.7439 14.4494 20.1238 14.0932 19.44 13.9706ZM19.94 19.9706C19.9398 20.1126 19.9094 20.2529 19.8508 20.3822C19.7921 20.5115 19.7066 20.6269 19.6 20.7206C19.4882 20.817 19.3576 20.8891 19.2164 20.9322C19.0752 20.9752 18.9265 20.9883 18.78 20.9706C15.0349 20.4904 11.5562 18.7771 8.89269 16.1009C6.22917 13.4247 4.53239 9.93791 4.06998 6.19057C4.05406 6.04409 4.06801 5.8959 4.11098 5.75496C4.15395 5.61402 4.22505 5.48326 4.31998 5.37057C4.41369 5.2639 4.52904 5.17841 4.65836 5.11979C4.78767 5.06116 4.92799 5.03075 5.06998 5.03057H8.06998C8.30253 5.0254 8.5296 5.10145 8.71212 5.24564C8.89464 5.38983 9.02119 5.59314 9.06998 5.82057C9.10998 6.0939 9.15998 6.3639 9.21998 6.63057C9.3355 7.15772 9.48924 7.67575 9.67998 8.18057L8.27998 8.83057C8.16028 8.88549 8.0526 8.96352 7.96314 9.06017C7.87367 9.15682 7.80418 9.27019 7.75865 9.39377C7.71312 9.51735 7.69245 9.6487 7.69783 9.78029C7.7032 9.91188 7.73452 10.0411 7.78998 10.1606C9.22918 13.2433 11.7072 15.7214 14.79 17.1606C15.0334 17.2606 15.3065 17.2606 15.55 17.1606C15.6747 17.116 15.7893 17.047 15.8871 16.9578C15.985 16.8685 16.0641 16.7607 16.12 16.6406L16.74 15.2406C17.2569 15.4254 17.7846 15.5791 18.32 15.7006C18.5866 15.7606 18.8566 15.8106 19.13 15.8506C19.3574 15.8994 19.5607 16.0259 19.7049 16.2084C19.8491 16.3909 19.9252 16.618 19.92 16.8506L19.94 19.9706Z"/>
</symbol><symbol id="long-arrow-right" viewBox="0 0 35 36">
<path d="M35 17.9397C35 18.121 34.9183 18.301 34.7978 18.4218L27.02 25.5331C26.8178 25.7144 26.5546 25.7542 26.3109 25.654C26.088 25.5537 25.9259 25.3325 25.9259 25.0715V20.5715H0.648148C0.283889 20.5715 0 20.29 0 19.9287V16.0715C0 15.7102 0.283889 15.4287 0.648148 15.4287H25.9259V10.9287C25.9259 10.6677 26.0672 10.4465 26.3109 10.3462C26.5546 10.246 26.8178 10.2858 27.02 10.4465L34.7978 17.4781C34.9196 17.599 35 17.7597 35 17.9397Z"/>
</symbol><symbol id="mail" viewBox="0 0 24 25">
<path d="M14 12.4809H16.42C16.5516 12.4817 16.6821 12.4564 16.8039 12.4067C16.9257 12.3569 17.0366 12.2836 17.13 12.1909L21.71 7.6109C21.8037 7.51793 21.8781 7.40733 21.9289 7.28547C21.9797 7.16361 22.0058 7.03291 22.0058 6.9009C22.0058 6.76888 21.9797 6.63818 21.9289 6.51632C21.8781 6.39446 21.8037 6.28386 21.71 6.1909L19.29 3.7709C19.197 3.67717 19.0864 3.60277 18.9646 3.552C18.8427 3.50124 18.712 3.4751 18.58 3.4751C18.448 3.4751 18.3173 3.50124 18.1954 3.552C18.0736 3.60277 17.963 3.67717 17.87 3.7709L13.29 8.3509C13.1073 8.54253 13.0037 8.79613 13 9.0609V11.4809C13 11.7461 13.1054 12.0005 13.2929 12.188C13.4804 12.3755 13.7348 12.4809 14 12.4809ZM15 9.4809L18.58 5.9009L19.58 6.9009L16 10.4809H15V9.4809ZM21 11.4809C20.7348 11.4809 20.4804 11.5863 20.2929 11.7738C20.1054 11.9613 20 12.2157 20 12.4809V19.4809C20 19.7461 19.8946 20.0005 19.7071 20.188C19.5196 20.3755 19.2652 20.4809 19 20.4809H5C4.73478 20.4809 4.48043 20.3755 4.29289 20.188C4.10536 20.0005 4 19.7461 4 19.4809V9.8709L9.88 15.7609C10.1591 16.0436 10.4915 16.2681 10.858 16.4213C11.2245 16.5745 11.6178 16.6533 12.015 16.6533C12.4122 16.6533 12.8055 16.5745 13.172 16.4213C13.5385 16.2681 13.8709 16.0436 14.15 15.7609C14.3332 15.574 14.4359 15.3226 14.4359 15.0609C14.4359 14.7991 14.3332 14.5478 14.15 14.3609C14.0569 14.2656 13.9456 14.19 13.8229 14.1383C13.7001 14.0866 13.5682 14.06 13.435 14.06C13.3018 14.06 13.1699 14.0866 13.0471 14.1383C12.9244 14.19 12.8131 14.2656 12.72 14.3609C12.5331 14.5441 12.2818 14.6468 12.02 14.6468C11.7582 14.6468 11.5069 14.5441 11.32 14.3609L5.41 8.4609H10C10.2652 8.4609 10.5196 8.35554 10.7071 8.168C10.8946 7.98047 11 7.72611 11 7.4609C11 7.19568 10.8946 6.94133 10.7071 6.75379C10.5196 6.56625 10.2652 6.4609 10 6.4609H5C4.20435 6.4609 3.44129 6.77697 2.87868 7.33958C2.31607 7.90218 2 8.66525 2 9.4609V19.4609C2 20.2565 2.31607 21.0196 2.87868 21.5822C3.44129 22.1448 4.20435 22.4609 5 22.4609H19C19.7956 22.4609 20.5587 22.1448 21.1213 21.5822C21.6839 21.0196 22 20.2565 22 19.4609V12.4609C22 12.1957 21.8946 11.9413 21.7071 11.7538C21.5196 11.5663 21.2652 11.4609 21 11.4609V11.4809Z"/>
</symbol><symbol id="ship" viewBox="0 0 32 28">
<path d="M2.33394 15.84L2.44179 15.6705L8.94529 5.4966C9.04034 5.34765 9.26379 5.36305 9.33569 5.52485C10.4222 7.9598 11.3597 10.9881 10.9205 12.8734C10.733 13.6491 10.2193 14.6996 9.64134 15.6705C9.56689 15.8118 9.48469 15.9505 9.39734 16.084C9.35624 16.1457 9.28689 16.1816 9.21239 16.1816H2.52399C2.34419 16.1816 2.23889 15.9864 2.33394 15.84Z" fill="#0A0A0C"/>
<path d="M31.3222 17.7305V19.341C31.3222 19.4334 31.2657 19.5156 31.1835 19.5515C30.6801 19.7673 28.9566 20.5584 28.24 21.555C26.4112 24.1004 25.014 27.74 21.8906 27.74H8.8605C4.24235 27.74 0.5 23.9848 0.5 19.3512V19.2022C0.5 19.0789 0.60015 18.9788 0.72345 18.9788H7.98725C8.13105 18.9788 8.23635 19.1123 8.22355 19.2536C8.17215 19.7262 8.2595 20.2091 8.48295 20.6483C8.91445 21.5242 9.8083 22.0713 10.774 22.0713H14.37V19.2639H10.8151C10.6328 19.2639 10.525 19.0533 10.6303 18.9043C10.6688 18.8452 10.7125 18.7836 10.7586 18.7143C11.0951 18.2365 11.5754 17.4942 12.0532 16.6492C12.3794 16.079 12.6953 15.4702 12.9496 14.8589C13.001 14.7485 13.0421 14.6354 13.0832 14.525C13.1525 14.3298 13.2245 14.1474 13.2758 13.965C13.3272 13.8109 13.3682 13.6491 13.4093 13.4975C13.5301 12.9787 13.5814 12.4291 13.5814 11.8589C13.5814 11.6354 13.5712 11.4016 13.5506 11.1782C13.5403 10.9342 13.5096 10.6902 13.4787 10.4461C13.4582 10.2304 13.4196 10.0172 13.3785 9.79375C13.3272 9.46755 13.2552 9.14395 13.173 8.8177L13.1448 8.69445C13.0831 8.47095 13.0318 8.2578 12.9599 8.03435C12.757 7.3331 12.5232 6.6499 12.2766 6.01035C12.1867 5.75605 12.084 5.51205 11.9813 5.26805C11.8298 4.90075 11.6756 4.56685 11.5343 4.2509C11.4624 4.10705 11.4008 3.97605 11.3391 3.8425C11.2698 3.69095 11.1979 3.5394 11.1259 3.3956C11.0746 3.28515 11.0155 3.1824 10.9744 3.07965L10.5352 2.268C10.4735 2.15755 10.5763 2.02655 10.697 2.05995L13.4454 2.8048H13.4531C13.4582 2.8048 13.4608 2.8074 13.4633 2.8074L13.8255 2.90755L14.2236 3.0206L14.37 3.06165V1.4281C14.37 0.63955 15.0018 0 15.7827 0C16.1731 0 16.5276 0.15925 16.7819 0.41865C17.0361 0.6781 17.1954 1.03255 17.1954 1.4281V3.8528L17.4882 3.93495C17.5113 3.9427 17.5344 3.95295 17.555 3.96835C17.6269 4.0223 17.7296 4.1019 17.8606 4.19955C17.9634 4.2817 18.0738 4.3819 18.2073 4.48465C18.4719 4.6978 18.7878 4.97265 19.1346 5.2886C19.227 5.3682 19.317 5.4504 19.3992 5.5326C19.8461 5.9487 20.3469 6.4367 20.8247 6.9761C20.9583 7.12765 21.0892 7.28175 21.2228 7.44355C21.3563 7.60795 21.4977 7.76975 21.6209 7.9316C21.7827 8.14735 21.9574 8.3708 22.109 8.60455C22.1809 8.715 22.2631 8.828 22.3324 8.93845C22.5276 9.2338 22.6997 9.5395 22.8641 9.84515C22.9335 9.9864 23.0054 10.1405 23.067 10.292C23.2494 10.7004 23.3932 11.1166 23.4856 11.5326C23.5139 11.6226 23.5345 11.7202 23.5448 11.8075V11.8281C23.5756 11.9513 23.5858 12.0823 23.5961 12.2159C23.6372 12.6423 23.6166 13.0686 23.5242 13.4975C23.4857 13.6799 23.4343 13.852 23.3727 14.0344C23.311 14.2091 23.2493 14.3914 23.1698 14.5635C23.0156 14.9205 22.8333 15.2775 22.6175 15.6115C22.5482 15.7347 22.466 15.8658 22.3838 15.989C22.2939 16.12 22.2014 16.2433 22.1192 16.364C22.0062 16.5182 21.8855 16.6799 21.7622 16.8238C21.6517 16.9753 21.5387 17.1269 21.4154 17.2605C21.2433 17.4634 21.079 17.656 20.9069 17.841C20.8042 17.9617 20.6937 18.0849 20.5807 18.1954C20.4703 18.3186 20.3572 18.4291 20.2544 18.5319C20.0824 18.704 19.9386 18.8375 19.8178 18.948L19.5353 19.2074C19.4942 19.2433 19.4403 19.2639 19.3838 19.2639H17.1954V22.0713H19.9488C20.5652 22.0713 21.1509 21.8529 21.6235 21.4522C21.7853 21.311 22.4917 20.6997 23.3264 19.7776C23.3547 19.7467 23.3907 19.7236 23.4318 19.7134L31.0371 17.5147C31.1784 17.4736 31.3222 17.5815 31.3222 17.7305Z" fill="#0A0A0C"/>
</symbol></symbol><symbol id="logo" viewBox="0 0 302 94">
<path d="M75.6685 0.875366H57.1388V19.3926H75.6685V0.875366Z" fill="#1D1D1E"/>
<path d="M75.6685 19.3925H57.1388V37.9097H75.6685V19.3925Z" fill="#58585A"/>
<path d="M57.1387 37.9098H38.6091V56.427H57.1387V37.9098Z" fill="#1D1D1E"/>
<path d="M38.6091 19.3925H20.0794V37.9097H38.6091V19.3925Z" fill="#58585A"/>
<path d="M94.1981 19.3925H75.6685V37.9097H94.1981V19.3925Z" fill="#CFD0D2"/>
<path d="M38.6091 0.875366H20.0794V19.3926H38.6091V0.875366Z" fill="#939598"/>
<path d="M57.1387 19.3925H38.6091V37.9097H57.1387V19.3925Z" fill="#3A3A3C"/>
<path d="M38.6091 37.9098H20.0794V56.427H38.6091V37.9098Z" fill="#3A3A3C"/>
<path d="M57.1387 56.4269H38.6091V74.9441H57.1387V56.4269Z" fill="#939598"/>
<path d="M75.5337 37.9098H57.004V56.427H75.5337V37.9098Z" fill="#939598"/>
<path d="M20.0794 37.9098H1.54974V56.427H20.0794V37.9098Z" fill="#939598"/>
<path d="M38.6091 74.9441H20.0794V93.4613H38.6091V74.9441Z" fill="#CFD0D2"/>
<path d="M114.614 0.606018H117.175V11.447C117.175 13.8037 116.568 15.6891 115.288 17.0358C114.075 18.3825 112.391 19.0559 110.235 19.0559C108.079 19.0559 106.394 18.3825 105.181 17.0358C103.968 15.6891 103.294 13.8037 103.294 11.447V0.606018H105.922V11.447C105.922 11.9857 105.99 12.5244 106.057 13.063C106.192 13.6691 106.394 14.2751 106.664 14.6791C107.405 15.8911 108.618 16.4971 110.235 16.4971C111.919 16.4971 113.065 15.8911 113.806 14.6791C114.075 14.2077 114.278 13.6691 114.412 13.063C114.547 12.5917 114.547 12.053 114.547 11.447V0.606018H114.614Z" fill="black"/>
<path d="M121.892 0.606018V8.55158L128.967 0.606018H132.47L125.126 8.88825L132.403 19.0559H129.236L123.307 10.841L121.892 12.3897V18.9885H119.264V0.606018H121.892Z" fill="black"/>
<path d="M146.418 5.9255C146.418 7.13754 146.081 8.2149 145.475 9.09026C144.868 9.96562 143.992 10.5716 142.847 10.9083L146.755 19.0559H143.858L140.084 11.245H137.12V19.0559H134.492V0.606018H140.556C142.308 0.606018 143.723 1.07736 144.801 2.08739C145.879 2.96275 146.418 4.30946 146.418 5.9255ZM140.623 8.61891C141.499 8.61891 142.24 8.41691 142.78 8.08023C143.521 7.60888 143.858 6.8682 143.858 5.85817C143.858 4.84814 143.521 4.10745 142.78 3.6361C142.24 3.29943 141.499 3.09742 140.623 3.09742H137.187V8.55158H140.623V8.61891Z" fill="black"/>
<path d="M157.94 0.606018L164.274 19.0559H161.511L159.759 13.9384H153.291L151.539 19.0559H148.776L155.11 0.606018H157.94ZM158.951 11.3123L156.593 4.51146L154.234 11.3123H158.951Z" fill="black"/>
<path d="M166.43 0.606018H169.058V19.0559H166.43V0.606018Z" fill="black"/>
<path d="M173.909 0.606018L180.85 13.8037V0.606018H183.41V19.0559H180.647L173.775 5.85817V19.0559H171.147V0.606018H173.909Z" fill="black"/>
<path d="M185.566 0.606018H188.194V19.0559H185.566V0.606018Z" fill="black"/>
<path d="M199.379 0.606018L205.713 19.0559H202.95L201.199 13.9384H194.73L192.978 19.0559H190.216L196.549 0.606018H199.379ZM200.39 11.3123L198.032 4.51146L195.673 11.3123H200.39Z" fill="black"/>
<path d="M210.632 0.606018L217.572 13.8037V0.606018H220.133V19.0559H217.37L210.497 5.85817V19.0559H207.869V0.606018H210.632Z" fill="black"/>
<path d="M125.934 25.4527L121.016 43.9699H118.32L114.614 30.0989L110.909 43.9699H108.213L103.294 25.4527H105.99L109.561 38.9198L113.132 25.4527H116.029L119.601 38.9198L123.172 25.4527H125.934Z" fill="black"/>
<path d="M135.637 25.5201C137.996 25.5201 139.815 26.3281 141.162 28.0115C142.51 29.6948 143.184 31.9169 143.184 34.745C143.184 37.5731 142.51 39.8625 141.162 41.4785C139.815 43.1619 137.928 43.9699 135.637 43.9699C133.346 43.9699 131.46 43.1619 130.112 41.4785C128.764 39.7951 128.091 37.5731 128.091 34.745C128.091 31.9169 128.764 29.6275 130.112 28.0115C131.46 26.3281 133.279 25.5201 135.637 25.5201ZM135.637 41.3438C137.187 41.3438 138.467 40.7378 139.276 39.5931C140.152 38.4484 140.556 36.765 140.556 34.6776C140.556 32.5902 140.152 30.9069 139.276 29.7622C138.4 28.6175 137.187 28.0115 135.637 28.0115C134.087 28.0115 132.807 28.6175 131.999 29.7622C131.123 30.9069 130.718 32.5229 130.718 34.6776C130.718 36.765 131.123 38.4484 131.999 39.5931C132.807 40.8051 134.02 41.3438 135.637 41.3438Z" fill="black"/>
<path d="M160.568 25.5201V43.9699H157.94V33.1289L154.302 43.5659H151.539L147.9 33.1289V43.9699H145.273V25.5201H147.968L152.954 39.6605L157.94 25.5201H160.568Z" fill="black"/>
<path d="M174.516 25.5201V28.0788H165.285V33.3983H171.551V36.0243H165.285V41.3438H174.516V43.9699H162.657V25.5201H174.516Z" fill="black"/>
<path d="M179.435 25.5201L186.375 38.7178V25.5201H188.935V43.9699H186.173L179.232 30.7722V43.9699H176.605V25.5201H179.435Z" fill="black"/>
<path d="M109.359 50.4341C111.111 50.4341 112.526 50.9054 113.604 51.9155C114.682 52.8581 115.221 54.2049 115.221 55.8209C115.221 57.4369 114.682 58.7163 113.604 59.7263C112.526 60.669 111.111 61.2077 109.359 61.2077H105.922V69.0186H103.294V50.4341H109.359ZM109.359 58.447C110.235 58.447 110.976 58.245 111.515 57.9083C112.256 57.4369 112.593 56.6963 112.593 55.6862C112.593 54.6762 112.256 53.9355 111.515 53.4642C110.976 53.1275 110.235 52.9255 109.359 52.9255H105.922V58.3796H109.359V58.447Z" fill="black"/>
<path d="M130.112 50.4341V68.8839H127.552V60.9384H119.938V68.8839H117.31V50.4341H119.938V58.3796H127.552V50.4341H130.112Z" fill="black"/>
<path d="M139.747 50.4341C142.106 50.4341 143.925 51.2421 145.273 52.9255C146.62 54.6089 147.294 56.8309 147.294 59.659C147.294 62.4871 146.62 64.7765 145.273 66.3925C143.925 68.0759 142.038 68.8839 139.747 68.8839C137.456 68.8839 135.57 68.0759 134.222 66.3925C132.875 64.7092 132.201 62.4871 132.201 59.659C132.201 56.8309 132.875 54.5415 134.222 52.9255C135.57 51.2421 137.456 50.4341 139.747 50.4341ZM139.747 66.2579C141.297 66.2579 142.577 65.6518 143.386 64.5071C144.262 63.3624 144.666 61.6791 144.666 59.5917C144.666 57.5043 144.262 55.8209 143.386 54.6762C142.51 53.5315 141.297 52.9255 139.747 52.9255C138.198 52.9255 136.917 53.5315 136.109 54.6762C135.233 55.8209 134.829 57.4369 134.829 59.5917C134.829 61.6791 135.233 63.3624 136.109 64.5071C136.985 65.7192 138.198 66.2579 139.747 66.2579Z" fill="black"/>
<path d="M162.657 50.4341V53.0602H157.401V68.9513H154.773V52.9928H149.518V50.3668H162.657V50.4341Z" fill="black"/>
<path d="M172.292 50.4341C174.651 50.4341 176.47 51.2421 177.817 52.9255C179.165 54.6089 179.839 56.8309 179.839 59.659C179.839 62.4871 179.165 64.7765 177.817 66.3925C176.47 68.0759 174.583 68.8839 172.292 68.8839C169.934 68.8839 168.115 68.0759 166.767 66.3925C165.419 64.7092 164.746 62.4871 164.746 59.659C164.746 56.8309 165.419 54.5415 166.767 52.9255C168.115 51.2421 170.001 50.4341 172.292 50.4341ZM172.292 66.2579C173.842 66.2579 175.122 65.6518 175.931 64.5071C176.807 63.3624 177.211 61.6791 177.211 59.5917C177.211 57.5043 176.807 55.8209 175.931 54.6762C175.055 53.5315 173.842 52.9255 172.292 52.9255C170.742 52.9255 169.462 53.5315 168.654 54.6762C167.778 55.8209 167.373 57.4369 167.373 59.5917C167.373 61.6791 167.778 63.3624 168.654 64.5071C169.53 65.7192 170.742 66.2579 172.292 66.2579Z" fill="black"/>
<path d="M189.542 68.8839C187.183 68.8839 185.364 68.0759 184.016 66.3925C182.669 64.7092 181.995 62.4871 181.995 59.659C181.995 56.8309 182.669 54.5415 184.084 52.9255C185.499 51.2421 187.386 50.4341 189.811 50.4341C191.428 50.4341 192.843 50.8381 193.989 51.5788C195.134 52.3195 196.078 53.4642 196.684 54.8782L194.326 55.8882C193.517 53.9355 191.967 52.9928 189.811 52.9928C188.127 52.9928 186.914 53.5988 185.971 54.7435C185.095 55.8882 184.623 57.5043 184.623 59.659C184.623 61.7464 185.027 63.4298 185.903 64.5745C186.779 65.7192 187.992 66.3252 189.542 66.3252C190.957 66.3252 192.102 65.8539 192.911 64.9112C193.719 63.9685 194.258 62.6891 194.393 60.9384H190.687V58.3123H197.156V68.8839H194.528V66.9986C193.248 68.2779 191.563 68.8839 189.542 68.8839Z" fill="black"/>
<path d="M211.103 55.7536C211.103 56.9656 210.767 58.043 210.16 58.9183C209.554 59.7937 208.678 60.3997 207.532 60.7364L211.44 68.8839H208.543L204.77 61.073H201.805V68.8839H199.177V50.4341H205.241C206.993 50.4341 208.408 50.9054 209.486 51.9155C210.564 52.7908 211.103 54.1375 211.103 55.7536ZM205.309 58.447C206.185 58.447 206.926 58.245 207.465 57.9083C208.206 57.4369 208.543 56.6963 208.543 55.6862C208.543 54.6762 208.206 53.9355 207.465 53.4642C206.926 53.1275 206.185 52.9255 205.309 52.9255H201.872V58.3796H205.309V58.447Z" fill="black"/>
<path d="M222.626 50.4341L228.959 68.8839H226.197L224.445 63.7665H217.976L216.224 68.8839H213.462L219.796 50.4341H222.626ZM223.636 61.1404L221.278 54.3395L218.92 61.1404H223.636Z" fill="black"/>
<path d="M237.18 50.4341C238.932 50.4341 240.347 50.9054 241.425 51.9155C242.503 52.8581 243.042 54.2049 243.042 55.8209C243.042 57.4369 242.503 58.7163 241.425 59.7263C240.347 60.669 238.932 61.2077 237.18 61.2077H233.743V69.0186H231.116V50.4341H237.18ZM237.18 58.447C238.056 58.447 238.797 58.245 239.336 57.9083C240.077 57.4369 240.414 56.6963 240.414 55.6862C240.414 54.6762 240.077 53.9355 239.336 53.4642C238.797 53.1275 238.056 52.9255 237.18 52.9255H233.743V58.3796H237.18V58.447Z" fill="black"/>
<path d="M257.866 50.4341V68.8839H255.305V60.9384H247.691V68.8839H245.063V50.4341H247.691V58.3796H255.305V50.4341H257.866Z" fill="black"/>
<path d="M271.881 50.4341V52.9928H262.65V58.3123H268.916V60.9384H262.65V66.2579H271.881V68.8839H260.022V50.4341H271.881Z" fill="black"/>
<path d="M285.829 55.7536C285.829 56.9656 285.492 58.043 284.885 58.9183C284.279 59.7937 283.403 60.3997 282.257 60.7364L286.166 68.8839H283.268L279.495 61.073H276.53V68.8839H273.902V50.4341H279.966C281.718 50.4341 283.133 50.9054 284.211 51.9155C285.29 52.7908 285.829 54.1375 285.829 55.7536ZM280.034 58.447C280.91 58.447 281.651 58.245 282.19 57.9083C282.931 57.4369 283.268 56.6963 283.268 55.6862C283.268 54.6762 282.931 53.9355 282.19 53.4642C281.651 53.1275 280.91 52.9255 280.034 52.9255H276.597V58.3796H280.034V58.447Z" fill="black"/>
<path d="M294.79 58.1103C296.812 58.1103 298.361 58.5817 299.574 59.5917C300.72 60.5344 301.326 61.8811 301.326 63.4971C301.326 65.1805 300.72 66.4599 299.574 67.4026C298.429 68.3453 296.812 68.884 294.79 68.884C292.836 68.884 291.219 68.4126 290.074 67.4699C288.928 66.5272 288.322 65.2478 288.254 63.6991L290.747 63.4971H290.815C290.815 64.5745 291.286 65.3152 292.23 65.7865C292.567 65.9885 293.038 66.1232 293.51 66.1905C293.914 66.2579 294.319 66.2579 294.723 66.2579C295.127 66.2579 295.599 66.2579 295.936 66.1905C296.407 66.1232 296.879 65.9885 297.216 65.7865C298.159 65.3152 298.631 64.5745 298.631 63.4971C298.631 62.4198 298.159 61.6791 297.216 61.2077C296.879 61.0057 296.407 60.8711 295.936 60.8037C295.531 60.7364 295.127 60.7364 294.723 60.7364C292.836 60.7364 291.286 60.265 290.141 59.3223C288.996 58.3797 288.456 57.1003 288.456 55.5516C288.456 54.0029 288.996 52.7235 290.141 51.7808C291.286 50.8381 292.769 50.3668 294.723 50.3668C296.542 50.3668 298.025 50.7708 299.17 51.6461C300.315 52.5215 300.922 53.6662 300.989 55.1476L298.429 55.3496C298.361 54.4069 297.957 53.7335 297.081 53.3295C296.744 53.1948 296.34 53.0602 295.936 52.9928C295.599 52.9255 295.195 52.9255 294.79 52.9255C294.386 52.9255 293.982 52.9255 293.645 52.9928C293.173 53.0602 292.769 53.1948 292.432 53.3295C291.556 53.7335 291.084 54.4742 291.084 55.4169C291.084 56.3596 291.556 57.1003 292.432 57.5043C292.769 57.639 293.173 57.7736 293.645 57.841C293.982 58.1103 294.386 58.1103 294.79 58.1103Z" fill="black"/>
<path d="M110.909 75.3481C113.267 75.3481 115.086 76.1562 116.434 77.8395C117.781 79.5229 118.455 81.745 118.455 84.5731C118.455 87.4012 117.781 89.6906 116.434 91.3066C115.086 92.99 113.199 93.798 110.909 93.798C108.618 93.798 106.731 92.99 105.383 91.3066C104.036 89.6232 103.362 87.4012 103.362 84.5731C103.362 81.745 104.036 79.4556 105.383 77.8395C106.731 76.1562 108.55 75.3481 110.909 75.3481ZM110.909 91.1719C112.458 91.1719 113.738 90.5659 114.547 89.4212C115.423 88.2765 115.827 86.5931 115.827 84.5057C115.827 82.4183 115.423 80.735 114.547 79.5903C113.671 78.4456 112.458 77.8395 110.909 77.8395C109.359 77.8395 108.079 78.4456 107.27 79.5903C106.394 80.735 105.99 82.351 105.99 84.5057C105.99 86.5931 106.394 88.2765 107.27 89.4212C108.079 90.6332 109.291 91.1719 110.909 91.1719Z" fill="black"/>
<path d="M132.47 80.6676C132.47 81.8797 132.133 82.957 131.527 83.8324C130.921 84.7077 130.045 85.3138 128.899 85.6504L132.807 93.798H129.91L126.137 85.9871H123.172V93.798H120.611V75.3481H126.676C128.427 75.3481 129.842 75.8195 130.921 76.8295C131.931 77.7049 132.47 79.0516 132.47 80.6676ZM126.608 83.361C127.484 83.361 128.225 83.159 128.764 82.8224C129.506 82.351 129.842 81.6103 129.842 80.6003C129.842 79.5903 129.506 78.8496 128.764 78.3782C128.225 78.0416 127.484 77.8395 126.608 77.8395H123.172V83.2937H126.608V83.361Z" fill="black"/>
<path d="M142.443 93.798C140.084 93.798 138.265 92.99 136.917 91.3066C135.57 89.6232 134.896 87.4012 134.896 84.5731C134.896 81.745 135.57 79.4556 136.985 77.8395C138.4 76.1562 140.286 75.3481 142.712 75.3481C144.329 75.3481 145.744 75.7522 146.89 76.4928C148.035 77.2335 148.979 78.3782 149.585 79.7923L147.227 80.8023C146.418 78.8496 144.868 77.9069 142.712 77.9069C141.028 77.9069 139.815 78.5129 138.871 79.6576C137.996 80.8023 137.524 82.4183 137.524 84.5731C137.524 86.6605 137.928 88.3438 138.804 89.4885C139.68 90.6332 140.893 91.2393 142.443 91.2393C143.858 91.2393 145.003 90.7679 145.812 89.8252C146.62 88.8825 147.159 87.6032 147.294 85.8524H143.521V83.2264H149.989V93.798H147.361V91.9126C146.081 93.192 144.464 93.798 142.443 93.798Z" fill="black"/>
<path d="M161.242 75.3481L167.576 93.798H164.813L163.061 88.6805H156.593L154.841 93.798H152.078L158.412 75.3481H161.242ZM162.185 86.0544L159.827 79.2536L157.469 86.0544H162.185Z" fill="black"/>
<path d="M172.494 75.3481L179.435 88.5459V75.3481H181.995V93.798H179.232L172.292 80.6003V93.798H169.664V75.3481H172.494Z" fill="black"/>
<path d="M184.151 75.3481H186.779V93.798H184.151V75.3481Z" fill="black"/>
<path d="M202.075 75.3481V77.8395L192.17 91.2393H202.681V93.8653H188.868V91.3739L198.773 77.9742H188.935V75.4155H202.075V75.3481Z" fill="black"/>
<path d="M213.933 75.3481L220.267 93.798H217.505L215.753 88.6805H209.284L207.532 93.798H204.77L211.103 75.3481H213.933ZM214.877 86.0544L212.518 79.2536L210.16 86.0544H214.877Z" fill="black"/>
<path d="M235.563 75.3481V77.9742H230.307V93.8653H227.679V77.9742H222.423V75.3481H235.563Z" fill="black"/>
<path d="M237.651 75.3481H240.279V93.798H237.651V75.3481Z" fill="black"/>
<path d="M249.982 75.3481C252.34 75.3481 254.16 76.1562 255.507 77.8395C256.855 79.5229 257.529 81.745 257.529 84.5731C257.529 87.4012 256.855 89.6906 255.507 91.3066C254.16 92.99 252.273 93.798 249.982 93.798C247.691 93.798 245.805 92.99 244.457 91.3066C243.109 89.6232 242.435 87.4012 242.435 84.5731C242.435 81.745 243.109 79.4556 244.457 77.8395C245.805 76.1562 247.624 75.3481 249.982 75.3481ZM249.982 91.1719C251.532 91.1719 252.812 90.5659 253.621 89.4212C254.497 88.2765 254.901 86.5931 254.901 84.5057C254.901 82.4183 254.497 80.735 253.621 79.5903C252.745 78.4456 251.532 77.8395 249.982 77.8395C248.432 77.8395 247.152 78.4456 246.344 79.5903C245.468 80.735 245.063 82.351 245.063 84.5057C245.063 86.5931 245.468 88.2765 246.344 89.4212C247.152 90.6332 248.365 91.1719 249.982 91.1719Z" fill="black"/>
<path d="M262.38 75.3481L269.32 88.5459V75.3481H271.881V93.798H269.118L262.178 80.6003V93.798H259.55V75.3481H262.38Z" fill="black"/>
</symbol><symbol id="call" viewBox="0 0 24 25">
<path d="M19.44 13.9706C19.22 13.9706 18.99 13.9006 18.77 13.8506C18.3245 13.7524 17.8866 13.6221 17.46 13.4606C16.9961 13.2918 16.4861 13.3006 16.0283 13.4852C15.5704 13.6698 15.1971 14.0172 14.98 14.4606L14.76 14.9106C13.786 14.3687 12.891 13.6958 12.1 12.9106C11.3147 12.1196 10.6418 11.2246 10.1 10.2506L10.52 9.97057C10.9633 9.75349 11.3108 9.3801 11.4954 8.92226C11.68 8.46442 11.6888 7.95448 11.52 7.49057C11.3612 7.06299 11.2309 6.62537 11.13 6.18057C11.08 5.96057 11.04 5.73057 11.01 5.50057C10.8885 4.79619 10.5196 4.15831 9.9696 3.70181C9.4196 3.24531 8.72467 3.00018 8.00998 3.01057H5.00998C4.57901 3.00652 4.15223 3.09538 3.75869 3.2711C3.36515 3.44682 3.01409 3.70527 2.72941 4.02885C2.44473 4.35244 2.23311 4.73356 2.10897 5.14629C1.98482 5.55901 1.95106 5.99363 2.00998 6.42057C2.54272 10.61 4.45601 14.5024 7.44763 17.4832C10.4393 20.464 14.3387 22.3631 18.53 22.8806H18.91C19.6474 22.8817 20.3594 22.6111 20.91 22.1206C21.2263 21.8376 21.4791 21.4907 21.6514 21.1029C21.8238 20.715 21.9119 20.295 21.91 19.8706V16.8706C21.8977 16.176 21.6448 15.5071 21.1943 14.9782C20.7439 14.4494 20.1238 14.0932 19.44 13.9706ZM19.94 19.9706C19.9398 20.1126 19.9094 20.2529 19.8508 20.3822C19.7921 20.5115 19.7066 20.6269 19.6 20.7206C19.4882 20.817 19.3576 20.8891 19.2164 20.9322C19.0752 20.9752 18.9265 20.9883 18.78 20.9706C15.0349 20.4904 11.5562 18.7771 8.89269 16.1009C6.22917 13.4247 4.53239 9.93791 4.06998 6.19057C4.05406 6.04409 4.06801 5.8959 4.11098 5.75496C4.15395 5.61402 4.22505 5.48326 4.31998 5.37057C4.41369 5.2639 4.52904 5.17841 4.65836 5.11979C4.78767 5.06116 4.92799 5.03075 5.06998 5.03057H8.06998C8.30253 5.0254 8.5296 5.10145 8.71212 5.24564C8.89464 5.38983 9.02119 5.59314 9.06998 5.82057C9.10998 6.0939 9.15998 6.3639 9.21998 6.63057C9.3355 7.15772 9.48924 7.67575 9.67998 8.18057L8.27998 8.83057C8.16028 8.88549 8.0526 8.96352 7.96314 9.06017C7.87367 9.15682 7.80418 9.27019 7.75865 9.39377C7.71312 9.51735 7.69245 9.6487 7.69783 9.78029C7.7032 9.91188 7.73452 10.0411 7.78998 10.1606C9.22918 13.2433 11.7072 15.7214 14.79 17.1606C15.0334 17.2606 15.3065 17.2606 15.55 17.1606C15.6747 17.116 15.7893 17.047 15.8871 16.9578C15.985 16.8685 16.0641 16.7607 16.12 16.6406L16.74 15.2406C17.2569 15.4254 17.7846 15.5791 18.32 15.7006C18.5866 15.7606 18.8566 15.8106 19.13 15.8506C19.3574 15.8994 19.5607 16.0259 19.7049 16.2084C19.8491 16.3909 19.9252 16.618 19.92 16.8506L19.94 19.9706Z"/>
</symbol><symbol id="long-arrow-right" viewBox="0 0 35 36">
<path d="M35 17.9397C35 18.121 34.9183 18.301 34.7978 18.4218L27.02 25.5331C26.8178 25.7144 26.5546 25.7542 26.3109 25.654C26.088 25.5537 25.9259 25.3325 25.9259 25.0715V20.5715H0.648148C0.283889 20.5715 0 20.29 0 19.9287V16.0715C0 15.7102 0.283889 15.4287 0.648148 15.4287H25.9259V10.9287C25.9259 10.6677 26.0672 10.4465 26.3109 10.3462C26.5546 10.246 26.8178 10.2858 27.02 10.4465L34.7978 17.4781C34.9196 17.599 35 17.7597 35 17.9397Z"/>
</symbol><symbol id="mail" viewBox="0 0 24 25">
<path d="M14 12.4809H16.42C16.5516 12.4817 16.6821 12.4564 16.8039 12.4067C16.9257 12.3569 17.0366 12.2836 17.13 12.1909L21.71 7.6109C21.8037 7.51793 21.8781 7.40733 21.9289 7.28547C21.9797 7.16361 22.0058 7.03291 22.0058 6.9009C22.0058 6.76888 21.9797 6.63818 21.9289 6.51632C21.8781 6.39446 21.8037 6.28386 21.71 6.1909L19.29 3.7709C19.197 3.67717 19.0864 3.60277 18.9646 3.552C18.8427 3.50124 18.712 3.4751 18.58 3.4751C18.448 3.4751 18.3173 3.50124 18.1954 3.552C18.0736 3.60277 17.963 3.67717 17.87 3.7709L13.29 8.3509C13.1073 8.54253 13.0037 8.79613 13 9.0609V11.4809C13 11.7461 13.1054 12.0005 13.2929 12.188C13.4804 12.3755 13.7348 12.4809 14 12.4809ZM15 9.4809L18.58 5.9009L19.58 6.9009L16 10.4809H15V9.4809ZM21 11.4809C20.7348 11.4809 20.4804 11.5863 20.2929 11.7738C20.1054 11.9613 20 12.2157 20 12.4809V19.4809C20 19.7461 19.8946 20.0005 19.7071 20.188C19.5196 20.3755 19.2652 20.4809 19 20.4809H5C4.73478 20.4809 4.48043 20.3755 4.29289 20.188C4.10536 20.0005 4 19.7461 4 19.4809V9.8709L9.88 15.7609C10.1591 16.0436 10.4915 16.2681 10.858 16.4213C11.2245 16.5745 11.6178 16.6533 12.015 16.6533C12.4122 16.6533 12.8055 16.5745 13.172 16.4213C13.5385 16.2681 13.8709 16.0436 14.15 15.7609C14.3332 15.574 14.4359 15.3226 14.4359 15.0609C14.4359 14.7991 14.3332 14.5478 14.15 14.3609C14.0569 14.2656 13.9456 14.19 13.8229 14.1383C13.7001 14.0866 13.5682 14.06 13.435 14.06C13.3018 14.06 13.1699 14.0866 13.0471 14.1383C12.9244 14.19 12.8131 14.2656 12.72 14.3609C12.5331 14.5441 12.2818 14.6468 12.02 14.6468C11.7582 14.6468 11.5069 14.5441 11.32 14.3609L5.41 8.4609H10C10.2652 8.4609 10.5196 8.35554 10.7071 8.168C10.8946 7.98047 11 7.72611 11 7.4609C11 7.19568 10.8946 6.94133 10.7071 6.75379C10.5196 6.56625 10.2652 6.4609 10 6.4609H5C4.20435 6.4609 3.44129 6.77697 2.87868 7.33958C2.31607 7.90218 2 8.66525 2 9.4609V19.4609C2 20.2565 2.31607 21.0196 2.87868 21.5822C3.44129 22.1448 4.20435 22.4609 5 22.4609H19C19.7956 22.4609 20.5587 22.1448 21.1213 21.5822C21.6839 21.0196 22 20.2565 22 19.4609V12.4609C22 12.1957 21.8946 11.9413 21.7071 11.7538C21.5196 11.5663 21.2652 11.4609 21 11.4609V11.4809Z"/>
</symbol><symbol id="ship" viewBox="0 0 32 28">
<path d="M2.33394 15.84L2.44179 15.6705L8.94529 5.4966C9.04034 5.34765 9.26379 5.36305 9.33569 5.52485C10.4222 7.9598 11.3597 10.9881 10.9205 12.8734C10.733 13.6491 10.2193 14.6996 9.64134 15.6705C9.56689 15.8118 9.48469 15.9505 9.39734 16.084C9.35624 16.1457 9.28689 16.1816 9.21239 16.1816H2.52399C2.34419 16.1816 2.23889 15.9864 2.33394 15.84Z" fill="#0A0A0C"/>
<path d="M31.3222 17.7305V19.341C31.3222 19.4334 31.2657 19.5156 31.1835 19.5515C30.6801 19.7673 28.9566 20.5584 28.24 21.555C26.4112 24.1004 25.014 27.74 21.8906 27.74H8.8605C4.24235 27.74 0.5 23.9848 0.5 19.3512V19.2022C0.5 19.0789 0.60015 18.9788 0.72345 18.9788H7.98725C8.13105 18.9788 8.23635 19.1123 8.22355 19.2536C8.17215 19.7262 8.2595 20.2091 8.48295 20.6483C8.91445 21.5242 9.8083 22.0713 10.774 22.0713H14.37V19.2639H10.8151C10.6328 19.2639 10.525 19.0533 10.6303 18.9043C10.6688 18.8452 10.7125 18.7836 10.7586 18.7143C11.0951 18.2365 11.5754 17.4942 12.0532 16.6492C12.3794 16.079 12.6953 15.4702 12.9496 14.8589C13.001 14.7485 13.0421 14.6354 13.0832 14.525C13.1525 14.3298 13.2245 14.1474 13.2758 13.965C13.3272 13.8109 13.3682 13.6491 13.4093 13.4975C13.5301 12.9787 13.5814 12.4291 13.5814 11.8589C13.5814 11.6354 13.5712 11.4016 13.5506 11.1782C13.5403 10.9342 13.5096 10.6902 13.4787 10.4461C13.4582 10.2304 13.4196 10.0172 13.3785 9.79375C13.3272 9.46755 13.2552 9.14395 13.173 8.8177L13.1448 8.69445C13.0831 8.47095 13.0318 8.2578 12.9599 8.03435C12.757 7.3331 12.5232 6.6499 12.2766 6.01035C12.1867 5.75605 12.084 5.51205 11.9813 5.26805C11.8298 4.90075 11.6756 4.56685 11.5343 4.2509C11.4624 4.10705 11.4008 3.97605 11.3391 3.8425C11.2698 3.69095 11.1979 3.5394 11.1259 3.3956C11.0746 3.28515 11.0155 3.1824 10.9744 3.07965L10.5352 2.268C10.4735 2.15755 10.5763 2.02655 10.697 2.05995L13.4454 2.8048H13.4531C13.4582 2.8048 13.4608 2.8074 13.4633 2.8074L13.8255 2.90755L14.2236 3.0206L14.37 3.06165V1.4281C14.37 0.63955 15.0018 0 15.7827 0C16.1731 0 16.5276 0.15925 16.7819 0.41865C17.0361 0.6781 17.1954 1.03255 17.1954 1.4281V3.8528L17.4882 3.93495C17.5113 3.9427 17.5344 3.95295 17.555 3.96835C17.6269 4.0223 17.7296 4.1019 17.8606 4.19955C17.9634 4.2817 18.0738 4.3819 18.2073 4.48465C18.4719 4.6978 18.7878 4.97265 19.1346 5.2886C19.227 5.3682 19.317 5.4504 19.3992 5.5326C19.8461 5.9487 20.3469 6.4367 20.8247 6.9761C20.9583 7.12765 21.0892 7.28175 21.2228 7.44355C21.3563 7.60795 21.4977 7.76975 21.6209 7.9316C21.7827 8.14735 21.9574 8.3708 22.109 8.60455C22.1809 8.715 22.2631 8.828 22.3324 8.93845C22.5276 9.2338 22.6997 9.5395 22.8641 9.84515C22.9335 9.9864 23.0054 10.1405 23.067 10.292C23.2494 10.7004 23.3932 11.1166 23.4856 11.5326C23.5139 11.6226 23.5345 11.7202 23.5448 11.8075V11.8281C23.5756 11.9513 23.5858 12.0823 23.5961 12.2159C23.6372 12.6423 23.6166 13.0686 23.5242 13.4975C23.4857 13.6799 23.4343 13.852 23.3727 14.0344C23.311 14.2091 23.2493 14.3914 23.1698 14.5635C23.0156 14.9205 22.8333 15.2775 22.6175 15.6115C22.5482 15.7347 22.466 15.8658 22.3838 15.989C22.2939 16.12 22.2014 16.2433 22.1192 16.364C22.0062 16.5182 21.8855 16.6799 21.7622 16.8238C21.6517 16.9753 21.5387 17.1269 21.4154 17.2605C21.2433 17.4634 21.079 17.656 20.9069 17.841C20.8042 17.9617 20.6937 18.0849 20.5807 18.1954C20.4703 18.3186 20.3572 18.4291 20.2544 18.5319C20.0824 18.704 19.9386 18.8375 19.8178 18.948L19.5353 19.2074C19.4942 19.2433 19.4403 19.2639 19.3838 19.2639H17.1954V22.0713H19.9488C20.5652 22.0713 21.1509 21.8529 21.6235 21.4522C21.7853 21.311 22.4917 20.6997 23.3264 19.7776C23.3547 19.7467 23.3907 19.7236 23.4318 19.7134L31.0371 17.5147C31.1784 17.4736 31.3222 17.5815 31.3222 17.7305Z" fill="#0A0A0C"/>
</symbol></symbol><symbol id="logo" viewBox="0 0 302 94">
<path d="M75.6685 0.875366H57.1388V19.3926H75.6685V0.875366Z" fill="#1D1D1E"/>
<path d="M75.6685 19.3925H57.1388V37.9097H75.6685V19.3925Z" fill="#58585A"/>
<path d="M57.1387 37.9098H38.6091V56.427H57.1387V37.9098Z" fill="#1D1D1E"/>
<path d="M38.6091 19.3925H20.0794V37.9097H38.6091V19.3925Z" fill="#58585A"/>
<path d="M94.1981 19.3925H75.6685V37.9097H94.1981V19.3925Z" fill="#CFD0D2"/>
<path d="M38.6091 0.875366H20.0794V19.3926H38.6091V0.875366Z" fill="#939598"/>
<path d="M57.1387 19.3925H38.6091V37.9097H57.1387V19.3925Z" fill="#3A3A3C"/>
<path d="M38.6091 37.9098H20.0794V56.427H38.6091V37.9098Z" fill="#3A3A3C"/>
<path d="M57.1387 56.4269H38.6091V74.9441H57.1387V56.4269Z" fill="#939598"/>
<path d="M75.5337 37.9098H57.004V56.427H75.5337V37.9098Z" fill="#939598"/>
<path d="M20.0794 37.9098H1.54974V56.427H20.0794V37.9098Z" fill="#939598"/>
<path d="M38.6091 74.9441H20.0794V93.4613H38.6091V74.9441Z" fill="#CFD0D2"/>
<path d="M114.614 0.606018H117.175V11.447C117.175 13.8037 116.568 15.6891 115.288 17.0358C114.075 18.3825 112.391 19.0559 110.235 19.0559C108.079 19.0559 106.394 18.3825 105.181 17.0358C103.968 15.6891 103.294 13.8037 103.294 11.447V0.606018H105.922V11.447C105.922 11.9857 105.99 12.5244 106.057 13.063C106.192 13.6691 106.394 14.2751 106.664 14.6791C107.405 15.8911 108.618 16.4971 110.235 16.4971C111.919 16.4971 113.065 15.8911 113.806 14.6791C114.075 14.2077 114.278 13.6691 114.412 13.063C114.547 12.5917 114.547 12.053 114.547 11.447V0.606018H114.614Z" fill="black"/>
<path d="M121.892 0.606018V8.55158L128.967 0.606018H132.47L125.126 8.88825L132.403 19.0559H129.236L123.307 10.841L121.892 12.3897V18.9885H119.264V0.606018H121.892Z" fill="black"/>
<path d="M146.418 5.9255C146.418 7.13754 146.081 8.2149 145.475 9.09026C144.868 9.96562 143.992 10.5716 142.847 10.9083L146.755 19.0559H143.858L140.084 11.245H137.12V19.0559H134.492V0.606018H140.556C142.308 0.606018 143.723 1.07736 144.801 2.08739C145.879 2.96275 146.418 4.30946 146.418 5.9255ZM140.623 8.61891C141.499 8.61891 142.24 8.41691 142.78 8.08023C143.521 7.60888 143.858 6.8682 143.858 5.85817C143.858 4.84814 143.521 4.10745 142.78 3.6361C142.24 3.29943 141.499 3.09742 140.623 3.09742H137.187V8.55158H140.623V8.61891Z" fill="black"/>
<path d="M157.94 0.606018L164.274 19.0559H161.511L159.759 13.9384H153.291L151.539 19.0559H148.776L155.11 0.606018H157.94ZM158.951 11.3123L156.593 4.51146L154.234 11.3123H158.951Z" fill="black"/>
<path d="M166.43 0.606018H169.058V19.0559H166.43V0.606018Z" fill="black"/>
<path d="M173.909 0.606018L180.85 13.8037V0.606018H183.41V19.0559H180.647L173.775 5.85817V19.0559H171.147V0.606018H173.909Z" fill="black"/>
<path d="M185.566 0.606018H188.194V19.0559H185.566V0.606018Z" fill="black"/>
<path d="M199.379 0.606018L205.713 19.0559H202.95L201.199 13.9384H194.73L192.978 19.0559H190.216L196.549 0.606018H199.379ZM200.39 11.3123L198.032 4.51146L195.673 11.3123H200.39Z" fill="black"/>
<path d="M210.632 0.606018L217.572 13.8037V0.606018H220.133V19.0559H217.37L210.497 5.85817V19.0559H207.869V0.606018H210.632Z" fill="black"/>
<path d="M125.934 25.4527L121.016 43.9699H118.32L114.614 30.0989L110.909 43.9699H108.213L103.294 25.4527H105.99L109.561 38.9198L113.132 25.4527H116.029L119.601 38.9198L123.172 25.4527H125.934Z" fill="black"/>
<path d="M135.637 25.5201C137.996 25.5201 139.815 26.3281 141.162 28.0115C142.51 29.6948 143.184 31.9169 143.184 34.745C143.184 37.5731 142.51 39.8625 141.162 41.4785C139.815 43.1619 137.928 43.9699 135.637 43.9699C133.346 43.9699 131.46 43.1619 130.112 41.4785C128.764 39.7951 128.091 37.5731 128.091 34.745C128.091 31.9169 128.764 29.6275 130.112 28.0115C131.46 26.3281 133.279 25.5201 135.637 25.5201ZM135.637 41.3438C137.187 41.3438 138.467 40.7378 139.276 39.5931C140.152 38.4484 140.556 36.765 140.556 34.6776C140.556 32.5902 140.152 30.9069 139.276 29.7622C138.4 28.6175 137.187 28.0115 135.637 28.0115C134.087 28.0115 132.807 28.6175 131.999 29.7622C131.123 30.9069 130.718 32.5229 130.718 34.6776C130.718 36.765 131.123 38.4484 131.999 39.5931C132.807 40.8051 134.02 41.3438 135.637 41.3438Z" fill="black"/>
<path d="M160.568 25.5201V43.9699H157.94V33.1289L154.302 43.5659H151.539L147.9 33.1289V43.9699H145.273V25.5201H147.968L152.954 39.6605L157.94 25.5201H160.568Z" fill="black"/>
<path d="M174.516 25.5201V28.0788H165.285V33.3983H171.551V36.0243H165.285V41.3438H174.516V43.9699H162.657V25.5201H174.516Z" fill="black"/>
<path d="M179.435 25.5201L186.375 38.7178V25.5201H188.935V43.9699H186.173L179.232 30.7722V43.9699H176.605V25.5201H179.435Z" fill="black"/>
<path d="M109.359 50.4341C111.111 50.4341 112.526 50.9054 113.604 51.9155C114.682 52.8581 115.221 54.2049 115.221 55.8209C115.221 57.4369 114.682 58.7163 113.604 59.7263C112.526 60.669 111.111 61.2077 109.359 61.2077H105.922V69.0186H103.294V50.4341H109.359ZM109.359 58.447C110.235 58.447 110.976 58.245 111.515 57.9083C112.256 57.4369 112.593 56.6963 112.593 55.6862C112.593 54.6762 112.256 53.9355 111.515 53.4642C110.976 53.1275 110.235 52.9255 109.359 52.9255H105.922V58.3796H109.359V58.447Z" fill="black"/>
<path d="M130.112 50.4341V68.8839H127.552V60.9384H119.938V68.8839H117.31V50.4341H119.938V58.3796H127.552V50.4341H130.112Z" fill="black"/>
<path d="M139.747 50.4341C142.106 50.4341 143.925 51.2421 145.273 52.9255C146.62 54.6089 147.294 56.8309 147.294 59.659C147.294 62.4871 146.62 64.7765 145.273 66.3925C143.925 68.0759 142.038 68.8839 139.747 68.8839C137.456 68.8839 135.57 68.0759 134.222 66.3925C132.875 64.7092 132.201 62.4871 132.201 59.659C132.201 56.8309 132.875 54.5415 134.222 52.9255C135.57 51.2421 137.456 50.4341 139.747 50.4341ZM139.747 66.2579C141.297 66.2579 142.577 65.6518 143.386 64.5071C144.262 63.3624 144.666 61.6791 144.666 59.5917C144.666 57.5043 144.262 55.8209 143.386 54.6762C142.51 53.5315 141.297 52.9255 139.747 52.9255C138.198 52.9255 136.917 53.5315 136.109 54.6762C135.233 55.8209 134.829 57.4369 134.829 59.5917C134.829 61.6791 135.233 63.3624 136.109 64.5071C136.985 65.7192 138.198 66.2579 139.747 66.2579Z" fill="black"/>
<path d="M162.657 50.4341V53.0602H157.401V68.9513H154.773V52.9928H149.518V50.3668H162.657V50.4341Z" fill="black"/>
<path d="M172.292 50.4341C174.651 50.4341 176.47 51.2421 177.817 52.9255C179.165 54.6089 179.839 56.8309 179.839 59.659C179.839 62.4871 179.165 64.7765 177.817 66.3925C176.47 68.0759 174.583 68.8839 172.292 68.8839C169.934 68.8839 168.115 68.0759 166.767 66.3925C165.419 64.7092 164.746 62.4871 164.746 59.659C164.746 56.8309 165.419 54.5415 166.767 52.9255C168.115 51.2421 170.001 50.4341 172.292 50.4341ZM172.292 66.2579C173.842 66.2579 175.122 65.6518 175.931 64.5071C176.807 63.3624 177.211 61.6791 177.211 59.5917C177.211 57.5043 176.807 55.8209 175.931 54.6762C175.055 53.5315 173.842 52.9255 172.292 52.9255C170.742 52.9255 169.462 53.5315 168.654 54.6762C167.778 55.8209 167.373 57.4369 167.373 59.5917C167.373 61.6791 167.778 63.3624 168.654 64.5071C169.53 65.7192 170.742 66.2579 172.292 66.2579Z" fill="black"/>
<path d="M189.542 68.8839C187.183 68.8839 185.364 68.0759 184.016 66.3925C182.669 64.7092 181.995 62.4871 181.995 59.659C181.995 56.8309 182.669 54.5415 184.084 52.9255C185.499 51.2421 187.386 50.4341 189.811 50.4341C191.428 50.4341 192.843 50.8381 193.989 51.5788C195.134 52.3195 196.078 53.4642 196.684 54.8782L194.326 55.8882C193.517 53.9355 191.967 52.9928 189.811 52.9928C188.127 52.9928 186.914 53.5988 185.971 54.7435C185.095 55.8882 184.623 57.5043 184.623 59.659C184.623 61.7464 185.027 63.4298 185.903 64.5745C186.779 65.7192 187.992 66.3252 189.542 66.3252C190.957 66.3252 192.102 65.8539 192.911 64.9112C193.719 63.9685 194.258 62.6891 194.393 60.9384H190.687V58.3123H197.156V68.8839H194.528V66.9986C193.248 68.2779 191.563 68.8839 189.542 68.8839Z" fill="black"/>
<path d="M211.103 55.7536C211.103 56.9656 210.767 58.043 210.16 58.9183C209.554 59.7937 208.678 60.3997 207.532 60.7364L211.44 68.8839H208.543L204.77 61.073H201.805V68.8839H199.177V50.4341H205.241C206.993 50.4341 208.408 50.9054 209.486 51.9155C210.564 52.7908 211.103 54.1375 211.103 55.7536ZM205.309 58.447C206.185 58.447 206.926 58.245 207.465 57.9083C208.206 57.4369 208.543 56.6963 208.543 55.6862C208.543 54.6762 208.206 53.9355 207.465 53.4642C206.926 53.1275 206.185 52.9255 205.309 52.9255H201.872V58.3796H205.309V58.447Z" fill="black"/>
<path d="M222.626 50.4341L228.959 68.8839H226.197L224.445 63.7665H217.976L216.224 68.8839H213.462L219.796 50.4341H222.626ZM223.636 61.1404L221.278 54.3395L218.92 61.1404H223.636Z" fill="black"/>
<path d="M237.18 50.4341C238.932 50.4341 240.347 50.9054 241.425 51.9155C242.503 52.8581 243.042 54.2049 243.042 55.8209C243.042 57.4369 242.503 58.7163 241.425 59.7263C240.347 60.669 238.932 61.2077 237.18 61.2077H233.743V69.0186H231.116V50.4341H237.18ZM237.18 58.447C238.056 58.447 238.797 58.245 239.336 57.9083C240.077 57.4369 240.414 56.6963 240.414 55.6862C240.414 54.6762 240.077 53.9355 239.336 53.4642C238.797 53.1275 238.056 52.9255 237.18 52.9255H233.743V58.3796H237.18V58.447Z" fill="black"/>
<path d="M257.866 50.4341V68.8839H255.305V60.9384H247.691V68.8839H245.063V50.4341H247.691V58.3796H255.305V50.4341H257.866Z" fill="black"/>
<path d="M271.881 50.4341V52.9928H262.65V58.3123H268.916V60.9384H262.65V66.2579H271.881V68.8839H260.022V50.4341H271.881Z" fill="black"/>
<path d="M285.829 55.7536C285.829 56.9656 285.492 58.043 284.885 58.9183C284.279 59.7937 283.403 60.3997 282.257 60.7364L286.166 68.8839H283.268L279.495 61.073H276.53V68.8839H273.902V50.4341H279.966C281.718 50.4341 283.133 50.9054 284.211 51.9155C285.29 52.7908 285.829 54.1375 285.829 55.7536ZM280.034 58.447C280.91 58.447 281.651 58.245 282.19 57.9083C282.931 57.4369 283.268 56.6963 283.268 55.6862C283.268 54.6762 282.931 53.9355 282.19 53.4642C281.651 53.1275 280.91 52.9255 280.034 52.9255H276.597V58.3796H280.034V58.447Z" fill="black"/>
<path d="M294.79 58.1103C296.812 58.1103 298.361 58.5817 299.574 59.5917C300.72 60.5344 301.326 61.8811 301.326 63.4971C301.326 65.1805 300.72 66.4599 299.574 67.4026C298.429 68.3453 296.812 68.884 294.79 68.884C292.836 68.884 291.219 68.4126 290.074 67.4699C288.928 66.5272 288.322 65.2478 288.254 63.6991L290.747 63.4971H290.815C290.815 64.5745 291.286 65.3152 292.23 65.7865C292.567 65.9885 293.038 66.1232 293.51 66.1905C293.914 66.2579 294.319 66.2579 294.723 66.2579C295.127 66.2579 295.599 66.2579 295.936 66.1905C296.407 66.1232 296.879 65.9885 297.216 65.7865C298.159 65.3152 298.631 64.5745 298.631 63.4971C298.631 62.4198 298.159 61.6791 297.216 61.2077C296.879 61.0057 296.407 60.8711 295.936 60.8037C295.531 60.7364 295.127 60.7364 294.723 60.7364C292.836 60.7364 291.286 60.265 290.141 59.3223C288.996 58.3797 288.456 57.1003 288.456 55.5516C288.456 54.0029 288.996 52.7235 290.141 51.7808C291.286 50.8381 292.769 50.3668 294.723 50.3668C296.542 50.3668 298.025 50.7708 299.17 51.6461C300.315 52.5215 300.922 53.6662 300.989 55.1476L298.429 55.3496C298.361 54.4069 297.957 53.7335 297.081 53.3295C296.744 53.1948 296.34 53.0602 295.936 52.9928C295.599 52.9255 295.195 52.9255 294.79 52.9255C294.386 52.9255 293.982 52.9255 293.645 52.9928C293.173 53.0602 292.769 53.1948 292.432 53.3295C291.556 53.7335 291.084 54.4742 291.084 55.4169C291.084 56.3596 291.556 57.1003 292.432 57.5043C292.769 57.639 293.173 57.7736 293.645 57.841C293.982 58.1103 294.386 58.1103 294.79 58.1103Z" fill="black"/>
<path d="M110.909 75.3481C113.267 75.3481 115.086 76.1562 116.434 77.8395C117.781 79.5229 118.455 81.745 118.455 84.5731C118.455 87.4012 117.781 89.6906 116.434 91.3066C115.086 92.99 113.199 93.798 110.909 93.798C108.618 93.798 106.731 92.99 105.383 91.3066C104.036 89.6232 103.362 87.4012 103.362 84.5731C103.362 81.745 104.036 79.4556 105.383 77.8395C106.731 76.1562 108.55 75.3481 110.909 75.3481ZM110.909 91.1719C112.458 91.1719 113.738 90.5659 114.547 89.4212C115.423 88.2765 115.827 86.5931 115.827 84.5057C115.827 82.4183 115.423 80.735 114.547 79.5903C113.671 78.4456 112.458 77.8395 110.909 77.8395C109.359 77.8395 108.079 78.4456 107.27 79.5903C106.394 80.735 105.99 82.351 105.99 84.5057C105.99 86.5931 106.394 88.2765 107.27 89.4212C108.079 90.6332 109.291 91.1719 110.909 91.1719Z" fill="black"/>
<path d="M132.47 80.6676C132.47 81.8797 132.133 82.957 131.527 83.8324C130.921 84.7077 130.045 85.3138 128.899 85.6504L132.807 93.798H129.91L126.137 85.9871H123.172V93.798H120.611V75.3481H126.676C128.427 75.3481 129.842 75.8195 130.921 76.8295C131.931 77.7049 132.47 79.0516 132.47 80.6676ZM126.608 83.361C127.484 83.361 128.225 83.159 128.764 82.8224C129.506 82.351 129.842 81.6103 129.842 80.6003C129.842 79.5903 129.506 78.8496 128.764 78.3782C128.225 78.0416 127.484 77.8395 126.608 77.8395H123.172V83.2937H126.608V83.361Z" fill="black"/>
<path d="M142.443 93.798C140.084 93.798 138.265 92.99 136.917 91.3066C135.57 89.6232 134.896 87.4012 134.896 84.5731C134.896 81.745 135.57 79.4556 136.985 77.8395C138.4 76.1562 140.286 75.3481 142.712 75.3481C144.329 75.3481 145.744 75.7522 146.89 76.4928C148.035 77.2335 148.979 78.3782 149.585 79.7923L147.227 80.8023C146.418 78.8496 144.868 77.9069 142.712 77.9069C141.028 77.9069 139.815 78.5129 138.871 79.6576C137.996 80.8023 137.524 82.4183 137.524 84.5731C137.524 86.6605 137.928 88.3438 138.804 89.4885C139.68 90.6332 140.893 91.2393 142.443 91.2393C143.858 91.2393 145.003 90.7679 145.812 89.8252C146.62 88.8825 147.159 87.6032 147.294 85.8524H143.521V83.2264H149.989V93.798H147.361V91.9126C146.081 93.192 144.464 93.798 142.443 93.798Z" fill="black"/>
<path d="M161.242 75.3481L167.576 93.798H164.813L163.061 88.6805H156.593L154.841 93.798H152.078L158.412 75.3481H161.242ZM162.185 86.0544L159.827 79.2536L157.469 86.0544H162.185Z" fill="black"/>
<path d="M172.494 75.3481L179.435 88.5459V75.3481H181.995V93.798H179.232L172.292 80.6003V93.798H169.664V75.3481H172.494Z" fill="black"/>
<path d="M184.151 75.3481H186.779V93.798H184.151V75.3481Z" fill="black"/>
<path d="M202.075 75.3481V77.8395L192.17 91.2393H202.681V93.8653H188.868V91.3739L198.773 77.9742H188.935V75.4155H202.075V75.3481Z" fill="black"/>
<path d="M213.933 75.3481L220.267 93.798H217.505L215.753 88.6805H209.284L207.532 93.798H204.77L211.103 75.3481H213.933ZM214.877 86.0544L212.518 79.2536L210.16 86.0544H214.877Z" fill="black"/>
<path d="M235.563 75.3481V77.9742H230.307V93.8653H227.679V77.9742H222.423V75.3481H235.563Z" fill="black"/>
<path d="M237.651 75.3481H240.279V93.798H237.651V75.3481Z" fill="black"/>
<path d="M249.982 75.3481C252.34 75.3481 254.16 76.1562 255.507 77.8395C256.855 79.5229 257.529 81.745 257.529 84.5731C257.529 87.4012 256.855 89.6906 255.507 91.3066C254.16 92.99 252.273 93.798 249.982 93.798C247.691 93.798 245.805 92.99 244.457 91.3066C243.109 89.6232 242.435 87.4012 242.435 84.5731C242.435 81.745 243.109 79.4556 244.457 77.8395C245.805 76.1562 247.624 75.3481 249.982 75.3481ZM249.982 91.1719C251.532 91.1719 252.812 90.5659 253.621 89.4212C254.497 88.2765 254.901 86.5931 254.901 84.5057C254.901 82.4183 254.497 80.735 253.621 79.5903C252.745 78.4456 251.532 77.8395 249.982 77.8395C248.432 77.8395 247.152 78.4456 246.344 79.5903C245.468 80.735 245.063 82.351 245.063 84.5057C245.063 86.5931 245.468 88.2765 246.344 89.4212C247.152 90.6332 248.365 91.1719 249.982 91.1719Z" fill="black"/>
<path d="M262.38 75.3481L269.32 88.5459V75.3481H271.881V93.798H269.118L262.178 80.6003V93.798H259.55V75.3481H262.38Z" fill="black"/>
</symbol><symbol id="call" viewBox="0 0 24 25">
<path d="M19.44 13.9706C19.22 13.9706 18.99 13.9006 18.77 13.8506C18.3245 13.7524 17.8866 13.6221 17.46 13.4606C16.9961 13.2918 16.4861 13.3006 16.0283 13.4852C15.5704 13.6698 15.1971 14.0172 14.98 14.4606L14.76 14.9106C13.786 14.3687 12.891 13.6958 12.1 12.9106C11.3147 12.1196 10.6418 11.2246 10.1 10.2506L10.52 9.97057C10.9633 9.75349 11.3108 9.3801 11.4954 8.92226C11.68 8.46442 11.6888 7.95448 11.52 7.49057C11.3612 7.06299 11.2309 6.62537 11.13 6.18057C11.08 5.96057 11.04 5.73057 11.01 5.50057C10.8885 4.79619 10.5196 4.15831 9.9696 3.70181C9.4196 3.24531 8.72467 3.00018 8.00998 3.01057H5.00998C4.57901 3.00652 4.15223 3.09538 3.75869 3.2711C3.36515 3.44682 3.01409 3.70527 2.72941 4.02885C2.44473 4.35244 2.23311 4.73356 2.10897 5.14629C1.98482 5.55901 1.95106 5.99363 2.00998 6.42057C2.54272 10.61 4.45601 14.5024 7.44763 17.4832C10.4393 20.464 14.3387 22.3631 18.53 22.8806H18.91C19.6474 22.8817 20.3594 22.6111 20.91 22.1206C21.2263 21.8376 21.4791 21.4907 21.6514 21.1029C21.8238 20.715 21.9119 20.295 21.91 19.8706V16.8706C21.8977 16.176 21.6448 15.5071 21.1943 14.9782C20.7439 14.4494 20.1238 14.0932 19.44 13.9706ZM19.94 19.9706C19.9398 20.1126 19.9094 20.2529 19.8508 20.3822C19.7921 20.5115 19.7066 20.6269 19.6 20.7206C19.4882 20.817 19.3576 20.8891 19.2164 20.9322C19.0752 20.9752 18.9265 20.9883 18.78 20.9706C15.0349 20.4904 11.5562 18.7771 8.89269 16.1009C6.22917 13.4247 4.53239 9.93791 4.06998 6.19057C4.05406 6.04409 4.06801 5.8959 4.11098 5.75496C4.15395 5.61402 4.22505 5.48326 4.31998 5.37057C4.41369 5.2639 4.52904 5.17841 4.65836 5.11979C4.78767 5.06116 4.92799 5.03075 5.06998 5.03057H8.06998C8.30253 5.0254 8.5296 5.10145 8.71212 5.24564C8.89464 5.38983 9.02119 5.59314 9.06998 5.82057C9.10998 6.0939 9.15998 6.3639 9.21998 6.63057C9.3355 7.15772 9.48924 7.67575 9.67998 8.18057L8.27998 8.83057C8.16028 8.88549 8.0526 8.96352 7.96314 9.06017C7.87367 9.15682 7.80418 9.27019 7.75865 9.39377C7.71312 9.51735 7.69245 9.6487 7.69783 9.78029C7.7032 9.91188 7.73452 10.0411 7.78998 10.1606C9.22918 13.2433 11.7072 15.7214 14.79 17.1606C15.0334 17.2606 15.3065 17.2606 15.55 17.1606C15.6747 17.116 15.7893 17.047 15.8871 16.9578C15.985 16.8685 16.0641 16.7607 16.12 16.6406L16.74 15.2406C17.2569 15.4254 17.7846 15.5791 18.32 15.7006C18.5866 15.7606 18.8566 15.8106 19.13 15.8506C19.3574 15.8994 19.5607 16.0259 19.7049 16.2084C19.8491 16.3909 19.9252 16.618 19.92 16.8506L19.94 19.9706Z"/>
</symbol><symbol id="long-arrow-right" viewBox="0 0 35 36">
<path d="M35 17.9397C35 18.121 34.9183 18.301 34.7978 18.4218L27.02 25.5331C26.8178 25.7144 26.5546 25.7542 26.3109 25.654C26.088 25.5537 25.9259 25.3325 25.9259 25.0715V20.5715H0.648148C0.283889 20.5715 0 20.29 0 19.9287V16.0715C0 15.7102 0.283889 15.4287 0.648148 15.4287H25.9259V10.9287C25.9259 10.6677 26.0672 10.4465 26.3109 10.3462C26.5546 10.246 26.8178 10.2858 27.02 10.4465L34.7978 17.4781C34.9196 17.599 35 17.7597 35 17.9397Z"/>
</symbol><symbol id="mail" viewBox="0 0 24 25">
<path d="M14 12.4809H16.42C16.5516 12.4817 16.6821 12.4564 16.8039 12.4067C16.9257 12.3569 17.0366 12.2836 17.13 12.1909L21.71 7.6109C21.8037 7.51793 21.8781 7.40733 21.9289 7.28547C21.9797 7.16361 22.0058 7.03291 22.0058 6.9009C22.0058 6.76888 21.9797 6.63818 21.9289 6.51632C21.8781 6.39446 21.8037 6.28386 21.71 6.1909L19.29 3.7709C19.197 3.67717 19.0864 3.60277 18.9646 3.552C18.8427 3.50124 18.712 3.4751 18.58 3.4751C18.448 3.4751 18.3173 3.50124 18.1954 3.552C18.0736 3.60277 17.963 3.67717 17.87 3.7709L13.29 8.3509C13.1073 8.54253 13.0037 8.79613 13 9.0609V11.4809C13 11.7461 13.1054 12.0005 13.2929 12.188C13.4804 12.3755 13.7348 12.4809 14 12.4809ZM15 9.4809L18.58 5.9009L19.58 6.9009L16 10.4809H15V9.4809ZM21 11.4809C20.7348 11.4809 20.4804 11.5863 20.2929 11.7738C20.1054 11.9613 20 12.2157 20 12.4809V19.4809C20 19.7461 19.8946 20.0005 19.7071 20.188C19.5196 20.3755 19.2652 20.4809 19 20.4809H5C4.73478 20.4809 4.48043 20.3755 4.29289 20.188C4.10536 20.0005 4 19.7461 4 19.4809V9.8709L9.88 15.7609C10.1591 16.0436 10.4915 16.2681 10.858 16.4213C11.2245 16.5745 11.6178 16.6533 12.015 16.6533C12.4122 16.6533 12.8055 16.5745 13.172 16.4213C13.5385 16.2681 13.8709 16.0436 14.15 15.7609C14.3332 15.574 14.4359 15.3226 14.4359 15.0609C14.4359 14.7991 14.3332 14.5478 14.15 14.3609C14.0569 14.2656 13.9456 14.19 13.8229 14.1383C13.7001 14.0866 13.5682 14.06 13.435 14.06C13.3018 14.06 13.1699 14.0866 13.0471 14.1383C12.9244 14.19 12.8131 14.2656 12.72 14.3609C12.5331 14.5441 12.2818 14.6468 12.02 14.6468C11.7582 14.6468 11.5069 14.5441 11.32 14.3609L5.41 8.4609H10C10.2652 8.4609 10.5196 8.35554 10.7071 8.168C10.8946 7.98047 11 7.72611 11 7.4609C11 7.19568 10.8946 6.94133 10.7071 6.75379C10.5196 6.56625 10.2652 6.4609 10 6.4609H5C4.20435 6.4609 3.44129 6.77697 2.87868 7.33958C2.31607 7.90218 2 8.66525 2 9.4609V19.4609C2 20.2565 2.31607 21.0196 2.87868 21.5822C3.44129 22.1448 4.20435 22.4609 5 22.4609H19C19.7956 22.4609 20.5587 22.1448 21.1213 21.5822C21.6839 21.0196 22 20.2565 22 19.4609V12.4609C22 12.1957 21.8946 11.9413 21.7071 11.7538C21.5196 11.5663 21.2652 11.4609 21 11.4609V11.4809Z"/>
</symbol><symbol id="ship" viewBox="0 0 32 28">
<path d="M2.33394 15.84L2.44179 15.6705L8.94529 5.4966C9.04034 5.34765 9.26379 5.36305 9.33569 5.52485C10.4222 7.9598 11.3597 10.9881 10.9205 12.8734C10.733 13.6491 10.2193 14.6996 9.64134 15.6705C9.56689 15.8118 9.48469 15.9505 9.39734 16.084C9.35624 16.1457 9.28689 16.1816 9.21239 16.1816H2.52399C2.34419 16.1816 2.23889 15.9864 2.33394 15.84Z" fill="#0A0A0C"/>
<path d="M31.3222 17.7305V19.341C31.3222 19.4334 31.2657 19.5156 31.1835 19.5515C30.6801 19.7673 28.9566 20.5584 28.24 21.555C26.4112 24.1004 25.014 27.74 21.8906 27.74H8.8605C4.24235 27.74 0.5 23.9848 0.5 19.3512V19.2022C0.5 19.0789 0.60015 18.9788 0.72345 18.9788H7.98725C8.13105 18.9788 8.23635 19.1123 8.22355 19.2536C8.17215 19.7262 8.2595 20.2091 8.48295 20.6483C8.91445 21.5242 9.8083 22.0713 10.774 22.0713H14.37V19.2639H10.8151C10.6328 19.2639 10.525 19.0533 10.6303 18.9043C10.6688 18.8452 10.7125 18.7836 10.7586 18.7143C11.0951 18.2365 11.5754 17.4942 12.0532 16.6492C12.3794 16.079 12.6953 15.4702 12.9496 14.8589C13.001 14.7485 13.0421 14.6354 13.0832 14.525C13.1525 14.3298 13.2245 14.1474 13.2758 13.965C13.3272 13.8109 13.3682 13.6491 13.4093 13.4975C13.5301 12.9787 13.5814 12.4291 13.5814 11.8589C13.5814 11.6354 13.5712 11.4016 13.5506 11.1782C13.5403 10.9342 13.5096 10.6902 13.4787 10.4461C13.4582 10.2304 13.4196 10.0172 13.3785 9.79375C13.3272 9.46755 13.2552 9.14395 13.173 8.8177L13.1448 8.69445C13.0831 8.47095 13.0318 8.2578 12.9599 8.03435C12.757 7.3331 12.5232 6.6499 12.2766 6.01035C12.1867 5.75605 12.084 5.51205 11.9813 5.26805C11.8298 4.90075 11.6756 4.56685 11.5343 4.2509C11.4624 4.10705 11.4008 3.97605 11.3391 3.8425C11.2698 3.69095 11.1979 3.5394 11.1259 3.3956C11.0746 3.28515 11.0155 3.1824 10.9744 3.07965L10.5352 2.268C10.4735 2.15755 10.5763 2.02655 10.697 2.05995L13.4454 2.8048H13.4531C13.4582 2.8048 13.4608 2.8074 13.4633 2.8074L13.8255 2.90755L14.2236 3.0206L14.37 3.06165V1.4281C14.37 0.63955 15.0018 0 15.7827 0C16.1731 0 16.5276 0.15925 16.7819 0.41865C17.0361 0.6781 17.1954 1.03255 17.1954 1.4281V3.8528L17.4882 3.93495C17.5113 3.9427 17.5344 3.95295 17.555 3.96835C17.6269 4.0223 17.7296 4.1019 17.8606 4.19955C17.9634 4.2817 18.0738 4.3819 18.2073 4.48465C18.4719 4.6978 18.7878 4.97265 19.1346 5.2886C19.227 5.3682 19.317 5.4504 19.3992 5.5326C19.8461 5.9487 20.3469 6.4367 20.8247 6.9761C20.9583 7.12765 21.0892 7.28175 21.2228 7.44355C21.3563 7.60795 21.4977 7.76975 21.6209 7.9316C21.7827 8.14735 21.9574 8.3708 22.109 8.60455C22.1809 8.715 22.2631 8.828 22.3324 8.93845C22.5276 9.2338 22.6997 9.5395 22.8641 9.84515C22.9335 9.9864 23.0054 10.1405 23.067 10.292C23.2494 10.7004 23.3932 11.1166 23.4856 11.5326C23.5139 11.6226 23.5345 11.7202 23.5448 11.8075V11.8281C23.5756 11.9513 23.5858 12.0823 23.5961 12.2159C23.6372 12.6423 23.6166 13.0686 23.5242 13.4975C23.4857 13.6799 23.4343 13.852 23.3727 14.0344C23.311 14.2091 23.2493 14.3914 23.1698 14.5635C23.0156 14.9205 22.8333 15.2775 22.6175 15.6115C22.5482 15.7347 22.466 15.8658 22.3838 15.989C22.2939 16.12 22.2014 16.2433 22.1192 16.364C22.0062 16.5182 21.8855 16.6799 21.7622 16.8238C21.6517 16.9753 21.5387 17.1269 21.4154 17.2605C21.2433 17.4634 21.079 17.656 20.9069 17.841C20.8042 17.9617 20.6937 18.0849 20.5807 18.1954C20.4703 18.3186 20.3572 18.4291 20.2544 18.5319C20.0824 18.704 19.9386 18.8375 19.8178 18.948L19.5353 19.2074C19.4942 19.2433 19.4403 19.2639 19.3838 19.2639H17.1954V22.0713H19.9488C20.5652 22.0713 21.1509 21.8529 21.6235 21.4522C21.7853 21.311 22.4917 20.6997 23.3264 19.7776C23.3547 19.7467 23.3907 19.7236 23.4318 19.7134L31.0371 17.5147C31.1784 17.4736 31.3222 17.5815 31.3222 17.7305Z" fill="#0A0A0C"/>
</symbol></svg>